<svg width="18" height="21" viewBox="0 0 18 21" fill="none" xmlns="http://www.w3.org/2000/svg">
<path d="M11.2119 0.596497C9.75888 1.5205 9.32988 3.44748 10.2539 4.90048C10.6899 5.58548 11.3479 6.0425 12.0749 6.2385C11.9439 6.8375 11.8249 7.44149 11.7239 8.04549C11.0369 7.96149 10.3179 8.09949 9.68388 8.48949C9.21488 8.77749 8.84688 9.16949 8.59188 9.61749C8.21588 9.61449 7.83588 9.51849 7.46688 9.46649C7.22588 9.43249 6.98588 9.39649 6.74588 9.36049C6.78188 8.73149 6.62888 8.08649 6.26488 7.51349C5.34088 6.06049 3.41388 5.6315 1.96088 6.5555C0.507883 7.4795 0.0788827 9.40648 1.00288 10.8595C1.40888 11.4985 2.00888 11.9385 2.67688 12.1545C2.74488 12.1845 2.81388 12.2145 2.88588 12.2415C2.95588 12.2485 3.02488 12.2535 3.09288 12.2575C3.83288 12.3885 4.62288 12.2535 5.30788 11.8185C5.87488 11.4575 6.28488 10.9445 6.52088 10.3665C7.07488 10.5485 7.63288 10.7205 8.19288 10.8765C8.05688 12.2225 8.77388 13.6755 10.5589 14.3685C10.5779 14.3755 10.5979 14.3805 10.6169 14.3825C11.2819 14.4475 11.8719 14.3695 12.3799 14.1885C12.4199 14.2585 12.4609 14.3275 12.5009 14.3975C11.2089 15.2805 10.7569 17.0115 11.5059 18.4275C12.3109 19.9495 14.1979 20.5315 15.7199 19.7265C16.9709 19.0655 17.5849 17.6735 17.3189 16.3545C17.2889 16.1235 17.2369 15.8845 17.1599 15.6395C17.0379 15.4485 16.9079 15.2755 16.7709 15.1195C16.0039 14.0775 14.6689 13.6235 13.4349 13.9645C13.3979 13.8645 13.3609 13.7655 13.3229 13.6665C14.5549 12.6835 14.8919 10.9095 14.0459 9.53349C13.7829 9.10549 13.4339 8.76249 13.0339 8.51149C13.0359 8.49649 13.0369 8.48149 13.0339 8.46349C12.9649 8.04749 13.0349 7.61048 13.0489 7.19148C13.0589 6.90848 13.0709 6.62548 13.0829 6.34248C13.5909 6.31048 14.0989 6.1545 14.5589 5.8615C16.0119 4.9375 16.4409 3.0105 15.5169 1.5575C14.5929 0.101495 12.6649 -0.327503 11.2119 0.596497ZM6.78188 10.1445C6.72688 10.1265 6.67088 10.1085 6.61588 10.0905C6.65888 9.94748 6.69188 9.8005 6.71488 9.6525C6.95788 9.6885 7.20088 9.72549 7.44488 9.75949C7.77488 9.80549 8.11088 9.88549 8.44688 9.90649C8.35388 10.1175 8.28388 10.3365 8.23888 10.5615C8.22088 10.5595 8.20188 10.5615 8.18488 10.5685C7.72788 10.4405 7.24388 10.2935 6.78188 10.1445ZM12.8029 14.2125C12.7839 14.2225 12.7669 14.2325 12.7489 14.2435C12.6269 14.0315 12.5049 13.8185 12.3799 13.6075C12.2929 13.4585 12.2099 13.3035 12.1259 13.1495V13.1485C12.1249 13.1385 12.1249 13.1275 12.1249 13.1175C12.1249 13.1145 12.1249 13.1105 12.1249 13.1075C12.1299 13.0865 12.1329 13.0655 12.1389 13.0445C12.1389 13.0425 12.1399 13.0415 12.1399 13.0395C12.1459 13.0295 12.1499 13.0165 12.1549 13.0055C12.1649 12.9845 12.1779 12.9655 12.1889 12.9455C12.1889 12.9455 12.1899 12.9445 12.1909 12.9425C12.1999 12.9315 12.2079 12.9205 12.2169 12.9095C12.2319 12.8925 12.2469 12.8755 12.2639 12.8605C12.2709 12.8535 12.2789 12.8475 12.2859 12.8405C12.2899 12.8375 12.2939 12.8335 12.2989 12.8305C12.3179 12.8165 12.3379 12.8025 12.3589 12.7895C12.3699 12.7825 12.3809 12.7765 12.3919 12.7705C12.3959 12.7685 12.3999 12.7665 12.4029 12.7645H12.4009L12.4039 12.7635L12.4069 12.7625C12.4149 12.7585 12.4209 12.7595 12.4209 12.7595C12.4359 12.7535 12.4509 12.7445 12.4629 12.7405C12.4739 12.7365 12.5239 12.7165 12.5329 12.7225C12.5329 12.7225 12.4979 12.7265 12.5189 12.7245C12.5239 12.7245 12.5289 12.7235 12.5349 12.7225C12.5469 12.7215 12.5579 12.7205 12.5699 12.7195C12.5779 12.7195 12.5859 12.7195 12.5939 12.7195C12.5919 12.7195 12.5899 12.7175 12.5899 12.7175C12.5899 12.7175 12.5979 12.7185 12.6039 12.7195C12.6139 12.7195 12.6119 12.7195 12.6059 12.7195L12.6089 12.7205C12.6189 12.7225 12.6279 12.7245 12.6379 12.7265C12.7939 13.1055 12.9489 13.5015 13.0939 13.8865C13.1149 13.9425 13.1349 13.9985 13.1559 14.0535C13.0359 14.0985 12.9189 14.1505 12.8029 14.2125ZM14.1369 11.8565C13.9039 12.4685 13.5669 12.9375 13.1749 13.2765C13.1219 13.1415 13.0679 13.0075 13.0139 12.8735C13.0589 12.8255 13.0619 12.7545 13.0299 12.6945C12.7389 12.1525 11.9479 12.5185 11.8429 13.0125C11.8289 13.0805 11.8279 13.1505 11.8409 13.2185C11.8389 13.2195 11.8369 13.2215 11.8349 13.2235C11.8389 13.2295 11.8419 13.2355 11.8449 13.2425C11.8619 13.3155 11.8949 13.3855 11.9419 13.4445C11.9509 13.4555 11.9609 13.4645 11.9709 13.4735C12.0249 13.5745 12.0799 13.6745 12.1369 13.7705C12.1499 13.7935 12.1629 13.8165 12.1759 13.8385C10.3969 14.3975 8.28188 13.0765 8.54988 10.5215C9.88188 7.03548 14.5259 8.14449 14.1369 11.8565ZM12.7539 7.19749C12.7419 7.57349 12.6859 7.95949 12.7199 8.33649C12.5009 8.23149 12.2719 8.1515 12.0359 8.0985C12.0429 8.0705 12.0389 8.04249 12.0259 8.01849C12.1059 7.54949 12.2019 7.05349 12.2999 6.57849C12.3189 6.48549 12.3399 6.39349 12.3599 6.30049C12.5009 6.32449 12.6439 6.33849 12.7869 6.34349C12.7759 6.62949 12.7639 6.91349 12.7539 7.19749Z" fill="#CBE3FF"/>
<path d="M12.4203 12.7578C12.4143 12.7598 12.4083 12.7618 12.4033 12.7628H12.4023C12.4163 12.7618 12.4203 12.7578 12.4203 12.7578Z" fill="#CBE3FF"/>
</svg>
