<svg width="29" height="32" viewBox="0 0 29 32" fill="none" xmlns="http://www.w3.org/2000/svg">
<path d="M20.8388 16.812C20.8388 20.09 18.1817 22.747 14.9037 22.747C11.6257 22.747 8.96875 20.09 8.96875 16.812C8.96875 13.534 11.6257 10.877 14.9037 10.877C18.1817 10.877 20.8388 13.534 20.8388 16.812Z" fill="#CBE3FF"/>
<path d="M4.37028 22.9234C4.37028 23.9264 3.55728 24.7394 2.55428 24.7394C1.55128 24.7394 0.738281 23.9264 0.738281 22.9234C0.738281 21.9204 1.55128 21.1074 2.55428 21.1074C3.55728 21.1074 4.37028 21.9204 4.37028 22.9234Z" fill="#CBE3FF"/>
<path d="M25.2062 16.7711C25.2062 17.7741 24.3932 18.5871 23.3902 18.5871C22.3872 18.5871 21.5742 17.7741 21.5742 16.7711C21.5742 15.7681 22.3872 14.9551 23.3902 14.9551C24.3932 14.9551 25.2062 15.7681 25.2062 16.7711Z" fill="#CBE3FF"/>
<path d="M15.0563 31.2607C10.1943 31.2607 6.23828 24.5407 6.23828 16.2817C6.23828 8.02273 10.1943 1.30273 15.0563 1.30273C19.9183 1.30273 23.8743 8.02273 23.8743 16.2817C23.8743 24.5417 19.9193 31.2607 15.0563 31.2607ZM15.0563 2.08573C10.6263 2.08573 7.02128 8.45373 7.02128 16.2817C7.02128 24.1097 10.6253 30.4777 15.0563 30.4777C19.4873 30.4777 23.0913 24.1097 23.0913 16.2817C23.0913 8.45373 19.4873 2.08573 15.0563 2.08573Z" fill="#CBE3FF"/>
<path d="M9.10723 26.9903H9.10423C5.77623 26.9893 3.28423 25.8463 2.08523 23.7703C-0.345773 19.5593 3.49623 12.7743 10.6482 8.64426C14.0802 6.66326 17.7592 5.57227 21.0082 5.57227H21.0112C24.3392 5.57327 26.8312 6.71627 28.0302 8.79127C29.2282 10.8673 28.9722 13.5973 27.3092 16.4793C25.6852 19.2943 22.9002 21.9353 19.4672 23.9173C16.0352 25.8993 12.3562 26.9903 9.10723 26.9903ZM21.0092 6.35527C17.8952 6.35527 14.3562 7.40927 11.0412 9.32327C4.26223 13.2373 0.549227 19.5423 2.76423 23.3793C3.81623 25.2023 6.06823 26.2063 9.10423 26.2073H9.10723C12.2212 26.2073 15.7602 25.1533 19.0752 23.2393C22.3912 21.3253 25.0742 18.7853 26.6312 16.0883C28.1492 13.4583 28.4052 11.0063 27.3522 9.18327C26.2992 7.36027 24.0482 6.35627 21.0122 6.35527H21.0092Z" fill="#CBE3FF"/>
<path d="M21.2408 27.7787C20.7098 27.7787 20.1558 27.7417 19.5808 27.6677C16.3588 27.2497 12.8488 25.6937 9.69978 23.2867C6.55078 20.8787 4.12878 17.9007 2.88078 14.9007C1.60278 11.8287 1.69978 9.08769 3.15578 7.18369C4.61178 5.27969 7.23078 4.46669 10.5308 4.89469C13.7528 5.31269 17.2628 6.86869 20.4118 9.27569C26.9738 14.2917 29.9088 21.5157 26.9558 25.3787C25.7528 26.9507 23.7578 27.7787 21.2408 27.7787ZM8.86878 5.56569C6.60278 5.56569 4.82478 6.28669 3.77678 7.65869C2.49878 9.33069 2.43678 11.7957 3.60278 14.5987C4.79878 17.4737 7.13278 20.3377 10.1748 22.6637C13.2168 24.9887 16.5928 26.4897 19.6808 26.8907C22.6918 27.2817 25.0538 26.5747 26.3318 24.9027C29.0228 21.3827 26.1528 14.6517 19.9338 9.89769C16.8918 7.57269 13.5158 6.07169 10.4278 5.67069C9.88678 5.60069 9.36678 5.56569 8.86878 5.56569Z" fill="#CBE3FF"/>
<path d="M18.882 2.60702C18.882 3.61002 18.069 4.42302 17.066 4.42302C16.063 4.42302 15.25 3.61002 15.25 2.60702C15.25 1.60402 16.063 0.791016 17.066 0.791016C18.069 0.791016 18.882 1.60402 18.882 2.60702Z" fill="#CBE3FF"/>
</svg>
