<svg width="11" height="15" viewBox="0 0 11 15" fill="none" xmlns="http://www.w3.org/2000/svg">
<path d="M10.2896 3.70769C9.88163 1.59069 7.84363 0.0546875 5.44163 0.0546875C3.04263 0.0546875 1.00263 1.59069 0.595627 3.70469C0.542627 3.94769 0.516627 4.19769 0.519627 4.43069L0.515625 4.46969C0.519625 4.57569 0.525626 4.68269 0.534626 4.78869C0.553626 5.02669 0.594627 5.26369 0.657627 5.49369C0.925627 6.55669 1.52663 7.55069 1.96563 8.27469C2.08163 8.46869 2.18662 8.64268 2.27262 8.79568C2.87962 9.88068 3.02063 11.0487 3.04163 11.2547V11.2657C3.04163 11.2887 3.04363 11.3227 3.06663 11.3587C2.96963 11.4627 2.91763 11.5757 2.91763 11.6947C2.91763 11.8267 2.97563 11.9497 3.09463 12.0607C2.97863 12.1717 2.91763 12.2917 2.91763 12.4227C2.91763 12.5777 3.00363 12.7187 3.16563 12.8457C3.00463 12.9717 2.91763 13.1137 2.91763 13.2677C2.91763 13.4427 3.01963 13.6007 3.22563 13.7397C3.28663 13.7817 3.35663 13.8187 3.46163 13.8647C3.82563 13.9617 4.59063 14.0227 5.45763 14.0227C6.30563 14.0227 7.06463 13.9637 7.46163 13.8597C7.55163 13.8187 7.62663 13.7767 7.68863 13.7337C7.93863 13.5637 7.99063 13.3867 7.99063 13.2667C7.99063 13.1587 7.94463 13.0007 7.74663 12.8447C7.94563 12.6887 7.99063 12.5317 7.99063 12.4227C7.99063 12.3267 7.95463 12.1947 7.81363 12.0577C7.95463 11.9217 7.99063 11.7897 7.99063 11.6947C7.99063 11.6017 7.95763 11.4767 7.83063 11.3457L7.83663 11.2787C7.83863 11.2657 7.95363 9.96569 8.60863 8.79469C8.69363 8.64169 8.79963 8.46669 8.91663 8.27569C9.35363 7.55069 9.95563 6.55569 10.2226 5.49469C10.2846 5.26469 10.3276 5.02669 10.3476 4.78769C10.3556 4.68169 10.3636 4.57469 10.3636 4.48769V4.44869C10.3676 4.19669 10.3406 3.94469 10.2896 3.70769ZM3.31163 11.5567C3.53763 11.6677 4.09363 11.7767 5.45863 11.7767C6.81263 11.7767 7.36963 11.6707 7.59863 11.5587C7.64863 11.6067 7.67562 11.6527 7.67562 11.6947C7.67562 11.7547 7.61863 11.8287 7.51163 11.8997C7.45963 11.9347 7.39763 11.9687 7.35663 11.9907C7.01563 12.0777 6.26763 12.1337 5.45763 12.1337C4.62763 12.1337 3.87663 12.0767 3.56863 11.9957C3.50463 11.9667 3.44863 11.9367 3.40063 11.9047C3.29363 11.8317 3.23263 11.7567 3.23263 11.6957C3.23363 11.6527 3.26063 11.6057 3.31163 11.5567ZM3.31163 12.2857C3.53763 12.3957 4.09363 12.5047 5.45863 12.5047C6.81263 12.5047 7.36963 12.3967 7.59863 12.2867C7.64863 12.3357 7.67562 12.3807 7.67562 12.4227C7.67562 12.4827 7.61863 12.5557 7.51163 12.6287C7.45963 12.6637 7.39763 12.6967 7.35663 12.7187C7.01563 12.8057 6.26763 12.8627 5.45763 12.8627C4.62763 12.8627 3.87663 12.8047 3.56863 12.7247C3.50463 12.6957 3.44863 12.6657 3.40063 12.6337C3.29363 12.5587 3.23263 12.4837 3.23263 12.4237C3.23363 12.3817 3.26063 12.3337 3.31163 12.2857ZM5.44163 11.3777C5.09063 11.3777 4.77963 11.3667 4.50463 11.3517C4.41763 10.5787 4.05263 7.43469 3.67063 5.73269C3.92063 5.43969 4.11563 5.03269 4.22863 4.76569L4.87463 5.90069L5.61363 4.88569L6.35463 5.94069L6.76363 5.03069C6.86563 5.22569 7.02963 5.48369 7.24363 5.65969C6.89863 7.39869 6.40563 10.5957 6.28963 11.3567C6.03663 11.3687 5.75363 11.3777 5.44163 11.3777ZM7.51263 13.4727C7.46063 13.5077 7.39863 13.5417 7.35763 13.5637C7.01663 13.6507 6.26863 13.7067 5.45863 13.7067C4.62863 13.7067 3.87763 13.6487 3.56963 13.5687C3.50563 13.5387 3.44963 13.5087 3.40163 13.4767C3.29463 13.4037 3.23363 13.3287 3.23363 13.2667C3.23363 13.2257 3.26063 13.1787 3.31163 13.1287C3.53763 13.2407 4.09363 13.3497 5.45863 13.3497C6.81263 13.3497 7.36963 13.2417 7.59863 13.1317C7.64863 13.1797 7.67562 13.2257 7.67562 13.2667C7.67662 13.3277 7.61963 13.4007 7.51263 13.4727ZM10.0346 4.76069C10.0146 4.98069 9.97662 5.20069 9.91862 5.41469C9.66262 6.43269 9.07463 7.40369 8.64663 8.11069C8.52763 8.30669 8.42063 8.48369 8.33363 8.63969C7.76963 9.64869 7.58763 10.7237 7.53963 11.1077H7.52163V11.1997C7.40063 11.2487 7.06163 11.3047 6.55963 11.3407C6.68563 10.5167 7.15063 7.50169 7.48263 5.80569C7.53363 5.82669 7.58463 5.84269 7.63763 5.85069C7.92863 5.89969 8.21263 5.75869 8.48363 5.43469C8.91863 4.91169 8.85663 4.57569 8.78263 4.42369C8.68363 4.22369 8.45963 4.09869 8.20163 4.11469C7.88963 4.12569 7.61463 4.31569 7.50063 4.60169C7.44963 4.72669 7.38163 4.99369 7.30563 5.35669C7.09663 5.13569 6.94163 4.81869 6.88263 4.66669L6.76763 4.36969L6.30163 5.40769L5.61363 4.43069L4.90063 5.41369L4.17562 4.13869L4.07963 4.41469C4.00363 4.62969 3.81863 5.06969 3.58863 5.40269C3.50963 5.09069 3.42863 4.85669 3.35063 4.72969C3.15763 4.41769 2.94563 4.40269 2.83563 4.42069C2.62163 4.45769 2.43863 4.67569 2.37163 4.97869C2.29963 5.29369 2.35463 5.72469 2.72263 5.98269C2.87863 6.09269 3.05163 6.12069 3.22263 6.06569C3.29963 6.04069 3.37463 5.99969 3.44663 5.94569C3.74863 7.37669 4.06263 9.80469 4.23363 11.3347C3.77463 11.2977 3.46263 11.2467 3.35263 11.1997C3.32163 10.9257 3.16363 9.74369 2.54663 8.64169C2.45963 8.48469 2.35163 8.30769 2.23263 8.11269C1.80563 7.40569 1.21863 6.43369 0.960629 5.41469C0.902629 5.20169 0.865626 4.98169 0.847626 4.76169C0.838626 4.66469 0.831625 4.56869 0.827625 4.44869H0.831627C0.830627 4.21969 0.853627 3.99169 0.901627 3.76769C1.28163 1.80069 3.18963 0.371689 5.43963 0.371689C7.69063 0.371689 9.59863 1.80169 9.97963 3.77169C10.0266 3.99169 10.0496 4.21869 10.0486 4.46769C10.0486 4.56469 10.0436 4.66269 10.0346 4.76069ZM7.53662 5.53869C7.62162 5.13069 7.69563 4.82969 7.74663 4.69969C7.83763 4.47069 8.04863 4.38369 8.21163 4.37869C8.36663 4.37169 8.49362 4.43469 8.54362 4.53769C8.62462 4.70169 8.52663 4.96669 8.28063 5.26369C8.07463 5.51169 7.87363 5.62169 7.68163 5.58869C7.63263 5.58069 7.58462 5.56469 7.53662 5.53869ZM3.38363 5.65269C3.30563 5.73069 3.22563 5.78569 3.14363 5.81269C3.05063 5.84169 2.96663 5.82669 2.87763 5.76469C2.61663 5.58069 2.58063 5.26769 2.63263 5.03569C2.67463 4.84769 2.77963 4.69869 2.88363 4.68169C2.88963 4.68069 2.89663 4.67969 2.90263 4.67969C2.99663 4.67969 3.08363 4.79769 3.12863 4.86969C3.20963 4.99969 3.29563 5.27669 3.38363 5.65269Z" fill="white"/>
</svg>
