<svg width="20" height="22" viewBox="0 0 20 22" fill="none" xmlns="http://www.w3.org/2000/svg">
<path d="M17.9259 12.8606C18.2099 12.4326 18.4479 11.9726 18.6299 11.4786C19.3219 9.6016 19.0139 7.4326 18.1939 5.6466C17.8559 4.9106 17.4099 4.24859 16.8979 3.63359C16.9019 3.63159 16.9049 3.62859 16.9089 3.62659C16.4259 3.08959 15.9539 2.54459 15.3719 2.10959C14.6699 1.58459 13.8879 1.16259 13.0629 0.865589C13.0609 0.871589 13.0589 0.877587 13.0579 0.884587C12.3109 0.598587 11.5399 0.388599 10.7349 0.306599C8.77991 0.105599 6.62791 0.512595 5.07391 1.7716C4.66491 2.1026 4.30491 2.47659 3.99191 2.88359C3.39191 3.56759 2.92391 4.37359 2.64991 5.22359C2.39791 6.00759 2.32091 6.8456 2.32191 7.6666C2.32291 8.5426 2.46691 9.36659 2.76191 10.1916C3.03691 10.9616 3.47391 11.6196 3.35091 12.4716C3.27791 12.9806 3.02291 13.4076 2.71391 13.8106C2.42491 14.1886 1.98291 14.5386 1.90891 15.0356C1.90091 15.0916 1.89791 15.1476 1.89991 15.2026C1.72491 15.3676 1.50891 15.4936 1.42991 15.7356C1.40391 15.8166 1.39291 15.9016 1.39391 15.9876C1.38391 15.9926 1.37491 15.9956 1.36591 16.0026C1.18291 16.1196 0.996909 16.2636 0.916909 16.4736C0.895909 16.5296 0.883909 16.5866 0.879909 16.6436C0.469909 16.8396 0.32091 17.3706 0.53491 17.7666C0.62491 17.9326 0.741909 18.0756 0.872909 18.2066C0.826909 18.4186 0.670908 18.5986 0.578908 18.7906C0.490908 18.9746 0.451909 19.1836 0.500909 19.3836C0.593909 19.7656 0.931909 20.0276 1.24691 20.2286C1.58291 20.4426 1.91891 20.6496 2.24991 20.8736C2.62691 21.1286 3.08691 21.4446 3.55491 21.4856C3.99491 21.5246 4.42291 21.1646 4.63591 20.8096C4.64691 20.7916 4.65391 20.7736 4.65891 20.7556C4.89191 20.8306 5.13191 20.8776 5.37691 20.8196C5.66991 20.7496 5.87391 20.5376 5.88991 20.2316C5.89091 20.2076 5.88791 20.1856 5.88291 20.1656C5.94991 20.1396 6.01391 20.1036 6.06891 20.0516C6.25691 19.8776 6.30991 19.6116 6.35991 19.3716C6.36391 19.3526 6.36491 19.3356 6.36391 19.3196C6.66991 19.2156 6.92491 19.0056 6.95691 18.6606C6.95691 18.6556 6.95691 18.6526 6.95691 18.6476C7.14091 18.6096 7.32091 18.5396 7.49191 18.4236C7.99191 18.0876 8.17591 17.4566 8.55791 17.0146C8.85291 16.6736 9.20391 16.2476 9.70091 16.2846C9.72691 16.2866 9.74991 16.2836 9.77191 16.2776C9.84291 16.2816 9.91291 16.2856 9.98291 16.2906C10.4569 16.3246 10.9289 16.3756 11.4039 16.3826C12.2799 16.3966 13.1069 16.2666 13.9359 15.9856C14.7129 15.7226 15.4819 15.3796 16.1429 14.8886C16.8599 14.3516 17.4709 13.6486 17.9259 12.8606ZM2.02091 15.6526C2.12791 15.8736 2.28991 16.0746 2.45491 16.2386C2.80191 16.5836 3.20691 16.8566 3.59691 17.1486C4.09691 17.5236 4.59291 17.9086 5.14291 18.2096C5.56091 18.4386 6.03991 18.6396 6.51391 18.6686C6.45591 18.8556 6.21191 18.9246 6.03391 18.9516C5.76791 18.9916 5.49491 18.9246 5.24491 18.8356C4.65191 18.6226 4.09291 18.2606 3.57191 17.9116C3.06891 17.5756 2.55691 17.2006 2.16691 16.7316C2.01591 16.5496 1.87691 16.3416 1.83591 16.1056C1.81591 15.9906 1.80991 15.8716 1.88791 15.7766C1.92591 15.7306 1.97291 15.6916 2.02091 15.6526ZM7.86491 10.3936C7.87891 10.6556 7.94091 10.9116 8.09991 11.1156C8.42391 11.5296 9.00291 11.4926 9.45691 11.3566C9.54091 11.3316 9.62291 11.3016 9.70391 11.2696C9.62291 11.6946 9.63291 12.1336 9.86591 12.5116C9.92791 12.6116 9.99691 12.6996 10.0739 12.7766C10.0289 12.8186 9.98291 12.8616 9.93791 12.9036C8.85191 13.9266 7.80691 14.9846 6.81991 16.1046C6.57791 16.3786 6.33691 16.6546 6.10391 16.9356C5.90591 17.1736 5.72591 17.4326 5.49991 17.6456C5.42291 17.7176 5.41591 17.8116 5.44691 17.8896C4.99891 17.6546 4.58591 17.3546 4.18191 17.0526C3.78691 16.7566 3.37391 16.4756 2.99691 16.1566C2.99991 16.1546 3.00291 16.1526 3.00591 16.1506C3.06791 16.1126 3.09791 16.0556 3.10291 15.9956C3.50391 15.3736 3.93891 14.7736 4.32891 14.1446C4.73691 13.4876 5.08891 12.7976 5.41191 12.0956C5.61191 11.6606 5.80191 11.2196 5.98491 10.7766C6.03991 10.7976 6.09591 10.8166 6.15491 10.8316C6.75791 10.9836 7.36191 10.7346 7.86491 10.3936ZM8.45791 9.22959C8.60791 8.65559 8.77491 8.06159 9.08491 7.55059C9.21891 7.33059 9.38891 7.0766 9.61791 6.9466C9.61791 6.9486 9.61791 6.94759 9.61791 6.94959C9.63391 7.03259 9.64791 7.1106 9.64591 7.1966C9.63891 7.4846 9.54091 7.74759 9.41191 8.00159C9.16191 8.49359 8.81491 8.95159 8.42591 9.35059C8.43691 9.31059 8.44791 9.26959 8.45791 9.22959ZM10.9909 9.57859C11.1699 9.36459 11.3709 9.1766 11.5869 9.0006C11.6449 8.9536 11.7019 8.90458 11.7629 8.86058C11.7769 8.85058 11.7929 8.84159 11.8089 8.83359C11.7629 8.91759 11.7029 8.9956 11.6449 9.0696C11.5399 9.2036 11.4309 9.3366 11.3199 9.4656C11.0809 9.7446 10.8189 10.0076 10.5359 10.2426C10.6669 10.0086 10.8189 9.78559 10.9909 9.57859ZM5.71691 19.7676C5.50191 19.8506 5.17391 19.7256 4.97091 19.6566C4.37091 19.4556 3.83691 19.1036 3.31791 18.7496C2.78491 18.3856 2.24091 18.0146 1.81091 17.5286C1.62691 17.3206 1.37491 17.0426 1.31291 16.7636C1.27991 16.6166 1.37291 16.5136 1.48491 16.4316C1.48791 16.4406 1.49091 16.4496 1.49491 16.4576C1.68191 16.9266 2.08191 17.2916 2.45791 17.6126C2.96691 18.0466 3.52891 18.4116 4.10691 18.7456C4.60991 19.0356 5.13991 19.3316 5.72891 19.3866C5.78991 19.3916 5.85291 19.3936 5.91791 19.3916C5.88991 19.5316 5.84891 19.7166 5.71691 19.7676ZM3.86791 20.9736C3.65791 21.0916 3.48291 21.0426 3.26891 20.9566C2.78791 20.7626 2.39591 20.4216 1.95891 20.1526C1.63091 19.9506 1.20691 19.7716 0.987909 19.4396C0.867909 19.2566 0.902909 19.0786 1.00191 18.8926C1.07491 18.7566 1.15191 18.6336 1.21291 18.5006C1.34491 18.6056 1.47891 18.7066 1.60691 18.8106C2.43091 19.4766 3.27191 20.1796 4.25491 20.5986C4.15591 20.7486 4.02591 20.8836 3.86791 20.9736ZM4.14291 20.0726C3.59791 19.8016 3.09691 19.4436 2.61691 19.0726C2.18791 18.7416 1.75591 18.4046 1.34391 18.0536C1.16291 17.8986 0.953908 17.7106 0.873908 17.4796C0.824908 17.3376 0.879909 17.1886 0.983909 17.0906C0.987909 17.0976 0.990909 17.1056 0.994909 17.1126C1.29291 17.6746 1.75891 18.1286 2.25591 18.5166C2.73491 18.8916 3.24691 19.2406 3.76891 19.5526C4.27791 19.8566 4.84191 20.1396 5.43991 20.2046C5.44591 20.2056 5.45291 20.2056 5.45891 20.2056C5.40391 20.7076 4.35691 20.1786 4.14291 20.0726ZM15.4099 14.8486C15.2969 14.9176 15.1829 14.9836 15.0659 15.0436C14.3449 15.4166 13.5409 15.7246 12.7379 15.8596C11.9259 15.9966 11.1109 15.9466 10.2959 15.8786C9.07891 15.7766 8.33391 16.4546 7.74791 17.4416C7.50591 17.8496 7.22191 18.2086 6.71691 18.2476C6.37091 18.2746 6.02591 18.1606 5.71091 18.0176C5.73091 18.0086 5.75091 17.9966 5.77091 17.9786C5.97191 17.7896 6.14191 17.5716 6.31391 17.3566C6.51691 17.1036 6.72891 16.8596 6.94091 16.6146C7.39991 16.0866 7.86991 15.5666 8.35291 15.0606C9.01791 14.3636 9.71091 13.6896 10.4209 13.0356C11.1819 13.4556 12.2899 13.2606 13.0519 12.9936C13.6059 12.7996 14.1279 12.5256 14.6139 12.1966C15.0069 11.9306 15.5359 11.5406 15.4849 11.0016C15.4199 10.3266 14.6439 10.2496 14.1129 10.3076C13.5739 10.3666 13.0539 10.5656 12.5799 10.8236C11.7719 11.2626 11.0689 11.8576 10.3949 12.4786C10.0129 12.1276 10.0559 11.5886 10.1789 11.1276C10.1889 11.0896 10.2009 11.0526 10.2119 11.0156C10.8749 10.6166 11.4249 10.0136 11.9069 9.42759C12.1039 9.18959 12.5749 8.56559 12.0739 8.36359C11.8589 8.27659 11.6309 8.42159 11.4649 8.54659C11.2569 8.70359 11.0579 8.87659 10.8779 9.06559C10.4259 9.53759 10.0659 10.1026 9.85391 10.7226C9.59891 10.8646 9.32391 10.9716 9.03491 11.0086C8.85191 11.0316 8.63191 11.0346 8.48691 10.9006C8.36391 10.7866 8.32291 10.6096 8.30391 10.4496C8.28891 10.3196 8.28991 10.1886 8.29991 10.0576C8.86291 9.57859 9.35691 8.9846 9.71491 8.3406C9.87991 8.0436 10.0219 7.73459 10.0639 7.39359C10.1079 7.03459 10.0189 6.32959 9.47991 6.53659C9.20991 6.64059 8.99191 6.91959 8.83391 7.14959C8.64191 7.42859 8.49391 7.73958 8.37291 8.05458C8.16591 8.59459 7.99791 9.17459 7.90791 9.74659C7.90291 9.77659 7.89991 9.80759 7.89491 9.83759C7.50791 10.1536 7.04791 10.4326 6.55591 10.4456C6.40591 10.4496 6.27091 10.4236 6.14991 10.3746C6.21091 10.2226 6.27191 10.0696 6.33091 9.9166C6.60591 9.2036 6.86191 8.47959 7.05691 7.74059C7.21691 7.13859 7.42991 6.39559 7.25991 5.77259C7.19491 5.53459 7.04891 5.3246 6.80091 5.2566C6.38491 5.1426 6.00691 5.42159 5.75991 5.72959C5.15991 6.47459 4.88791 7.5676 4.86691 8.5066C4.84991 9.2256 5.04091 10.0996 5.61991 10.5596C5.11391 11.8156 4.53491 13.0496 3.79891 14.1786C3.43391 14.7386 3.04591 15.2836 2.68691 15.8486C2.68491 15.8516 2.68391 15.8546 2.68191 15.8576C2.46291 15.6246 2.27091 15.3316 2.34391 15.0306C2.39391 14.8266 2.55191 14.6586 2.68591 14.5056C3.28891 13.8196 3.71491 13.0666 3.81891 12.1356C3.86391 11.7336 3.74691 11.4326 3.58991 11.0726C3.26191 10.3226 2.95291 9.5666 2.82091 8.7546C2.69091 7.9506 2.72291 7.09059 2.84391 6.28759C2.86391 6.15659 2.88891 6.02759 2.91791 5.89859C3.06291 4.97259 3.54891 4.07459 4.09891 3.35259C5.33091 1.73759 7.28691 0.874593 9.28491 0.747593C10.8649 0.647593 12.4819 0.96759 13.8969 1.68459C15.9799 2.73959 17.5069 4.7096 18.1719 6.9316C18.1939 7.0066 18.2159 7.08259 18.2369 7.15859C18.7599 9.09159 18.5719 11.2206 17.4399 12.9076C16.9339 13.6646 16.2409 14.4136 15.4099 14.8486ZM10.7719 12.7146C10.8009 12.6886 10.8299 12.6616 10.8589 12.6346C11.5899 11.9746 12.3799 11.3246 13.3039 10.9576C13.7259 10.7896 14.2379 10.6526 14.6939 10.7406C14.9219 10.7846 15.1239 10.9366 15.0349 11.1906C14.9619 11.3986 14.7589 11.5586 14.5909 11.6876C13.8009 12.2936 12.7999 12.7566 11.8009 12.8426C11.4659 12.8716 11.0929 12.8456 10.7719 12.7146ZM5.78891 10.1296C5.49891 9.8286 5.34591 9.3646 5.30591 8.9506C5.22391 8.1006 5.43091 7.18459 5.82191 6.42859C5.96591 6.14859 6.21291 5.70759 6.56591 5.66759C6.59891 5.66359 6.67691 5.6706 6.67691 5.6706C6.70491 5.6776 6.71191 5.6836 6.73091 5.6946C6.73791 5.6986 6.75191 5.71159 6.75991 5.71859C6.76891 5.72859 6.77791 5.73759 6.78491 5.74759C6.79091 5.75659 6.79491 5.76159 6.79491 5.76159L6.79591 5.7636C6.80691 5.7846 6.81591 5.8066 6.82591 5.8276C6.85191 5.8896 6.86891 5.99159 6.87691 6.09859C6.88491 6.19959 6.87891 6.33759 6.86891 6.45659C6.84291 6.76659 6.78191 7.07359 6.70891 7.37459C6.54391 8.05059 6.32091 8.71159 6.07991 9.36359C5.98491 9.61959 5.88791 9.8746 5.78891 10.1296Z" fill="#CBE3FF"/>
</svg>
