<svg width="9" height="11" viewBox="0 0 9 11" fill="none" xmlns="http://www.w3.org/2000/svg">
<path d="M0.339844 0.982422V10.9074H8.98284V0.982422H0.339844ZM0.952843 1.95742C0.802843 1.95742 0.68084 1.83542 0.68084 1.68642C0.68084 1.53642 0.801843 1.41442 0.952843 1.41442C1.10384 1.41442 1.22484 1.53542 1.22484 1.68642C1.22484 1.83642 1.10384 1.95742 0.952843 1.95742ZM2.18784 1.95742C2.03884 1.95742 1.91684 1.83542 1.91684 1.68642C1.91684 1.53642 2.03884 1.41442 2.18784 1.41442C2.33984 1.41442 2.45984 1.53542 2.45984 1.68642C2.45984 1.83642 2.33984 1.95742 2.18784 1.95742ZM3.42484 1.95742C3.27484 1.95742 3.15384 1.83542 3.15384 1.68642C3.15384 1.53642 3.27484 1.41442 3.42484 1.41442C3.57484 1.41442 3.69684 1.53542 3.69684 1.68642C3.69684 1.83642 3.57484 1.95742 3.42484 1.95742ZM4.66184 1.95742C4.51084 1.95742 4.38984 1.83542 4.38984 1.68642C4.38984 1.53642 4.51084 1.41442 4.66184 1.41442C4.81084 1.41442 4.93284 1.53542 4.93284 1.68642C4.93284 1.83642 4.81084 1.95742 4.66184 1.95742ZM5.89684 1.95742C5.74784 1.95742 5.62584 1.83542 5.62584 1.68642C5.62584 1.53642 5.74684 1.41442 5.89684 1.41442C6.04884 1.41442 6.16984 1.53542 6.16984 1.68642C6.16984 1.83642 6.04784 1.95742 5.89684 1.95742ZM7.13284 1.95742C6.98284 1.95742 6.86184 1.83542 6.86184 1.68642C6.86184 1.53642 6.98184 1.41442 7.13284 1.41442C7.28484 1.41442 7.40584 1.53542 7.40584 1.68642C7.40684 1.83642 7.28484 1.95742 7.13284 1.95742ZM8.37084 1.95742C8.22084 1.95742 8.09884 1.83542 8.09884 1.68642C8.09884 1.53642 8.22084 1.41442 8.37084 1.41442C8.52084 1.41442 8.64184 1.53542 8.64184 1.68642C8.64184 1.83642 8.52084 1.95742 8.37084 1.95742Z" fill="white"/>
<path d="M1.08866 1.61958C1.08866 1.68558 1.03466 1.73958 0.967659 1.73958C0.900659 1.73958 0.847656 1.68558 0.847656 1.61958V0.512577C0.847656 0.446577 0.900659 0.392578 0.967659 0.392578C1.03466 0.392578 1.08866 0.445577 1.08866 0.512577V1.61958Z" fill="white"/>
<path d="M4.78297 1.61958C4.78297 1.68558 4.72897 1.73958 4.66297 1.73958C4.59597 1.73958 4.54297 1.68558 4.54297 1.61958V0.512577C4.54297 0.446577 4.59597 0.392578 4.66297 0.392578C4.72897 0.392578 4.78297 0.445577 4.78297 0.512577V1.61958Z" fill="white"/>
<path d="M7.26735 1.61958C7.26735 1.68558 7.21335 1.73958 7.14735 1.73958C7.08135 1.73958 7.02734 1.68558 7.02734 1.61958V0.512577C7.02734 0.446577 7.08135 0.392578 7.14735 0.392578C7.21335 0.392578 7.26735 0.445577 7.26735 0.512577V1.61958Z" fill="white"/>
<path d="M8.50462 1.61958C8.50462 1.68558 8.45163 1.73958 8.38563 1.73958C8.31863 1.73958 8.26562 1.68558 8.26562 1.61958V0.512577C8.26562 0.446577 8.31963 0.392578 8.38563 0.392578C8.45163 0.392578 8.50462 0.445577 8.50462 0.512577V1.61958Z" fill="white"/>
<path d="M6.03197 1.61958C6.03197 1.68558 5.97697 1.73958 5.91197 1.73958C5.84597 1.73958 5.79297 1.68558 5.79297 1.61958V0.512577C5.79297 0.446577 5.84597 0.392578 5.91197 0.392578C5.97797 0.392578 6.03197 0.445577 6.03197 0.512577V1.61958Z" fill="white"/>
<path d="M3.56032 1.61958C3.56032 1.68558 3.50632 1.73958 3.44032 1.73958C3.37332 1.73958 3.32031 1.68558 3.32031 1.61958V0.512577C3.32031 0.446577 3.37332 0.392578 3.44032 0.392578C3.50632 0.392578 3.56032 0.445577 3.56032 0.512577V1.61958Z" fill="white"/>
<path d="M2.32884 1.61958C2.32884 1.68558 2.27484 1.73958 2.20884 1.73958C2.14284 1.73958 2.08984 1.68558 2.08984 1.61958V0.512577C2.08984 0.446577 2.14284 0.392578 2.20884 0.392578C2.27484 0.392578 2.32884 0.445577 2.32884 0.512577V1.61958Z" fill="white"/>
</svg>
