<svg width="8" height="13" viewBox="0 0 8 13" fill="none" xmlns="http://www.w3.org/2000/svg">
<path d="M7.55513 11.5931L5.79613 8.24609H2.20912L0.404129 11.6311C0.404129 11.6311 -0.166874 12.5731 1.32613 12.5731C2.81913 12.5731 4.89512 12.6031 6.40712 12.5821C8.16412 12.5611 7.55513 11.5931 7.55513 11.5931Z" fill="#CBE3FF"/>
<path d="M7.86254 11.6412L5.22654 6.65622V1.61422C5.40854 1.57722 5.54655 1.41622 5.54655 1.22222C5.54655 1.00222 5.36654 0.824219 5.14754 0.824219H2.85154C2.63154 0.824219 2.45254 1.00222 2.45254 1.22222C2.45254 1.41322 2.58654 1.57322 2.76554 1.61222V6.65522L0.133537 11.6332C0.107537 11.6742 -0.119453 12.0612 0.0725474 12.4052C0.231547 12.6912 0.62655 12.8372 1.24755 12.8372H6.74654C7.37354 12.8372 7.77155 12.6912 7.92855 12.4022C8.12455 12.0472 7.86254 11.6412 7.86254 11.6412ZM2.63654 1.22222C2.63654 1.10522 2.73254 1.00922 2.85154 1.00922H5.14754C5.26554 1.00922 5.36254 1.10522 5.36254 1.22222C5.36254 1.34122 5.26654 1.43622 5.14754 1.43622H2.85154C2.73254 1.43622 2.63654 1.34122 2.63654 1.22222ZM7.76754 12.3142C7.64754 12.5362 7.29254 12.6542 6.74654 12.6542H1.24755C0.70655 12.6542 0.357543 12.5372 0.233543 12.3162C0.0915429 12.0592 0.283547 11.7432 0.294547 11.7252L2.93954 6.72222L2.94955 6.70322V1.63022H5.04055V6.70322L7.70354 11.7352C7.70654 11.7392 7.90954 12.0562 7.76754 12.3142Z" fill="white"/>
</svg>
