<svg width="20" height="16" viewBox="0 0 20 16" fill="none" xmlns="http://www.w3.org/2000/svg">
<path d="M3.5517 12.5513C4.0337 12.5513 4.42268 12.1433 4.42268 11.6393V5.98633H2.67969V11.6393C2.67969 12.1433 3.0717 12.5513 3.5517 12.5513Z" fill="#CBE3FF"/>
<path d="M5.14122 0.721188C5.14122 0.457188 4.92623 0.242188 4.66223 0.242188H2.42822C2.16322 0.242188 1.94922 0.457188 1.94922 0.721188C1.94922 0.900188 2.04822 1.05519 2.19522 1.13719V11.7402C2.19522 12.4772 2.80022 13.0752 3.54422 13.0752C4.28922 13.0752 4.89522 12.4772 4.89522 11.7402V1.13819C5.04022 1.05619 5.14122 0.900188 5.14122 0.721188ZM2.42822 0.545189H4.66223C4.75923 0.545189 4.83823 0.624187 4.83823 0.722187C4.83823 0.819187 4.75923 0.899189 4.66223 0.899189H2.42822C2.32922 0.899189 2.25223 0.820187 2.25223 0.722187C2.25323 0.624187 2.33022 0.545189 2.42822 0.545189ZM4.59222 11.7412C4.59222 12.3112 4.12122 12.7742 3.54422 12.7742C2.96722 12.7742 2.49722 12.3112 2.49722 11.7412V1.20119H4.59122V11.7412H4.59222Z" fill="white"/>
<path d="M7.7392 12.5513C8.2212 12.5513 8.61119 12.1433 8.61119 11.6393V5.98633H6.86719V11.6393C6.86819 12.1433 7.2572 12.5513 7.7392 12.5513Z" fill="#CBE3FF"/>
<path d="M9.32771 0.721188C9.32771 0.457188 9.11272 0.242188 8.84872 0.242188H6.61472C6.35072 0.242188 6.13672 0.457188 6.13672 0.721188C6.13672 0.900188 6.23572 1.05519 6.38072 1.13719V11.7402C6.38072 12.4772 6.98671 13.0752 7.73071 13.0752C8.47471 13.0752 9.08173 12.4772 9.08173 11.7402V1.13819C9.22673 1.05619 9.32771 0.900188 9.32771 0.721188ZM6.61472 0.545189H8.84872C8.94572 0.545189 9.02573 0.624187 9.02573 0.722187C9.02573 0.819187 8.94672 0.899189 8.84872 0.899189H6.61472C6.51872 0.899189 6.43872 0.820187 6.43872 0.722187C6.43872 0.624187 6.51772 0.545189 6.61472 0.545189ZM8.77872 11.7412C8.77872 12.3112 8.30872 12.7742 7.73172 12.7742C7.15572 12.7742 6.68571 12.3112 6.68571 11.7412V1.20119H8.77972V11.7412H8.77872Z" fill="white"/>
<path d="M11.9267 12.5513C12.4087 12.5513 12.7977 12.1433 12.7977 11.6393V5.98633H11.0547V11.6393C11.0547 12.1433 11.4447 12.5513 11.9267 12.5513Z" fill="#CBE3FF"/>
<path d="M13.5162 0.721188C13.5162 0.457188 13.3012 0.242188 13.0372 0.242188H10.8022C10.5392 0.242188 10.3242 0.457188 10.3242 0.721188C10.3242 0.900188 10.4252 1.05519 10.5692 1.13719V11.7402C10.5692 12.4772 11.1752 13.0752 11.9212 13.0752C12.6652 13.0752 13.2682 12.4772 13.2682 11.7402V1.13819C13.4172 1.05619 13.5162 0.900188 13.5162 0.721188ZM10.8022 0.545189H13.0372C13.1342 0.545189 13.2142 0.624187 13.2142 0.722187C13.2142 0.819187 13.1352 0.899189 13.0372 0.899189H10.8022C10.7052 0.899189 10.6272 0.820187 10.6272 0.722187C10.6272 0.624187 10.7052 0.545189 10.8022 0.545189ZM12.9682 11.7412C12.9682 12.3112 12.4982 12.7742 11.9212 12.7742C11.3442 12.7742 10.8732 12.3112 10.8732 11.7412V1.20119H12.9692V11.7412H12.9682Z" fill="white"/>
<path d="M16.1132 12.5513C16.5952 12.5513 16.9852 12.1433 16.9852 11.6393V5.98633H15.2422V11.6393C15.2422 12.1433 15.6312 12.5513 16.1132 12.5513Z" fill="#CBE3FF"/>
<path d="M17.7008 0.721188C17.7008 0.457188 17.4868 0.242188 17.2228 0.242188H14.9888C14.7238 0.242188 14.5078 0.457188 14.5078 0.721188C14.5078 0.900188 14.6098 1.05519 14.7558 1.13719V11.7402C14.7558 12.4772 15.3598 13.0752 16.1038 13.0752C16.8488 13.0752 17.4538 12.4772 17.4538 11.7402V1.13819C17.6008 1.05619 17.7008 0.900188 17.7008 0.721188ZM14.9898 0.545189H17.2238C17.3218 0.545189 17.3998 0.624187 17.3998 0.722187C17.3998 0.819187 17.3218 0.899189 17.2238 0.899189H14.9898C14.8918 0.899189 14.8118 0.820187 14.8118 0.722187C14.8118 0.624187 14.8918 0.545189 14.9898 0.545189ZM17.1528 11.7412C17.1528 12.3112 16.6838 12.7742 16.1048 12.7742C15.5278 12.7742 15.0578 12.3112 15.0578 11.7412V1.20119H17.1528V11.7412Z" fill="white"/>
<path d="M19.4747 13.6087H18.9587V4.86069H19.4637C19.5067 4.86069 19.5417 4.82669 19.5417 4.77969V4.13569C19.5417 4.09269 19.5077 4.05469 19.4637 4.05469H0.18866C0.14366 4.05469 0.108658 4.09169 0.108658 4.13569V4.77969C0.108658 4.82569 0.14366 4.86069 0.18866 4.86069H0.694656V13.6087H0.178665C0.133665 13.6087 0.0976562 13.6437 0.0976562 13.6877V14.9467C0.0976562 14.9897 0.133665 15.0277 0.178665 15.0277H19.4737C19.5167 15.0277 19.5537 14.9907 19.5537 14.9467V13.6877C19.5547 13.6437 19.5177 13.6087 19.4747 13.6087ZM18.2997 4.86069V13.6087H1.35466V4.86069H18.2997Z" fill="white"/>
</svg>
