<svg width="14" height="20" viewBox="0 0 14 20" fill="none" xmlns="http://www.w3.org/2000/svg">
<path d="M7.01247 19.1509C3.68647 19.1509 0.980469 16.4469 0.980469 13.1219C0.980469 10.3279 2.93748 7.87391 5.64548 7.24691V1.75491C5.64548 1.68691 5.70248 1.62891 5.77048 1.62891H8.25148C8.32148 1.62891 8.37848 1.68691 8.37848 1.75491V7.24691C11.0865 7.87391 13.0425 10.3279 13.0425 13.1219C13.0425 16.4469 10.3375 19.1509 7.01247 19.1509ZM5.89847 1.8819V7.3469C5.89847 7.4079 5.85548 7.45891 5.79848 7.46991C3.15148 8.03491 1.23347 10.4119 1.23347 13.1219C1.23347 16.3069 3.82447 18.8999 7.01147 18.8999C10.1975 18.8999 12.7895 16.3079 12.7895 13.1219C12.7895 10.4119 10.8685 8.03491 8.22447 7.46991C8.16447 7.45891 8.12447 7.4069 8.12447 7.3469V1.8819H5.89847Z" fill="white"/>
<path d="M2.57607 10.1797C2.00007 11.0317 1.66406 12.0567 1.66406 13.1627C1.66406 16.1177 4.05807 18.5117 7.01207 18.5117C9.96607 18.5117 12.3601 16.1167 12.3601 13.1627C12.3601 12.0577 12.0231 11.0317 11.4481 10.1797H2.57607Z" fill="#CBE3FF"/>
<g opacity="0.6">
<path d="M8.25987 1.83263H5.76788C5.50788 1.83263 5.29688 1.62163 5.29688 1.35963C5.29688 1.10163 5.50688 0.890625 5.76788 0.890625H8.25987C8.51987 0.890625 8.73088 1.10163 8.73088 1.35963C8.73088 1.62163 8.51887 1.83263 8.25987 1.83263ZM5.76788 1.14363C5.64688 1.14363 5.54988 1.24163 5.54988 1.36063C5.54988 1.48263 5.64688 1.58063 5.76788 1.58063H8.25987C8.38087 1.58063 8.47888 1.48363 8.47888 1.36063C8.47888 1.24163 8.37987 1.14363 8.25987 1.14363H5.76788Z" fill="white"/>
</g>
</svg>
