<svg width="20" height="20" viewBox="0 0 20 20" fill="none" xmlns="http://www.w3.org/2000/svg">
<path d="M10.1701 0.900391C4.95012 0.900391 0.703125 5.14739 0.703125 10.3664C0.703125 15.5874 4.95012 19.8344 10.1701 19.8344C15.3891 19.8344 19.6361 15.5874 19.6361 10.3664C19.6361 5.14639 15.3891 0.900391 10.1701 0.900391ZM10.1701 18.8414C5.49712 18.8414 1.69613 15.0404 1.69613 10.3674C1.69613 5.69639 5.49712 1.89339 10.1701 1.89339C14.8411 1.89339 18.6431 5.69639 18.6431 10.3674C18.6431 15.0404 14.8411 18.8414 10.1701 18.8414Z" fill="white"/>
<path d="M10.1716 3.12148C10.4386 3.12148 10.6586 2.90349 10.6586 2.63449C10.6586 2.36549 10.4386 2.14648 10.1716 2.14648C9.90159 2.14648 9.68359 2.36549 9.68359 2.63449C9.68359 2.90349 9.90259 3.12148 10.1716 3.12148Z" fill="white"/>
<path d="M10.1716 17.6367C9.90159 17.6367 9.68359 17.8557 9.68359 18.1237C9.68359 18.3937 9.90159 18.6137 10.1716 18.6137C10.4386 18.6137 10.6586 18.3937 10.6586 18.1237C10.6586 17.8557 10.4386 17.6367 10.1716 17.6367Z" fill="white"/>
<path d="M17.9138 9.89258C17.6438 9.89258 17.4258 10.1106 17.4258 10.3806C17.4258 10.6486 17.6438 10.8686 17.9138 10.8686C18.1818 10.8686 18.4008 10.6496 18.4008 10.3806C18.4018 10.1106 18.1828 9.89258 17.9138 9.89258Z" fill="white"/>
<path d="M2.4255 10.8686C2.69501 10.8686 2.9135 10.6501 2.9135 10.3806C2.9135 10.1111 2.69501 9.89258 2.4255 9.89258C2.15598 9.89258 1.9375 10.1111 1.9375 10.3806C1.9375 10.6501 2.15598 10.8686 2.4255 10.8686Z" fill="white"/>
<path d="M14.0041 3.93483C14.1241 4.00683 14.2821 3.96683 14.3521 3.84683C14.4261 3.72583 14.3851 3.56883 14.2651 3.49583C14.1451 3.42583 13.9881 3.46383 13.9161 3.58583C13.8421 3.70583 13.8821 3.86383 14.0041 3.93483Z" fill="white"/>
<path d="M6.33508 16.7916C6.21408 16.7196 6.05708 16.7596 5.98508 16.8816C5.91308 17.0006 5.95308 17.1566 6.07308 17.2296C6.19408 17.3026 6.35208 17.2626 6.42408 17.1416C6.49608 17.0206 6.45608 16.8626 6.33508 16.7916Z" fill="white"/>
<path d="M16.9478 14.11C16.8278 14.038 16.6708 14.078 16.5988 14.199C16.5268 14.32 16.5648 14.477 16.6878 14.549C16.8088 14.621 16.9648 14.582 17.0378 14.46C17.1088 14.339 17.0688 14.183 16.9478 14.11Z" fill="white"/>
<path d="M3.65071 6.17836C3.52871 6.10636 3.37271 6.14636 3.30171 6.26836C3.22971 6.38836 3.26871 6.54636 3.38971 6.61736C3.51171 6.69036 3.66671 6.64936 3.73971 6.53036C3.81071 6.40736 3.77171 6.25136 3.65071 6.17836Z" fill="white"/>
<path d="M16.8402 6.42511C16.7162 6.49411 16.6702 6.64811 16.7392 6.77111C16.8062 6.89611 16.9622 6.94111 17.0862 6.87311C17.2082 6.80511 17.2542 6.65011 17.1872 6.52811C17.1192 6.40511 16.9642 6.35811 16.8402 6.42511Z" fill="white"/>
<path d="M3.2539 13.854C3.1309 13.921 3.0849 14.076 3.1519 14.199C3.2199 14.323 3.3749 14.369 3.4989 14.301C3.6219 14.232 3.6689 14.0769 3.5989 13.9549C3.5319 13.8309 3.3779 13.786 3.2539 13.854Z" fill="white"/>
<path d="M13.7617 16.9316C13.6387 16.9986 13.5927 17.1556 13.6597 17.2786C13.7277 17.4026 13.8827 17.4486 14.0067 17.3816C14.1297 17.3136 14.1757 17.1586 14.1067 17.0346C14.0407 16.9106 13.8857 16.8636 13.7617 16.9316Z" fill="white"/>
<path d="M6.3319 3.34812C6.2079 3.41512 6.1629 3.57012 6.2309 3.69312C6.2979 3.81712 6.45291 3.86312 6.57791 3.79512C6.70191 3.72712 6.7479 3.57212 6.6789 3.44812C6.6109 3.32512 6.4559 3.28012 6.3319 3.34812Z" fill="white"/>
</svg>
