<svg width="5" height="10" viewBox="0 0 5 10" fill="none" xmlns="http://www.w3.org/2000/svg">
<g clip-path="url(#clip0_314_932)">
<mask id="mask0_314_932" style="mask-type:alpha" maskUnits="userSpaceOnUse" x="0" y="0" width="5" height="10">
<path d="M5 0H0.25V10H5V0Z" fill="#D9D9D9"/>
</mask>
<g mask="url(#mask0_314_932)">
<path d="M14.3525 11.4573L10.5859 9.9439C10.4216 9.87792 10.2213 9.8841 10.0621 9.95833C9.90549 10.0408 9.81046 10.1769 9.81046 10.3253V11.2119H5.0656C4.72925 10.647 4.09765 10.2181 3.33508 10.047V3.89235H4.43657C4.62144 3.89235 4.7883 3.81812 4.88844 3.6944C4.986 3.56863 4.99887 3.41812 4.92184 3.28203L3.16563 0.253177C3.07576 0.106785 2.8909 0.0119368 2.67265 0.0078125C2.46981 0.0119368 2.29006 0.102661 2.19763 0.24493L0.31305 3.27173C0.230888 3.40782 0.241153 3.56246 0.33872 3.69029C0.43372 3.81812 0.60832 3.89235 0.793185 3.89235H1.89724V10.047C0.744404 10.3027 -0.105469 11.1418 -0.105469 12.146C-0.105469 13.3501 1.11413 14.3294 2.61873 14.3294C4.02063 14.3294 5.1709 13.4655 5.30954 12.3666H9.81306V13.2511C9.81306 13.3996 9.9029 13.5336 10.0595 13.6161C10.1468 13.6552 10.247 13.68 10.3497 13.68C10.4241 13.68 10.5011 13.6655 10.5756 13.6408L14.3422 12.2264C14.5245 12.1583 14.6452 12.0078 14.6504 11.8367C14.6427 11.6738 14.5322 11.5274 14.3525 11.4573ZM2.14886 3.4841H0.793185C0.78805 3.4841 0.780347 3.47998 0.775212 3.47379C0.775212 3.46968 0.772644 3.46349 0.775212 3.4573L2.65979 0.430492C2.65979 0.430492 2.67263 0.420185 2.67776 0.420185C2.68803 0.420185 2.69317 0.424308 2.69573 0.430492L4.45454 3.4573C4.45454 3.46143 4.45454 3.4676 4.45198 3.47379C4.44941 3.47792 4.44427 3.4841 4.43914 3.4841H3.0809C2.93968 3.4841 2.82414 3.57483 2.82414 3.68616V9.97689C2.75225 9.97276 2.69063 9.96039 2.6213 9.96039C2.54941 9.96039 2.48008 9.97276 2.41333 9.981V3.68616C2.40819 3.57483 2.29265 3.4841 2.14886 3.4841ZM14.124 11.8552L10.3548 13.2655C10.3497 13.2676 10.3471 13.2676 10.3471 13.2676L10.3368 13.2655C10.3317 13.2635 10.324 13.2573 10.324 13.2532V12.1604C10.324 12.047 10.211 11.9542 10.0672 11.9542H5.30954C5.29671 11.8429 5.27873 11.7315 5.24792 11.6243H10.0672C10.211 11.6243 10.324 11.5315 10.324 11.4181V10.3274C10.324 10.3233 10.3291 10.3192 10.3368 10.315L10.3548 10.313L14.124 11.8264C14.124 11.8264 14.1368 11.8387 14.1368 11.8429C14.1368 11.847 14.124 11.8552 14.124 11.8552Z" fill="white"/>
</g>
<path d="M2.20791 0.24807C2.40418 -0.0622007 2.85675 -0.0622013 3.05302 0.248069L4.87308 3.12528C5.08367 3.4582 4.84446 3.89258 4.45052 3.89258H0.810416C0.416478 3.89258 0.177265 3.4582 0.387862 3.12528L2.20791 0.24807Z" fill="#CBE3FF"/>
</g>
<defs>
<clipPath id="clip0_314_932">
<rect width="5" height="10" fill="white"/>
</clipPath>
</defs>
</svg>
