<svg width="5" height="8" viewBox="0 0 5 8" fill="none" xmlns="http://www.w3.org/2000/svg">
<mask id="mask0_310_922" style="mask-type:alpha" maskUnits="userSpaceOnUse" x="0" y="0" width="5" height="8">
<path d="M5 0H0.25V8H5V0Z" fill="#D9D9D9"/>
</mask>
<g mask="url(#mask0_310_922)">
<path d="M14.3525 9.16544L10.5859 7.95473C10.4216 7.90194 10.2213 7.90689 10.0621 7.96628C9.90549 8.03225 9.81046 8.14112 9.81046 8.25988V8.96915H5.0656C4.72925 8.5172 4.09765 8.1741 3.33508 8.0372V3.11349H4.43657C4.62144 3.11349 4.7883 3.0541 4.88844 2.95513C4.986 2.85452 4.99887 2.7341 4.92184 2.62524L3.16563 0.202151C3.07576 0.0850377 2.8909 0.0091588 2.67265 0.00585938C2.46981 0.0091588 2.29006 0.0817382 2.19763 0.195553L0.31305 2.617C0.230888 2.72586 0.241153 2.84958 0.33872 2.95184C0.43372 3.0541 0.60832 3.11349 0.793185 3.11349H1.89724V8.0372C0.744404 8.24174 -0.105469 8.91307 -0.105469 9.71638C-0.105469 10.6797 1.11413 11.4632 2.61873 11.4632C4.02063 11.4632 5.1709 10.772 5.30954 9.89287H9.81306V10.6005C9.81306 10.7193 9.9029 10.8265 10.0595 10.8925C10.1468 10.9238 10.247 10.9436 10.3497 10.9436C10.4241 10.9436 10.5011 10.932 10.5756 10.9123L14.3422 9.78071C14.5245 9.72627 14.6452 9.60586 14.6504 9.46895C14.6427 9.33864 14.5322 9.22153 14.3525 9.16544ZM2.14886 2.78689H0.793185C0.78805 2.78689 0.780347 2.78359 0.775212 2.77864C0.775212 2.77535 0.772644 2.7704 0.775212 2.76545L2.65979 0.344003C2.65979 0.344003 2.67263 0.335758 2.67776 0.335758C2.68803 0.335758 2.69317 0.339056 2.69573 0.344003L4.45454 2.76545C4.45454 2.76876 4.45454 2.77369 4.45198 2.77864C4.44941 2.78194 4.44427 2.78689 4.43914 2.78689H3.0809C2.93968 2.78689 2.82414 2.85948 2.82414 2.94854V7.98112C2.75225 7.97782 2.69063 7.96792 2.6213 7.96792C2.54941 7.96792 2.48008 7.97782 2.41333 7.98441V2.94854C2.40819 2.85948 2.29265 2.78689 2.14886 2.78689ZM14.124 9.48379L10.3548 10.612C10.3497 10.6137 10.3471 10.6137 10.3471 10.6137L10.3368 10.612C10.3317 10.6104 10.324 10.6055 10.324 10.6021V9.72792C10.324 9.6372 10.211 9.56297 10.0672 9.56297H5.30954C5.29671 9.4739 5.27873 9.38483 5.24792 9.29905H10.0672C10.211 9.29905 10.324 9.22483 10.324 9.13411V8.26153C10.324 8.25823 10.3291 8.25494 10.3368 8.25163L10.3548 8.24998L14.124 9.46071C14.124 9.46071 14.1368 9.47061 14.1368 9.4739C14.1368 9.4772 14.124 9.48379 14.124 9.48379Z" fill="white"/>
</g>
</svg>
