<svg width="44" height="44" viewBox="0 0 44 44" fill="none" xmlns="http://www.w3.org/2000/svg">
<path d="M22.4665 0.556641C10.6129 0.556641 0.96875 10.2008 0.96875 22.0522C0.96875 33.9081 10.6129 43.5522 22.4665 43.5522C34.3179 43.5522 43.962 33.9081 43.962 22.0522C43.962 10.1985 34.3179 0.556641 22.4665 0.556641ZM22.4665 41.2973C11.855 41.2973 3.22367 32.6659 3.22367 22.0544C3.22367 11.4475 11.855 2.81156 22.4665 2.81156C33.0735 2.81156 41.7071 11.4475 41.7071 22.0544C41.7071 32.6659 33.0735 41.2973 22.4665 41.2973Z" fill="white"/>
<path d="M22.4714 5.60076C23.0777 5.60076 23.5773 5.10573 23.5773 4.49488C23.5773 3.88403 23.0777 3.38672 22.4714 3.38672C21.8583 3.38672 21.3633 3.88403 21.3633 4.49488C21.3633 5.10573 21.8606 5.60076 22.4714 5.60076Z" fill="white"/>
<path d="M22.4714 38.5625C21.8583 38.5625 21.3633 39.0598 21.3633 39.6684C21.3633 40.2815 21.8583 40.7811 22.4714 40.7811C23.0777 40.7811 23.5773 40.2815 23.5773 39.6684C23.5773 39.0598 23.0777 38.5625 22.4714 38.5625Z" fill="white"/>
<path d="M40.0496 20.9766C39.4364 20.9766 38.9414 21.4716 38.9414 22.0847C38.9414 22.6933 39.4364 23.1929 40.0496 23.1929C40.6581 23.1929 41.1554 22.6956 41.1554 22.0847C41.1577 21.4716 40.6604 20.9766 40.0496 20.9766Z" fill="white"/>
<path d="M4.88159 23.1929C5.49361 23.1929 5.98975 22.6967 5.98975 22.0847C5.98975 21.4727 5.49361 20.9766 4.88159 20.9766C4.26957 20.9766 3.77344 21.4727 3.77344 22.0847C3.77344 22.6967 4.26957 23.1929 4.88159 23.1929Z" fill="white"/>
<path d="M31.171 7.44722C31.4435 7.61072 31.8023 7.51988 31.9613 7.24738C32.1293 6.97261 32.0362 6.6161 31.7637 6.45033C31.4912 6.29137 31.1347 6.37766 30.9712 6.6547C30.8032 6.9272 30.894 7.28599 31.171 7.44722Z" fill="white"/>
<path d="M13.759 36.6418C13.4843 36.4783 13.1277 36.5691 12.9642 36.8462C12.8007 37.1164 12.8916 37.4706 13.1641 37.6364C13.4388 37.8022 13.7976 37.7113 13.9611 37.4366C14.1246 37.1618 14.0338 36.803 13.759 36.6418Z" fill="white"/>
<path d="M37.8593 30.554C37.5868 30.3905 37.2302 30.4813 37.0667 30.7561C36.9033 31.0309 36.9895 31.3874 37.2688 31.5509C37.5436 31.7144 37.8979 31.6258 38.0636 31.3488C38.2249 31.074 38.134 30.7198 37.8593 30.554Z" fill="white"/>
<path d="M7.66352 12.5422C7.38648 12.3787 7.03223 12.4695 6.871 12.7466C6.70751 13.0191 6.79607 13.3779 7.07084 13.5391C7.34788 13.7049 7.69985 13.6117 7.86562 13.3415C8.02685 13.0622 7.93828 12.708 7.66352 12.5422Z" fill="white"/>
<path d="M37.6148 13.1026C37.3332 13.2593 37.2288 13.609 37.3855 13.8883C37.5376 14.1722 37.8919 14.2744 38.1734 14.12C38.4505 13.9655 38.5549 13.6136 38.4028 13.3365C38.2484 13.0572 37.8964 12.9505 37.6148 13.1026Z" fill="white"/>
<path d="M6.76252 29.9723C6.48321 30.1245 6.37875 30.4765 6.53089 30.7558C6.68531 31.0374 7.03728 31.1418 7.31886 30.9874C7.59817 30.8307 7.70491 30.4787 7.54595 30.2017C7.39381 29.9201 7.0441 29.8179 6.76252 29.9723Z" fill="white"/>
<path d="M30.6219 36.9596C30.3426 37.1117 30.2381 37.4682 30.3903 37.7475C30.5447 38.0291 30.8967 38.1336 31.1782 37.9814C31.4575 37.827 31.562 37.475 31.4053 37.1935C31.2555 36.9119 30.9035 36.8051 30.6219 36.9596Z" fill="white"/>
<path d="M13.7505 6.11499C13.4689 6.26714 13.3668 6.61911 13.5212 6.89842C13.6733 7.18 14.0253 7.28446 14.3091 7.13005C14.5907 6.97563 14.6952 6.62366 14.5385 6.34207C14.3841 6.06276 14.0321 5.96058 13.7505 6.11499Z" fill="white"/>
<path d="M32.8455 21.354L29.5143 19.6872C29.3689 19.6145 29.1918 19.6213 29.051 19.7031C28.9125 19.7939 28.8285 19.9438 28.8285 20.1073V21.0837H24.632C24.3345 20.4615 23.7759 19.9892 23.1015 19.8007V13.0224H24.0757C24.2392 13.0224 24.3868 12.9406 24.4753 12.8044C24.5616 12.6658 24.573 12.5001 24.5048 12.3502L22.9516 9.01437C22.8721 8.85314 22.7086 8.74868 22.5156 8.74414C22.3362 8.74868 22.1773 8.8486 22.0955 9.00529L20.4287 12.3388C20.3561 12.4887 20.3652 12.659 20.4514 12.7998C20.5355 12.9406 20.6899 13.0224 20.8534 13.0224H21.8298V19.8007C20.8102 20.0823 20.0586 21.0065 20.0586 22.1124C20.0586 23.4386 21.1372 24.5172 22.4679 24.5172C23.7078 24.5172 24.7251 23.5657 24.8477 22.3554H28.8307V23.3296C28.8307 23.4931 28.9102 23.6407 29.0487 23.7315C29.1259 23.7747 29.2145 23.8019 29.3053 23.8019C29.3712 23.8019 29.4393 23.786 29.5052 23.7588L32.8365 22.201C32.9977 22.126 33.1044 21.9603 33.109 21.7718C33.1021 21.5924 33.0045 21.4312 32.8455 21.354ZM22.0524 12.5727H20.8534C20.8488 12.5727 20.842 12.5682 20.8375 12.5614C20.8375 12.5568 20.8352 12.55 20.8375 12.5432L22.5043 9.20966C22.5043 9.20966 22.5156 9.1983 22.5202 9.1983C22.5292 9.1983 22.5338 9.20284 22.536 9.20966L24.0916 12.5432C24.0916 12.5478 24.0916 12.5546 24.0893 12.5614C24.087 12.5659 24.0825 12.5727 24.0779 12.5727H22.8767C22.7518 12.5727 22.6496 12.6727 22.6496 12.7953V19.7235C22.586 19.719 22.5315 19.7054 22.4702 19.7054C22.4066 19.7054 22.3453 19.719 22.2863 19.7281V12.7953C22.2817 12.6727 22.1795 12.5727 22.0524 12.5727ZM32.6434 21.7922L29.3099 23.3455C29.3053 23.3477 29.3031 23.3477 29.3031 23.3477L29.294 23.3455C29.2895 23.3432 29.2826 23.3364 29.2826 23.3318V22.1283C29.2826 22.0034 29.1827 21.9012 29.0556 21.9012H24.8477C24.8364 21.7786 24.8205 21.656 24.7932 21.5379H29.0556C29.1827 21.5379 29.2826 21.4357 29.2826 21.3108V20.1096C29.2826 20.105 29.2872 20.1005 29.294 20.0959L29.3099 20.0937L32.6434 21.7604C32.6434 21.7604 32.6548 21.7741 32.6548 21.7786C32.6548 21.7831 32.6434 21.7922 32.6434 21.7922Z" fill="white"/>
</svg>
