<svg width="3" height="5" viewBox="0 0 3 5" fill="none" xmlns="http://www.w3.org/2000/svg">
<mask id="mask0_310_922" style="mask-type:alpha" maskUnits="userSpaceOnUse" x="0" y="0" width="3" height="5">
<path d="M2.1 0H0.25V5H2.1V0Z" fill="#D9D9D9"/>
</mask>
<g mask="url(#mask0_310_922)">
<path d="M5.74038 5.7306L4.27338 4.9739C4.20938 4.94091 4.13138 4.94401 4.06938 4.98112C4.00838 5.02236 3.97137 5.0904 3.97137 5.16462V5.60792H2.12337C1.99237 5.32545 1.74638 5.11101 1.44938 5.02545V1.94813H1.87838C1.95038 1.94813 2.01537 1.91101 2.05437 1.84916C2.09237 1.78627 2.09738 1.71101 2.06738 1.64297L1.38338 0.128542C1.34838 0.0553458 1.27638 0.00792152 1.19138 0.00585938C1.11238 0.00792152 1.04237 0.0532837 1.00637 0.124418L0.272377 1.63782C0.240377 1.70586 0.244375 1.78318 0.282375 1.8471C0.319375 1.91101 0.387377 1.94813 0.459377 1.94813H0.889378V5.02545C0.440378 5.15328 0.109375 5.57287 0.109375 6.07493C0.109375 6.67699 0.584376 7.16668 1.17038 7.16668C1.71638 7.16668 2.16438 6.73473 2.21838 6.18524H3.97238V6.62751C3.97238 6.70174 4.00737 6.76875 4.06837 6.80998C4.10237 6.82957 4.14138 6.84194 4.18138 6.84194C4.21038 6.84194 4.24037 6.83473 4.26937 6.82235L5.73638 6.11514C5.80738 6.08112 5.85438 6.00586 5.85638 5.92029C5.85338 5.83885 5.81038 5.76565 5.74038 5.7306ZM0.987377 1.744H0.459377C0.457377 1.744 0.454377 1.74194 0.452377 1.73885C0.452377 1.73679 0.451377 1.7337 0.452377 1.7306L1.18637 0.217199C1.18637 0.217199 1.19137 0.212046 1.19337 0.212046C1.19737 0.212046 1.19937 0.214107 1.20037 0.217199L1.88538 1.7306C1.88538 1.73267 1.88538 1.73575 1.88438 1.73885C1.88338 1.74091 1.88138 1.744 1.87938 1.744H1.35038C1.29538 1.744 1.25038 1.78937 1.25038 1.84503V4.9904C1.22238 4.98833 1.19838 4.98215 1.17138 4.98215C1.14338 4.98215 1.11638 4.98833 1.09038 4.99245V1.84503C1.08838 1.78937 1.04338 1.744 0.987377 1.744ZM5.65137 5.92957L4.18338 6.63473C4.18138 6.63575 4.18037 6.63575 4.18037 6.63575L4.17638 6.63473C4.17438 6.6337 4.17138 6.6306 4.17138 6.62854V6.08215C4.17138 6.02545 4.12738 5.97905 4.07138 5.97905H2.21838C2.21338 5.92338 2.20638 5.86772 2.19438 5.8141H4.07138C4.12738 5.8141 4.17138 5.76772 4.17138 5.71102V5.16565C4.17138 5.16359 4.17338 5.16153 4.17638 5.15947L4.18338 5.15843L5.65137 5.91514C5.65137 5.91514 5.65638 5.92133 5.65638 5.92338C5.65638 5.92545 5.65137 5.92957 5.65137 5.92957Z" fill="white"/>
</g>
</svg>
