<svg width="6" height="6" viewBox="0 0 6 6" fill="none" xmlns="http://www.w3.org/2000/svg">
<mask id="mask0_310_922" style="mask-type:alpha" maskUnits="userSpaceOnUse" x="0" y="0" width="6" height="6">
<path d="M6 0H0.25V6H6V0Z" fill="#D9D9D9"/>
</mask>
<g mask="url(#mask0_310_922)">
<path d="M17.3221 6.87164L12.7625 5.96361C12.5636 5.92402 12.3211 5.92773 12.1284 5.97227C11.9388 6.02175 11.8238 6.1034 11.8238 6.19247V6.72443H6.08003C5.67286 6.38546 4.9083 6.12814 3.98519 6.02546V2.33267H5.31857C5.54236 2.33267 5.74435 2.28814 5.86557 2.21391C5.98368 2.13845 5.99925 2.04814 5.906 1.96649L3.78006 0.149172C3.67127 0.0613369 3.44749 0.0044277 3.1833 0.00195312C2.93776 0.0044277 2.72016 0.0588623 2.60827 0.144223L0.32694 1.96031C0.227481 2.04196 0.239907 2.13474 0.358015 2.21144C0.473015 2.28814 0.684373 2.33267 0.908157 2.33267H2.24465V6.02546C0.849106 6.17886 -0.179688 6.68237 -0.179688 7.28484C-0.179688 8.00731 1.29667 8.59493 3.11803 8.59493C4.81506 8.59493 6.20749 8.07659 6.37533 7.41721H11.827V7.94794C11.827 8.03701 11.9357 8.11742 12.1253 8.1669C12.231 8.19041 12.3522 8.20525 12.4765 8.20525C12.5667 8.20525 12.6599 8.19659 12.75 8.18175L17.3097 7.33309C17.5303 7.29227 17.6764 7.20196 17.6826 7.09927C17.6733 7.00154 17.5397 6.91371 17.3221 6.87164ZM2.54924 2.08773H0.908157C0.90194 2.08773 0.892616 2.08525 0.8864 2.08154C0.8864 2.07907 0.883292 2.07536 0.8864 2.07165L3.16773 0.255561C3.16773 0.255561 3.18327 0.249377 3.18949 0.249377C3.20192 0.249377 3.20813 0.251851 3.21124 0.255561L5.34033 2.07165C5.34033 2.07413 5.34033 2.07783 5.33722 2.08154C5.33411 2.08402 5.3279 2.08773 5.32168 2.08773H3.67749C3.50654 2.08773 3.36668 2.14217 3.36668 2.20896V5.9834C3.27965 5.98092 3.20506 5.9735 3.12114 5.9735C3.03411 5.9735 2.95019 5.98092 2.86938 5.98587V2.20896C2.86317 2.14217 2.7233 2.08773 2.54924 2.08773ZM17.0454 7.11041L12.4828 7.95659C12.4765 7.95783 12.4734 7.95783 12.4734 7.95783L12.461 7.95659C12.4548 7.95536 12.4455 7.95165 12.4455 7.94917V7.2935C12.4455 7.22546 12.3087 7.16979 12.1347 7.16979H6.37533C6.35979 7.10298 6.33803 7.03619 6.30073 6.97185H12.1347C12.3087 6.97185 12.4455 6.91618 12.4455 6.84814V6.19371C12.4455 6.19123 12.4517 6.18876 12.461 6.18628L12.4828 6.18504L17.0454 7.09309C17.0454 7.09309 17.061 7.10051 17.061 7.10298C17.061 7.10546 17.0454 7.11041 17.0454 7.11041Z" fill="white"/>
</g>
</svg>
