<svg width="21" height="21" viewBox="0 0 21 21" fill="none" xmlns="http://www.w3.org/2000/svg">
<path d="M10.5094 0.875C5.00244 0.875 0.523438 5.353 0.523438 10.86C0.523438 16.367 5.00244 20.846 10.5094 20.846C16.0144 20.846 20.4944 16.367 20.4944 10.86C20.4944 5.353 16.0154 0.875 10.5094 0.875ZM4.58543 18.312C4.60443 18.282 4.61643 18.254 4.61143 18.231C4.52043 17.821 4.81444 17.722 4.78844 17.367C4.75444 16.899 4.78944 16.841 4.74344 16.401C4.64244 15.433 5.18544 15.139 5.71444 14.612C6.36844 13.961 6.74644 13.401 5.82844 12.856C5.27444 12.524 4.72144 12.212 4.13244 11.946C3.20144 11.524 3.19143 10.368 3.17043 9.449C3.14243 8.113 2.16143 8.425 1.23643 8.694C2.04043 5.258 4.70043 2.531 8.10143 1.64C8.31843 2.278 8.70544 2.931 8.61044 3.614C8.56044 3.971 8.80643 4.027 9.08543 4.116C9.91943 4.383 10.6604 4.81 11.2854 5.42C11.6804 5.805 12.1014 7.051 12.7344 7.193C13.7884 7.432 14.8514 7.031 15.4504 6.1C15.6624 5.769 16.1754 4.189 16.3854 4.218C16.6374 4.253 16.8054 4.237 16.9804 4.116C17.0274 4.098 17.0764 4.06 17.1194 4.013C17.9734 4.839 18.6744 5.824 19.1774 6.917C18.0754 7.745 16.9094 8.477 15.7954 9.288C15.1994 9.723 14.4384 10.317 14.2644 11.087C14.1464 11.604 14.1434 12.12 14.0974 12.647C14.0054 13.707 12.4674 13.686 11.7664 13.781C11.0444 13.878 10.1474 13.929 9.75744 14.625C9.46344 15.148 10.0964 15.882 10.3304 16.291C10.9794 17.422 11.3454 16.975 12.4384 16.576C12.8834 16.412 13.3214 16.304 13.7234 16.048C14.1774 15.758 14.8724 15.023 15.0944 15.881C15.3604 16.912 15.3294 17.85 16.3054 18.406C14.6974 19.645 12.6914 20.391 10.5084 20.391C8.26944 20.389 6.21243 19.608 4.58543 18.312Z" fill="white"/>
</svg>
