<svg width="431" height="414" viewBox="0 0 431 414" fill="none" xmlns="http://www.w3.org/2000/svg">
<mask id="mask0_320_28" style="mask-type:alpha" maskUnits="userSpaceOnUse" x="0" y="0" width="431" height="414">
<rect width="431" height="414" fill="#D9D9D9"/>
</mask>
<g mask="url(#mask0_320_28)">
<path d="M402.739 354.095V237.189V226.208V109.295C402.739 109.295 402.835 99.8008 393.14 99.8008H345.982H317.811H37.9331C28.239 99.8008 28.3321 109.295 28.3321 109.295V226.206V237.187V354.093C28.3321 354.093 28.239 363.585 37.9331 363.585H317.813H326.599H393.143C402.837 363.587 402.739 354.095 402.739 354.095Z" fill="#4F4F51"/>
<path d="M399.719 350.958V237.042V226.345V112.429C399.719 112.429 399.812 103.176 390.275 103.176H343.875H316.158H40.7897C31.2569 103.176 31.3477 112.429 31.3477 112.429V226.345V237.042V350.958C31.3477 350.958 31.2569 360.202 40.7897 360.202H316.158H324.8H390.275C399.812 360.202 399.719 350.958 399.719 350.958Z" fill="#1F1F1F"/>
<path d="M399.719 350.958V237.042V226.345V112.429C399.719 112.429 399.812 103.176 390.275 103.176H343.875H316.158H40.7897C31.2569 103.176 31.3477 112.429 31.3477 112.429V226.345V237.042V350.958C31.3477 350.958 31.2569 360.202 40.7897 360.202H316.158H324.8H390.275C399.812 360.202 399.719 350.958 399.719 350.958Z" fill="#1F1F1F"/>
<path d="M220.341 103.18L31.3477 255.172V278.455L249.291 103.18H220.341Z" fill="url(#paint0_linear_320_28)"/>
<path d="M399.716 237.047V226.349V205.637L207.512 360.204H306.662L399.716 285.376V237.047Z" fill="url(#paint1_linear_320_28)"/>
<path d="M392.054 113.75H39.0312V349.637H392.054V113.75Z" fill="#8379FF"/>
<path d="M392.054 113.75H39.0312V349.637H392.054V113.75Z" fill="#8379FF"/>
<path d="M385.172 118.34H45.8945V345.042H385.172V118.34Z" fill="#8379FF"/>
<path opacity="0.6" d="M318.743 103.148L249.694 103.5L180.65 103.65L111.601 103.797L42.5527 103.666H42.5436L42.505 103.663C40.141 103.509 37.5796 103.931 35.5994 105.237C33.5693 106.525 32.4748 108.857 32.2908 111.266C32.1705 116.205 32.2477 121.285 32.2182 126.292L32.1864 156.424L32.1251 216.686L31.7935 337.217L31.4643 216.686L31.4007 156.424L31.3712 126.292C31.3916 121.253 31.3008 116.282 31.412 111.187C31.5279 109.897 31.8276 108.589 32.4453 107.408C33.0584 106.227 33.9781 105.205 35.0839 104.465C37.3252 103 39.9889 102.551 42.6049 102.701L42.5527 102.698L111.601 102.551L180.65 102.68L249.694 102.812L318.743 103.148Z" fill="white"/>
<path d="M397.52 384.25C394.488 382.174 388.171 381.389 388.171 381.389H362.52H228.36H202.711H202.709H68.5469H42.8981C42.8981 381.389 36.5829 382.177 33.5491 384.25L0.515625 406.15L4.5713 411.684C5.5591 412.621 6.58096 413.827 8.28407 413.827H33.9306H137.521H189.954H241.108H293.544H397.134H422.782C424.481 413.827 425.503 412.621 426.493 411.684L430.549 406.15L397.52 384.25Z" fill="url(#paint2_linear_320_28)"/>
<path d="M431.035 404.978C431.067 404.719 431.069 404.458 431.035 404.201V396.61L401.183 374.885C397.857 372.607 390.924 371.742 390.924 371.742H215.535H40.1513C40.1513 371.742 33.2185 372.607 29.8918 374.885L0.0578559 396.698V404.126C0.00562725 404.44 0.00789807 404.755 0.0578559 405.064V405.073C0.198646 405.945 0.775433 406.763 2.1629 407.351H257.686H315.231H428.914C430.338 406.749 430.911 405.904 431.033 405.005H431.038V404.978H431.035Z" fill="url(#paint3_linear_320_28)"/>
<path d="M431.035 404.978C431.067 404.719 431.069 404.458 431.035 404.201V396.61L401.183 374.885C397.857 372.607 390.924 371.742 390.924 371.742H215.535H40.1513C40.1513 371.742 33.2185 372.607 29.8918 374.885L0.0578559 396.698V404.126C0.00562725 404.44 0.00789807 404.755 0.0578559 405.064V405.073C0.198646 405.945 0.775433 406.763 2.1629 407.351H257.686H315.231H428.914C430.338 406.749 430.911 405.904 431.033 405.005H431.038V404.978H431.035Z" fill="url(#paint4_linear_320_28)"/>
<path d="M428.906 392.241L401.177 366.729C397.85 364.449 390.918 363.586 390.918 363.586H215.529H40.1452C40.1452 363.586 33.2124 364.449 29.8857 366.729L2.15677 392.241C2.15677 392.241 -2.69596 397.135 2.15677 399.185H257.68H315.225H428.908C433.761 397.135 428.906 392.241 428.906 392.241Z" fill="url(#paint5_linear_320_28)"/>
<path d="M293.065 385.465H137.437L131.883 393.626H298.34L293.065 385.465Z" fill="url(#paint6_linear_320_28)"/>
<path d="M293.065 385.465H137.437L131.883 393.626L137.791 385.828L292.731 385.983L298.34 393.626L293.065 385.465Z" fill="url(#paint7_linear_320_28)"/>
<path d="M216.156 375.166V379.635H233.433L233.013 375.166H216.156Z" fill="url(#paint8_linear_320_28)"/>
<path d="M233.436 380.259H216.16C215.817 380.259 215.535 379.982 215.535 379.634V375.163C215.535 374.818 215.819 374.541 216.16 374.541H233.016C233.336 374.541 233.606 374.784 233.638 375.104L234.058 379.578C234.074 379.753 234.015 379.925 233.899 380.052C233.779 380.186 233.613 380.259 233.436 380.259ZM216.786 379.014H232.752L232.448 375.788H216.786V379.014Z" fill="#404040"/>
<path d="M131.878 375.166L129.773 379.635H147.05L148.732 375.166H131.878Z" fill="url(#paint9_linear_320_28)"/>
<path d="M147.054 380.259H129.775C129.564 380.259 129.362 380.152 129.248 379.971C129.135 379.791 129.121 379.562 129.212 379.369L131.317 374.9C131.421 374.682 131.637 374.541 131.882 374.541H148.736C148.943 374.541 149.132 374.641 149.25 374.807C149.37 374.975 149.395 375.188 149.322 375.383L147.64 379.852C147.549 380.098 147.315 380.259 147.054 380.259ZM130.761 379.014H146.622L147.835 375.788H132.28L130.761 379.014Z" fill="#404040"/>
<path d="M199.305 375.168L198.883 379.637H216.159V375.168H199.305Z" fill="url(#paint10_linear_320_28)"/>
<path d="M216.161 380.263H198.884C198.709 380.263 198.541 380.19 198.423 380.058C198.305 379.931 198.248 379.758 198.264 379.584L198.682 375.11C198.714 374.79 198.984 374.547 199.307 374.547H216.161C216.506 374.547 216.787 374.824 216.787 375.169V379.64C216.787 379.985 216.506 380.263 216.161 380.263ZM199.57 379.018H215.536V375.791H199.872L199.57 379.018Z" fill="#404040"/>
<path d="M249.875 375.166L250.715 379.635H267.992L266.729 375.166H249.875Z" fill="url(#paint11_linear_320_28)"/>
<path d="M267.99 380.259H250.711C250.414 380.259 250.155 380.048 250.1 379.75L249.258 375.281C249.222 375.097 249.269 374.909 249.39 374.766C249.508 374.625 249.683 374.541 249.871 374.541H266.725C267.007 374.541 267.252 374.723 267.327 374.995L268.587 379.466C268.639 379.65 268.605 379.855 268.485 380.009C268.367 380.17 268.185 380.259 267.99 380.259ZM251.231 379.014H267.168L266.257 375.788H250.623L251.231 379.014Z" fill="#404040"/>
<path d="M347.645 370.697L345.219 367.477H329.09L331.206 370.697H347.645Z" fill="url(#paint12_linear_320_28)"/>
<path d="M347.643 371.32H331.205C330.998 371.32 330.801 371.211 330.685 371.038L328.564 367.821C328.439 367.63 328.425 367.385 328.537 367.18C328.643 366.98 328.854 366.855 329.084 366.855H345.216C345.413 366.855 345.597 366.946 345.717 367.103L348.143 370.318C348.286 370.509 348.306 370.761 348.199 370.972C348.095 371.186 347.879 371.32 347.643 371.32ZM331.545 370.069H346.392L344.909 368.1H330.244L331.545 370.069Z" fill="#404040"/>
<path d="M148.733 375.168L147.051 379.637H164.329L165.59 375.168H148.733Z" fill="url(#paint13_linear_320_28)"/>
<path d="M164.33 380.263H147.054C146.85 380.263 146.659 380.163 146.543 379.995C146.425 379.829 146.398 379.613 146.468 379.418L148.151 374.951C148.242 374.706 148.475 374.547 148.734 374.547H165.591C165.788 374.547 165.972 374.638 166.088 374.794C166.206 374.949 166.245 375.153 166.192 375.342L164.93 379.811C164.855 380.079 164.61 380.263 164.33 380.263ZM147.953 379.018H163.858L164.769 375.791H149.168L147.953 379.018Z" fill="#404040"/>
<path d="M266.734 375.166L267.997 379.635H285.276L283.593 375.166H266.734Z" fill="url(#paint14_linear_320_28)"/>
<path d="M285.277 380.259H268.001C267.719 380.259 267.474 380.075 267.399 379.805L266.136 375.336C266.084 375.147 266.121 374.943 266.241 374.789C266.359 374.632 266.543 374.541 266.736 374.541H283.597C283.853 374.541 284.087 374.7 284.178 374.945L285.861 379.412C285.936 379.607 285.908 379.821 285.79 379.989C285.672 380.159 285.479 380.259 285.277 380.259ZM268.471 379.014H284.373L283.163 375.788H267.563L268.471 379.014Z" fill="#404040"/>
<path d="M165.592 375.168L164.332 379.637H181.608L182.449 375.168H165.592Z" fill="url(#paint15_linear_320_28)"/>
<path d="M181.611 380.263H164.333C164.137 380.263 163.953 380.172 163.835 380.015C163.717 379.858 163.683 379.656 163.733 379.472L164.994 375.001C165.068 374.729 165.314 374.547 165.593 374.547H182.452C182.638 374.547 182.813 374.631 182.933 374.772C183.051 374.915 183.101 375.101 183.065 375.287L182.224 379.756C182.172 380.049 181.913 380.263 181.611 380.263ZM165.157 379.018H181.094L181.702 375.791H166.068L165.157 379.018Z" fill="#404040"/>
<path d="M182.446 375.166L181.605 379.635H198.882L199.304 375.166H182.446Z" fill="url(#paint16_linear_320_28)"/>
<path d="M198.885 380.259H181.609C181.425 380.259 181.246 380.175 181.13 380.034C181.01 379.891 180.96 379.703 180.996 379.521L181.836 375.05C181.891 374.754 182.15 374.541 182.449 374.541H199.308C199.48 374.541 199.648 374.614 199.769 374.743C199.887 374.873 199.946 375.045 199.928 375.222L199.508 379.691C199.478 380.014 199.206 380.259 198.885 380.259ZM182.363 379.014H198.318L198.622 375.788H182.972L182.363 379.014Z" fill="#404040"/>
<path d="M354.377 379.635H371.656L367.868 375.166H351.012L354.377 379.635Z" fill="url(#paint17_linear_320_28)"/>
<path d="M371.657 380.259H354.38C354.185 380.259 353.999 380.168 353.881 380.011L350.515 375.538C350.372 375.349 350.352 375.095 350.456 374.884C350.563 374.673 350.776 374.541 351.013 374.541H367.871C368.053 374.541 368.228 374.62 368.346 374.761L372.134 379.233C372.29 379.416 372.324 379.678 372.224 379.896C372.12 380.12 371.897 380.259 371.657 380.259ZM354.691 379.014H370.308L367.578 375.788H352.266L354.691 379.014Z" fill="#404040"/>
<path d="M283.586 375.168L285.269 379.637H302.547L300.438 375.168H283.586Z" fill="url(#paint18_linear_320_28)"/>
<path d="M302.551 380.263H285.272C285.011 380.263 284.78 380.101 284.689 379.858L283.004 375.389C282.933 375.192 282.958 374.981 283.079 374.813C283.195 374.647 283.385 374.547 283.592 374.547H300.444C300.689 374.547 300.907 374.688 301.009 374.906L303.116 379.375C303.205 379.568 303.194 379.797 303.078 379.976C302.962 380.156 302.76 380.263 302.551 380.263ZM285.704 379.018H301.565L300.046 375.791H284.491L285.704 379.018Z" fill="#404040"/>
<path d="M367.871 375.168H383.965L379.748 370.699H364.086L367.871 375.168Z" fill="url(#paint19_linear_320_28)"/>
<path d="M383.962 375.79H367.869C367.683 375.79 367.51 375.711 367.39 375.572L363.604 371.099C363.448 370.915 363.414 370.654 363.514 370.431C363.616 370.209 363.838 370.07 364.081 370.07H379.743C379.916 370.07 380.079 370.143 380.199 370.268L384.416 374.739C384.587 374.918 384.632 375.184 384.537 375.414C384.435 375.643 384.212 375.79 383.962 375.79ZM368.16 374.544H382.518L379.477 371.319H365.43L368.16 374.544Z" fill="#404040"/>
<path d="M347.648 370.695L351.014 375.164H367.87L364.085 370.695H347.648Z" fill="url(#paint20_linear_320_28)"/>
<path d="M367.867 375.788H351.008C350.813 375.788 350.629 375.697 350.509 375.541L347.146 371.072C347.003 370.881 346.98 370.629 347.084 370.418C347.189 370.204 347.405 370.07 347.641 370.07H364.077C364.259 370.07 364.433 370.154 364.547 370.291L368.337 374.764C368.496 374.948 368.53 375.209 368.428 375.427C368.332 375.647 368.112 375.788 367.867 375.788ZM351.324 374.542H366.523L363.793 371.317H348.899L351.324 374.542Z" fill="#404040"/>
<path d="M364.076 370.7L361.351 367.48H345.215L347.64 370.7H364.076Z" fill="url(#paint21_linear_320_28)"/>
<path d="M364.076 371.322H347.64C347.445 371.322 347.261 371.229 347.143 371.075L344.717 367.855C344.577 367.666 344.554 367.412 344.661 367.201C344.763 366.987 344.981 366.855 345.215 366.855H361.349C361.53 366.855 361.705 366.935 361.823 367.073L364.546 370.293C364.705 370.48 364.744 370.739 364.639 370.959C364.539 371.181 364.317 371.322 364.076 371.322ZM347.951 370.071H362.727L361.058 368.102H346.468L347.951 370.071Z" fill="#404040"/>
<path d="M379.746 370.7L376.712 367.48H361.359L364.084 370.7H379.746Z" fill="url(#paint22_linear_320_28)"/>
<path d="M379.744 371.322H364.083C363.896 371.322 363.724 371.24 363.603 371.102L360.876 367.882C360.722 367.698 360.685 367.437 360.79 367.219C360.89 366.999 361.11 366.855 361.358 366.855H376.71C376.883 366.855 377.044 366.926 377.165 367.051L380.201 370.271C380.369 370.45 380.419 370.718 380.319 370.943C380.221 371.175 379.996 371.322 379.744 371.322ZM364.371 370.071H378.298L376.438 368.102H362.7L364.371 370.071Z" fill="#404040"/>
<path d="M115.029 375.168L112.504 379.637H129.78L131.885 375.168H115.029Z" fill="url(#paint23_linear_320_28)"/>
<path d="M129.781 380.263H112.505C112.285 380.263 112.078 380.144 111.967 379.954C111.856 379.763 111.856 379.524 111.962 379.331L114.485 374.865C114.596 374.665 114.805 374.547 115.028 374.547H131.886C132.098 374.547 132.3 374.656 132.413 374.833C132.527 375.012 132.54 375.242 132.45 375.437L130.345 379.908C130.242 380.124 130.024 380.263 129.781 380.263ZM113.575 379.018H129.389L130.903 375.791H115.394L113.575 379.018Z" fill="#404040"/>
<path d="M317.293 375.168L319.816 379.637H337.097L334.149 375.168H317.293Z" fill="url(#paint24_linear_320_28)"/>
<path d="M337.1 380.263H319.819C319.594 380.263 319.387 380.142 319.276 379.949L316.753 375.478C316.644 375.283 316.644 375.044 316.758 374.853C316.869 374.663 317.073 374.547 317.296 374.547H334.154C334.363 374.547 334.556 374.654 334.674 374.826L337.62 379.3C337.747 379.49 337.758 379.736 337.649 379.936C337.536 380.135 337.327 380.263 337.1 380.263ZM320.184 379.018H335.939L333.814 375.791H318.365L320.184 379.018Z" fill="#404040"/>
<path d="M300.441 375.168L302.551 379.637H319.823L317.3 375.168H300.441Z" fill="url(#paint25_linear_320_28)"/>
<path d="M319.822 380.263H302.55C302.307 380.263 302.089 380.124 301.985 379.908L299.88 375.437C299.789 375.242 299.803 375.015 299.916 374.833C300.03 374.656 300.23 374.547 300.441 374.547H317.299C317.524 374.547 317.733 374.665 317.844 374.865L320.367 379.331C320.474 379.524 320.474 379.765 320.36 379.954C320.251 380.144 320.047 380.263 319.822 380.263ZM302.943 379.018H318.755L316.936 375.791H301.429L302.943 379.018Z" fill="#404040"/>
<path d="M334.152 375.166L337.1 379.635H354.374L351.009 375.166H334.152Z" fill="url(#paint26_linear_320_28)"/>
<path d="M354.372 380.259H337.096C336.885 380.259 336.687 380.154 336.573 379.977L333.628 375.508C333.499 375.313 333.49 375.07 333.599 374.868C333.708 374.668 333.919 374.541 334.148 374.541H351.002C351.197 374.541 351.384 374.634 351.502 374.789L354.867 379.26C355.008 379.446 355.031 379.703 354.926 379.914C354.826 380.125 354.608 380.259 354.372 380.259ZM337.432 379.014H353.123L350.696 375.788H335.309L337.432 379.014Z" fill="#404040"/>
<path d="M233.016 375.166L233.436 379.635H250.714L249.874 375.166H233.016Z" fill="url(#paint27_linear_320_28)"/>
<path d="M250.716 380.259H233.439C233.117 380.259 232.849 380.014 232.817 379.691L232.397 375.222C232.381 375.045 232.44 374.87 232.556 374.743C232.674 374.614 232.842 374.541 233.017 374.541H249.876C250.173 374.541 250.432 374.754 250.489 375.05L251.329 379.521C251.363 379.703 251.317 379.891 251.197 380.034C251.079 380.175 250.902 380.259 250.716 380.259ZM234.007 379.014H249.964L249.356 375.788H233.703L234.007 379.014Z" fill="#404040"/>
<path d="M233.013 375.164L232.59 370.695H216.156V375.164H233.013Z" fill="url(#paint28_linear_320_28)"/>
<path d="M233.016 375.788H216.16C215.817 375.788 215.535 375.509 215.535 375.166V370.697C215.535 370.352 215.819 370.07 216.16 370.07H232.594C232.914 370.07 233.186 370.318 233.218 370.636L233.638 375.107C233.652 375.282 233.595 375.457 233.477 375.584C233.359 375.713 233.191 375.788 233.016 375.788ZM216.786 374.542H232.33L232.03 371.317H216.786V374.542Z" fill="#404040"/>
<path d="M249.871 375.164L249.028 370.695H232.59L233.012 375.164H249.871Z" fill="url(#paint29_linear_320_28)"/>
<path d="M249.872 375.788H233.014C232.691 375.788 232.423 375.543 232.392 375.225L231.971 370.754C231.956 370.581 232.01 370.406 232.133 370.275C232.251 370.148 232.417 370.07 232.591 370.07H249.03C249.33 370.07 249.586 370.284 249.641 370.579L250.483 375.05C250.517 375.23 250.467 375.418 250.349 375.563C250.233 375.706 250.056 375.788 249.872 375.788ZM233.581 374.542H249.118L248.512 371.317H233.279L233.581 374.542Z" fill="#404040"/>
<path d="M216.159 375.164V370.695H199.725L199.305 375.164H216.159Z" fill="url(#paint30_linear_320_28)"/>
<path d="M216.157 375.788H199.303C199.128 375.788 198.96 375.713 198.84 375.584C198.721 375.457 198.662 375.282 198.678 375.107L199.101 370.636C199.13 370.318 199.4 370.07 199.723 370.07H216.159C216.504 370.07 216.786 370.352 216.786 370.697V375.166C216.784 375.509 216.502 375.788 216.157 375.788ZM199.986 374.542H215.53V371.317H200.288L199.986 374.542Z" fill="#404040"/>
<path d="M199.304 375.164L199.724 370.695H183.288L182.445 375.164H199.304Z" fill="url(#paint31_linear_320_28)"/>
<path d="M199.307 375.788H182.449C182.265 375.788 182.088 375.709 181.97 375.563C181.851 375.418 181.799 375.23 181.836 375.05L182.676 370.579C182.73 370.284 182.989 370.07 183.289 370.07H199.725C199.902 370.07 200.068 370.148 200.186 370.275C200.302 370.406 200.363 370.581 200.345 370.754L199.925 375.225C199.898 375.543 199.63 375.788 199.307 375.788ZM183.203 374.542H198.737L199.042 371.317H183.809L183.203 374.542Z" fill="#404040"/>
<path d="M266.724 375.164L265.461 370.695H249.027L249.87 375.164H266.724Z" fill="url(#paint32_linear_320_28)"/>
<path d="M266.726 375.788H249.872C249.573 375.788 249.316 375.577 249.261 375.282L248.417 370.811C248.383 370.629 248.433 370.438 248.551 370.297C248.669 370.154 248.844 370.07 249.032 370.07H265.466C265.748 370.07 265.991 370.257 266.068 370.527L267.328 374.998C267.38 375.184 267.344 375.386 267.226 375.543C267.106 375.697 266.924 375.788 266.726 375.788ZM250.388 374.542H265.902L264.996 371.317H249.781L250.388 374.542Z" fill="#404040"/>
<path d="M351.015 375.168L347.649 370.699H331.211L334.158 375.168H351.015Z" fill="url(#paint33_linear_320_28)"/>
<path d="M351.014 375.79H334.16C333.948 375.79 333.753 375.686 333.637 375.511L330.692 371.038C330.567 370.847 330.556 370.599 330.663 370.397C330.774 370.197 330.983 370.07 331.212 370.07H347.651C347.848 370.07 348.032 370.166 348.152 370.318L351.518 374.791C351.659 374.978 351.681 375.232 351.577 375.445C351.468 375.659 351.252 375.79 351.014 375.79ZM334.493 374.544H349.762L347.337 371.319H332.368L334.493 374.544Z" fill="#404040"/>
<path d="M334.16 375.164L331.213 370.695H314.781L317.304 375.164H334.16Z" fill="url(#paint34_linear_320_28)"/>
<path d="M334.157 375.788H317.299C317.072 375.788 316.865 375.668 316.756 375.475L314.233 371.001C314.124 370.806 314.124 370.572 314.24 370.379C314.351 370.188 314.556 370.07 314.778 370.07H331.21C331.423 370.07 331.616 370.179 331.732 370.352L334.677 374.823C334.807 375.014 334.816 375.259 334.705 375.463C334.598 375.663 334.387 375.788 334.157 375.788ZM317.664 374.542H332.997L330.874 371.317H315.843L317.664 374.542Z" fill="#404040"/>
<path d="M317.299 375.164L314.776 370.695H298.34L300.44 375.164H317.299Z" fill="url(#paint35_linear_320_28)"/>
<path d="M317.302 375.788H300.443C300.205 375.788 299.982 375.65 299.88 375.429L297.777 370.963C297.687 370.767 297.703 370.54 297.816 370.361C297.932 370.182 298.127 370.07 298.343 370.07H314.779C315.004 370.07 315.213 370.195 315.322 370.388L317.847 374.862C317.956 375.052 317.956 375.289 317.84 375.482C317.731 375.672 317.524 375.788 317.302 375.788ZM300.841 374.542H316.235L314.413 371.317H299.324L300.841 374.542Z" fill="#404040"/>
<path d="M300.441 375.168L298.341 370.699H281.902L283.59 375.168H300.441Z" fill="url(#paint36_linear_320_28)"/>
<path d="M300.443 375.79H283.592C283.331 375.79 283.097 375.627 283.004 375.389L281.323 370.915C281.248 370.724 281.275 370.509 281.391 370.338C281.509 370.172 281.7 370.07 281.904 370.07H298.343C298.584 370.07 298.802 370.211 298.906 370.429L301.009 374.903C301.1 375.093 301.086 375.32 300.97 375.502C300.857 375.681 300.659 375.79 300.443 375.79ZM284.023 374.544H299.462L297.945 371.319H282.808L284.023 374.544Z" fill="#404040"/>
<path d="M115.024 375.164L117.547 370.695H101.113L98.168 375.164H115.024Z" fill="url(#paint37_linear_320_28)"/>
<path d="M115.026 375.788H98.1694C97.94 375.788 97.7288 375.663 97.6221 375.463C97.5131 375.259 97.5222 375.014 97.6516 374.823L100.595 370.352C100.708 370.179 100.906 370.07 101.117 370.07H117.551C117.771 370.07 117.978 370.188 118.089 370.379C118.2 370.572 118.205 370.806 118.093 371.001L115.568 375.475C115.457 375.666 115.25 375.788 115.026 375.788ZM99.3275 374.542H114.66L116.481 371.317H101.453L99.3275 374.542Z" fill="#404040"/>
<path d="M98.1687 375.168L101.114 370.699H84.6778L81.3125 375.168H98.1687Z" fill="url(#paint38_linear_320_28)"/>
<path d="M98.1707 375.79H81.3167C81.0782 375.79 80.8625 375.659 80.7581 375.445C80.6513 375.234 80.674 374.98 80.8171 374.791L84.1824 370.318C84.3005 370.166 84.4867 370.07 84.682 370.07H101.118C101.345 370.07 101.559 370.197 101.668 370.397C101.777 370.599 101.765 370.847 101.64 371.038L98.6929 375.511C98.5749 375.686 98.3796 375.79 98.1707 375.79ZM82.5656 374.544H97.8323L99.9578 371.319H84.9909L82.5656 374.544Z" fill="#404040"/>
<path d="M64.4495 375.168L60.6641 379.637H77.9427L81.308 375.168H64.4495Z" fill="url(#paint39_linear_320_28)"/>
<path d="M77.9432 380.263H60.6646C60.4216 380.263 60.1991 380.124 60.1014 379.901C59.997 379.683 60.0356 379.42 60.1923 379.238L63.9777 374.767C64.0935 374.624 64.2684 374.547 64.4523 374.547H81.3108C81.5447 374.547 81.7627 374.681 81.8672 374.89C81.9739 375.101 81.9512 375.355 81.8104 375.544L78.4451 380.017C78.3224 380.174 78.1362 380.263 77.9432 380.263ZM62.0112 379.018H77.6321L80.0596 375.791H64.7407L62.0112 379.018Z" fill="#404040"/>
<path d="M84.677 370.695H68.2431L64.4531 375.164H81.3116L84.677 370.695Z" fill="url(#paint40_linear_320_28)"/>
<path d="M81.3135 375.788H64.455C64.212 375.788 63.9918 375.647 63.8919 375.427C63.7874 375.209 63.8215 374.948 63.9804 374.764L67.7681 370.291C67.8862 370.152 68.0611 370.07 68.2427 370.07H84.6766C84.9128 370.07 85.1308 370.204 85.2352 370.418C85.3397 370.629 85.3193 370.881 85.1739 371.072L81.8108 375.541C81.695 375.697 81.5088 375.788 81.3135 375.788ZM65.8016 374.542H81.0024L83.4277 371.317H68.5334L65.8016 374.542Z" fill="#404040"/>
<path d="M81.3067 375.166L77.9414 379.635H95.2178L98.163 375.166H81.3067Z" fill="url(#paint41_linear_320_28)"/>
<path d="M95.2204 380.259H77.9418C77.7057 380.259 77.4877 380.125 77.3855 379.914C77.281 379.703 77.3037 379.448 77.4422 379.26L80.8099 374.789C80.9279 374.634 81.1119 374.541 81.3094 374.541H98.1634C98.395 374.541 98.6039 374.668 98.7129 374.868C98.8219 375.07 98.8106 375.313 98.6834 375.508L95.7405 379.977C95.6269 380.154 95.4316 380.259 95.2204 380.259ZM79.193 379.014H94.8844L97.0098 375.788H81.6205L79.193 379.014Z" fill="#404040"/>
<path d="M182.446 375.164L183.289 370.695H166.855L165.59 375.164H182.446Z" fill="url(#paint42_linear_320_28)"/>
<path d="M182.449 375.788H165.593C165.397 375.788 165.213 375.697 165.095 375.543C164.977 375.386 164.939 375.184 164.993 374.998L166.253 370.527C166.333 370.259 166.576 370.07 166.857 370.07H183.291C183.477 370.07 183.652 370.154 183.773 370.297C183.891 370.44 183.941 370.629 183.907 370.811L183.062 375.282C183.007 375.577 182.751 375.788 182.449 375.788ZM166.419 374.542H181.931L182.54 371.317H167.325L166.419 374.542Z" fill="#404040"/>
<path d="M148.733 375.168L150.418 370.699H133.982L131.879 375.168H148.733Z" fill="url(#paint43_linear_320_28)"/>
<path d="M148.735 375.79H131.881C131.668 375.79 131.465 375.681 131.354 375.502C131.241 375.32 131.227 375.091 131.316 374.903L133.418 370.429C133.523 370.211 133.741 370.07 133.981 370.07H150.418C150.622 370.07 150.813 370.172 150.933 370.338C151.044 370.509 151.072 370.724 151.001 370.915L149.316 375.389C149.23 375.627 148.994 375.79 148.735 375.79ZM132.864 374.544H148.304L149.516 371.319H134.379L132.864 374.544Z" fill="#404040"/>
<path d="M165.587 375.164L166.852 370.695H150.415L148.73 375.164H165.587Z" fill="url(#paint44_linear_320_28)"/>
<path d="M165.589 375.788H148.733C148.528 375.788 148.337 375.688 148.219 375.52C148.106 375.352 148.076 375.139 148.149 374.948L149.832 370.477C149.922 370.232 150.159 370.07 150.418 370.07H166.854C167.049 370.07 167.233 370.161 167.351 370.318C167.469 370.477 167.508 370.677 167.455 370.865L166.193 375.339C166.113 375.604 165.868 375.788 165.589 375.788ZM149.634 374.542H165.117L166.025 371.317H150.847L149.634 374.542Z" fill="#404040"/>
<path d="M98.1796 375.168L95.2344 379.637H112.511L115.036 375.168H98.1796Z" fill="url(#paint45_linear_320_28)"/>
<path d="M112.507 380.263H95.2312C94.9995 380.263 94.7906 380.133 94.6816 379.936C94.5704 379.736 94.5817 379.49 94.7111 379.3L97.6564 374.826C97.7699 374.654 97.9675 374.547 98.1764 374.547H115.033C115.255 374.547 115.46 374.663 115.573 374.853C115.684 375.044 115.687 375.283 115.575 375.478L113.055 379.949C112.941 380.142 112.735 380.263 112.507 380.263ZM96.387 379.018H112.144L113.963 375.791H98.5125L96.387 379.018Z" fill="#404040"/>
<path d="M131.876 375.168L133.979 370.699H117.542L115.02 375.168H131.876Z" fill="url(#paint46_linear_320_28)"/>
<path d="M131.88 375.79H115.022C114.801 375.79 114.592 375.675 114.483 375.482C114.372 375.291 114.37 375.052 114.479 374.862L117.004 370.388C117.113 370.195 117.322 370.07 117.547 370.07H133.983C134.194 370.07 134.396 370.182 134.51 370.361C134.623 370.538 134.641 370.767 134.548 370.963L132.445 375.429C132.339 375.652 132.123 375.79 131.88 375.79ZM116.091 374.544H131.485L133.002 371.319H117.912L116.091 374.544Z" fill="#404040"/>
<path d="M283.582 375.168L281.895 370.699H265.461L266.724 375.168H283.582Z" fill="url(#paint47_linear_320_28)"/>
<path d="M283.585 375.79H266.725C266.448 375.79 266.202 375.607 266.125 375.339L264.863 370.865C264.81 370.677 264.849 370.477 264.967 370.318C265.081 370.161 265.267 370.07 265.462 370.07H281.896C282.157 370.07 282.389 370.229 282.482 370.477L284.162 374.948C284.237 375.139 284.21 375.352 284.092 375.52C283.981 375.691 283.788 375.79 283.585 375.79ZM267.199 374.544H282.682L281.467 371.319H266.289L267.199 374.544Z" fill="#404040"/>
<path d="M60.6627 379.639L57.1406 383.799H74.8098L77.9413 379.639H60.6627Z" fill="url(#paint48_linear_320_28)"/>
<path d="M74.8122 384.422H57.1431C56.9001 384.422 56.6798 384.281 56.5776 384.061C56.4754 383.841 56.5095 383.584 56.6685 383.393L60.1905 379.238C60.3063 379.095 60.4812 379.018 60.6651 379.018H77.9437C78.1799 379.018 78.3956 379.149 78.5001 379.36C78.6068 379.572 78.5818 379.826 78.4433 380.014L75.3096 384.175C75.1915 384.329 75.0098 384.422 74.8122 384.422ZM58.4896 383.173H74.4989L76.6948 380.262H60.9557L58.4896 383.173Z" fill="#404040"/>
<path d="M77.944 379.633L74.8125 383.793H92.4817L95.2203 379.633H77.944Z" fill="url(#paint49_linear_320_28)"/>
<path d="M92.4847 384.419H74.8155C74.5794 384.419 74.3614 384.285 74.2592 384.073C74.1502 383.858 74.1752 383.608 74.316 383.419L77.4474 379.257C77.5678 379.1 77.7494 379.012 77.947 379.012H95.2256C95.455 379.012 95.6661 379.137 95.7751 379.339C95.8841 379.541 95.8728 379.784 95.7456 379.975L93.0047 384.135C92.8889 384.312 92.6914 384.419 92.4847 384.419ZM76.0645 383.17H92.1464L94.0675 380.258H78.2581L76.0645 383.17Z" fill="#404040"/>
<path d="M129.77 379.639L127.812 383.799H145.482L147.046 379.639H129.77Z" fill="url(#paint50_linear_320_28)"/>
<path d="M145.484 384.422H127.815C127.602 384.422 127.402 384.313 127.288 384.131C127.175 383.952 127.159 383.725 127.252 383.534L129.207 379.374C129.312 379.154 129.53 379.018 129.773 379.018H147.051C147.256 379.018 147.446 379.115 147.564 379.283C147.682 379.451 147.71 379.667 147.635 379.858L146.07 384.018C145.977 384.263 145.743 384.422 145.484 384.422ZM128.803 383.173H145.055L146.15 380.262H130.172L128.803 383.173Z" fill="#404040"/>
<path d="M95.2269 379.635L92.4883 383.795H110.155L112.503 379.635H95.2269Z" fill="url(#paint51_linear_320_28)"/>
<path d="M110.153 384.42H92.4861C92.2544 384.42 92.0455 384.293 91.9365 384.093C91.8253 383.893 91.8343 383.645 91.9638 383.455L94.7046 379.297C94.8205 379.117 95.0158 379.018 95.2269 379.018H112.503C112.728 379.018 112.93 379.133 113.041 379.324C113.155 379.515 113.155 379.751 113.048 379.946L110.7 384.102C110.587 384.297 110.378 384.42 110.153 384.42ZM93.6419 383.171H109.79L111.431 380.26H95.5607L93.6419 383.171Z" fill="#404040"/>
<path d="M112.5 379.639L110.152 383.799H127.819L129.777 379.639H112.5Z" fill="url(#paint52_linear_320_28)"/>
<path d="M127.822 384.422H110.155C109.933 384.422 109.728 384.306 109.619 384.116C109.503 383.92 109.503 383.686 109.61 383.491L111.96 379.331C112.069 379.138 112.276 379.018 112.503 379.018H129.78C129.993 379.018 130.195 379.122 130.306 379.304C130.422 379.483 130.436 379.71 130.345 379.901L128.39 384.061C128.285 384.281 128.067 384.422 127.822 384.422ZM111.222 383.173H127.427L128.796 380.262H112.867L111.222 383.173Z" fill="#404040"/>
<path d="M337.102 379.639L339.838 383.799H357.505L354.376 379.639H337.102Z" fill="url(#paint53_linear_320_28)"/>
<path d="M357.504 384.422H339.837C339.631 384.422 339.431 384.315 339.317 384.141L336.576 379.98C336.449 379.79 336.438 379.547 336.549 379.345C336.656 379.145 336.867 379.018 337.099 379.018H354.375C354.57 379.018 354.756 379.106 354.874 379.263L358.006 383.425C358.147 383.611 358.172 383.864 358.063 384.079C357.961 384.288 357.743 384.422 357.504 384.422ZM340.176 383.173H356.255L354.064 380.262H338.254L340.176 383.173Z" fill="#404040"/>
<path d="M354.383 379.639L357.512 383.799H375.181L371.661 379.639H354.383Z" fill="url(#paint54_linear_320_28)"/>
<path d="M375.181 384.422H357.515C357.319 384.422 357.135 384.327 357.017 384.175L353.886 380.014C353.745 379.826 353.722 379.572 353.827 379.36C353.933 379.149 354.149 379.018 354.385 379.018H371.662C371.846 379.018 372.016 379.095 372.136 379.238L375.661 383.393C375.815 383.584 375.851 383.841 375.749 384.061C375.647 384.281 375.424 384.422 375.181 384.422ZM357.828 383.173H373.837L371.371 380.262H355.632L357.828 383.173Z" fill="#404040"/>
<path d="M375.168 383.793H392.093L388.169 379.633H371.648L375.168 383.793Z" fill="url(#paint55_linear_320_28)"/>
<path d="M392.096 384.419H375.172C374.992 384.419 374.815 384.337 374.697 384.196L371.175 380.036C371.021 379.852 370.982 379.591 371.084 379.373C371.186 379.15 371.409 379.012 371.652 379.012H388.174C388.347 379.012 388.513 379.08 388.629 379.202L392.552 383.365C392.721 383.547 392.77 383.812 392.671 384.037C392.568 384.271 392.346 384.419 392.096 384.419ZM375.462 383.17H390.65L387.906 380.258H372.999L375.462 383.17Z" fill="#404040"/>
<path d="M367.871 375.168L371.659 379.637H388.179L383.964 375.168H367.871Z" fill="url(#paint56_linear_320_28)"/>
<path d="M388.177 380.263H371.655C371.471 380.263 371.296 380.181 371.178 380.042L367.39 375.573C367.233 375.385 367.197 375.126 367.301 374.908C367.401 374.688 367.624 374.547 367.869 374.547H383.962C384.135 374.547 384.298 374.615 384.417 374.744L388.631 379.211C388.801 379.393 388.849 379.658 388.749 379.888C388.656 380.117 388.429 380.263 388.177 380.263ZM371.943 379.018H386.73L383.692 375.791H369.213L371.943 379.018Z" fill="#404040"/>
<path d="M319.82 379.639L322.171 383.799H339.838L337.101 379.639H319.82Z" fill="url(#paint57_linear_320_28)"/>
<path d="M339.839 384.422H322.172C321.947 384.422 321.738 384.3 321.629 384.102L319.276 379.946C319.172 379.751 319.172 379.513 319.286 379.324C319.397 379.133 319.599 379.018 319.821 379.018H337.102C337.309 379.018 337.507 379.117 337.622 379.297L340.363 383.455C340.488 383.646 340.502 383.893 340.388 384.093C340.279 384.295 340.07 384.422 339.839 384.422ZM322.535 383.173H338.683L336.764 380.262H320.891L322.535 383.173Z" fill="#404040"/>
<path d="M285.27 379.639L286.832 383.799H304.503L302.548 379.639H285.27Z" fill="url(#paint58_linear_320_28)"/>
<path d="M304.5 384.422H286.828C286.57 384.422 286.336 384.263 286.245 384.018L284.683 379.858C284.608 379.665 284.635 379.451 284.751 379.283C284.869 379.118 285.06 379.018 285.266 379.018H302.545C302.783 379.018 303.006 379.154 303.108 379.374L305.063 383.534C305.154 383.727 305.138 383.954 305.027 384.131C304.913 384.313 304.711 384.422 304.5 384.422ZM287.26 383.173H303.514L302.147 380.262H286.168L287.26 383.173Z" fill="#404040"/>
<path d="M285.263 379.633H267.984H250.708H233.429H216.153H198.876H181.6H164.324H147.045L145.48 383.793H163.147H180.817H198.484H216.153H233.822H251.489H269.16H286.825L285.263 379.633Z" fill="url(#paint59_linear_320_28)"/>
<path d="M286.829 384.419H145.484C145.28 384.419 145.087 384.319 144.971 384.151C144.853 383.98 144.828 383.765 144.898 383.574L146.463 379.411C146.556 379.171 146.788 379.012 147.047 379.012H285.262C285.521 379.012 285.752 379.171 285.843 379.411L287.41 383.574C287.481 383.765 287.456 383.98 287.337 384.151C287.226 384.319 287.035 384.419 286.829 384.419ZM146.386 383.17H285.927L284.83 380.258H147.485L146.386 383.17Z" fill="#404040"/>
<path d="M302.539 379.635L304.494 383.795H322.161L319.811 379.635H302.539Z" fill="url(#paint60_linear_320_28)"/>
<path d="M322.165 384.42H304.498C304.253 384.42 304.037 384.279 303.933 384.061L301.977 379.901C301.887 379.708 301.9 379.483 302.016 379.304C302.132 379.122 302.329 379.018 302.543 379.018H319.815C320.044 379.018 320.251 379.136 320.36 379.331L322.708 383.491C322.817 383.686 322.814 383.92 322.703 384.116C322.592 384.304 322.385 384.42 322.165 384.42ZM304.893 383.171H321.098L319.449 380.26H303.524L304.893 383.171Z" fill="#404040"/>
<path d="M314.779 370.697L312.96 367.477H296.828L298.343 370.697H314.779Z" fill="url(#paint61_linear_320_28)"/>
<path d="M314.776 371.321H298.34C298.094 371.321 297.879 371.18 297.774 370.962L296.26 367.742C296.166 367.549 296.182 367.322 296.298 367.14C296.409 366.958 296.609 366.852 296.823 366.852H312.955C313.179 366.852 313.388 366.972 313.497 367.167L315.314 370.387C315.423 370.58 315.423 370.814 315.309 371.012C315.203 371.202 314.996 371.321 314.776 371.321ZM298.737 370.069H313.706L312.594 368.101H297.806L298.737 370.069Z" fill="#404040"/>
<path d="M249.035 370.7L248.429 367.48H232.297L232.597 370.7H249.035Z" fill="url(#paint62_linear_320_28)"/>
<path d="M249.033 371.322H232.595C232.275 371.322 232.007 371.077 231.975 370.754L231.671 367.534C231.655 367.36 231.714 367.187 231.832 367.06C231.95 366.928 232.118 366.855 232.295 366.855H248.427C248.727 366.855 248.983 367.067 249.042 367.36L249.646 370.58C249.683 370.759 249.63 370.952 249.515 371.093C249.394 371.238 249.219 371.322 249.033 371.322ZM233.165 370.071H248.279L247.907 368.102H232.978L233.165 370.071Z" fill="#404040"/>
<path d="M232.59 370.7L232.29 367.48H216.156V370.7H232.59Z" fill="url(#paint63_linear_320_28)"/>
<path d="M232.594 371.322H216.16C215.817 371.322 215.535 371.041 215.535 370.7V367.48C215.535 367.135 215.819 366.855 216.16 366.855H232.294C232.614 366.855 232.884 367.101 232.914 367.419L233.218 370.639C233.234 370.813 233.173 370.986 233.057 371.115C232.936 371.245 232.773 371.322 232.594 371.322ZM216.786 370.071H231.91L231.724 368.102H216.786V370.071Z" fill="#404040"/>
<path d="M216.164 370.7V367.48H200.032L199.73 370.7H216.164Z" fill="url(#paint64_linear_320_28)"/>
<path d="M216.162 371.322H199.726C199.549 371.322 199.383 371.245 199.265 371.115C199.147 370.986 199.088 370.813 199.104 370.639L199.408 367.419C199.438 367.101 199.708 366.855 200.028 366.855H216.16C216.505 366.855 216.787 367.135 216.787 367.48V370.7C216.789 371.038 216.508 371.322 216.162 371.322ZM200.412 370.071H215.536V368.102H200.598L200.412 370.071Z" fill="#404040"/>
<path d="M199.725 370.697L200.027 367.477H183.893L183.289 370.697H199.725Z" fill="url(#paint65_linear_320_28)"/>
<path d="M199.729 371.32H183.292C183.106 371.32 182.931 371.236 182.813 371.093C182.695 370.952 182.643 370.761 182.679 370.58L183.286 367.36C183.345 367.064 183.601 366.855 183.899 366.855H200.033C200.208 366.855 200.376 366.928 200.496 367.06C200.614 367.187 200.671 367.36 200.655 367.534L200.351 370.754C200.319 371.075 200.051 371.32 199.729 371.32ZM184.046 370.069H199.159L199.343 368.1H184.414L184.046 370.069Z" fill="#404040"/>
<path d="M298.334 370.7L296.819 367.48H280.688L281.896 370.7H298.334Z" fill="url(#paint66_linear_320_28)"/>
<path d="M298.338 371.322H281.899C281.64 371.322 281.407 371.161 281.318 370.916L280.105 367.696C280.035 367.505 280.06 367.289 280.18 367.123C280.296 366.955 280.487 366.855 280.694 366.855H296.825C297.068 366.855 297.286 366.994 297.389 367.214L298.903 370.43C298.994 370.625 298.98 370.852 298.867 371.029C298.751 371.211 298.553 371.322 298.338 371.322ZM282.333 370.071H297.354L296.428 368.102H281.595L282.333 370.071Z" fill="#404040"/>
<path d="M265.474 370.697L264.565 367.477H248.434L249.04 370.697H265.474Z" fill="url(#paint67_linear_320_28)"/>
<path d="M265.472 371.32H249.038C248.738 371.32 248.479 371.106 248.423 370.811L247.816 367.591C247.78 367.41 247.83 367.223 247.948 367.08C248.071 366.935 248.243 366.855 248.429 366.855H264.561C264.841 366.855 265.088 367.039 265.163 367.31L266.074 370.53C266.126 370.718 266.085 370.918 265.969 371.075C265.853 371.229 265.669 371.32 265.472 371.32ZM249.556 370.069H264.65L264.091 368.1H249.186L249.556 370.069Z" fill="#404040"/>
<path d="M183.293 370.7L183.897 367.48H167.768L166.859 370.7H183.293Z" fill="url(#paint68_linear_320_28)"/>
<path d="M183.29 371.322H166.856C166.659 371.322 166.475 371.231 166.359 371.075C166.239 370.918 166.202 370.718 166.252 370.53L167.163 367.31C167.238 367.042 167.483 366.855 167.765 366.855H183.896C184.085 366.855 184.257 366.935 184.38 367.08C184.496 367.226 184.544 367.412 184.512 367.591L183.908 370.811C183.849 371.106 183.59 371.322 183.29 371.322ZM167.678 370.071H182.77L183.143 368.102H168.235L167.678 370.071Z" fill="#404040"/>
<path d="M331.204 370.7L329.087 367.48H312.953L314.772 370.7H331.204Z" fill="url(#paint69_linear_320_28)"/>
<path d="M331.206 371.322H314.775C314.55 371.322 314.339 371.197 314.23 371.004L312.413 367.784C312.304 367.593 312.304 367.355 312.418 367.164C312.529 366.974 312.736 366.855 312.956 366.855H329.088C329.297 366.855 329.494 366.96 329.608 367.135L331.729 370.353C331.858 370.543 331.867 370.793 331.756 370.991C331.649 371.195 331.438 371.322 331.206 371.322ZM315.14 370.071H330.053L328.752 368.102H314.026L315.14 370.071Z" fill="#404040"/>
<path d="M281.901 370.7L280.693 367.48H264.559L265.467 370.7H281.901Z" fill="url(#paint70_linear_320_28)"/>
<path d="M281.897 371.322H265.463C265.184 371.322 264.939 371.134 264.862 370.866L263.953 367.648C263.901 367.457 263.935 367.26 264.058 367.101C264.174 366.949 264.358 366.855 264.553 366.855H280.687C280.944 366.855 281.18 367.014 281.271 367.257L282.481 370.477C282.551 370.668 282.524 370.884 282.408 371.054C282.297 371.22 282.104 371.322 281.897 371.322ZM265.936 370.071H280.996L280.255 368.102H265.379L265.936 370.071Z" fill="#404040"/>
<path d="M166.862 370.7L167.77 367.48H151.636L150.426 370.7H166.862Z" fill="url(#paint71_linear_320_28)"/>
<path d="M166.86 371.322H150.424C150.217 371.322 150.027 371.22 149.911 371.054C149.79 370.884 149.765 370.668 149.836 370.477L151.048 367.257C151.139 367.014 151.371 366.855 151.63 366.855H167.764C167.959 366.855 168.143 366.946 168.259 367.101C168.377 367.26 168.416 367.46 168.363 367.648L167.455 370.866C167.385 371.134 167.137 371.322 166.86 371.322ZM151.325 370.071H166.388L166.946 368.102H152.07L151.325 370.071Z" fill="#404040"/>
<path d="M68.2373 370.695H51.3106L47.0938 375.164H64.4473L68.2373 370.695Z" fill="url(#paint72_linear_320_28)"/>
<path d="M64.4514 375.788H47.0978C46.8503 375.788 46.6255 375.641 46.5233 375.414C46.4256 375.184 46.4711 374.921 46.6436 374.739L50.8605 370.268C50.9786 370.143 51.1421 370.07 51.3124 370.07H68.2391C68.4798 370.07 68.7023 370.211 68.8045 370.431C68.9067 370.652 68.8726 370.913 68.7159 371.099L64.926 375.573C64.8124 375.706 64.6376 375.788 64.4514 375.788ZM48.542 374.542H64.163L66.8948 371.317H51.5804L48.542 374.542Z" fill="#404040"/>
<path d="M70.9641 367.48H54.3486L51.3125 370.7H68.2391L70.9641 367.48Z" fill="url(#paint73_linear_320_28)"/>
<path d="M68.2426 371.322H51.3159C51.0684 371.322 50.8413 371.175 50.7414 370.943C50.6438 370.718 50.6915 370.452 50.864 370.271L53.8956 367.051C54.0159 366.926 54.1794 366.855 54.352 366.855H70.9675C71.2128 366.855 71.4308 366.999 71.533 367.214C71.6374 367.437 71.6011 367.696 71.4421 367.882L68.7194 371.102C68.5968 371.24 68.4242 371.322 68.2426 371.322ZM52.7624 370.071H67.9519L69.6187 368.102H54.6177L52.7624 370.071Z" fill="#404040"/>
<path d="M64.4471 375.168H47.0935L42.8789 379.637H60.6616L64.4471 375.168Z" fill="url(#paint74_linear_320_28)"/>
<path d="M60.6646 380.263H42.8819C42.6298 380.263 42.4073 380.117 42.3096 379.888C42.2097 379.656 42.2574 379.393 42.4255 379.211L46.6424 374.744C46.7604 374.615 46.9239 374.547 47.0965 374.547H64.4501C64.6953 374.547 64.9156 374.688 65.0178 374.908C65.1177 375.128 65.0836 375.385 64.9247 375.573L61.1415 380.042C61.0234 380.183 60.8486 380.263 60.6646 380.263ZM44.3261 379.018H60.3762L63.1058 375.791H47.3668L44.3261 379.018Z" fill="#404040"/>
<path d="M84.6761 370.697L87.1013 367.477H70.9672L68.2422 370.697H84.6761Z" fill="url(#paint75_linear_320_28)"/>
<path d="M84.6789 371.32H68.245C68.002 371.32 67.7795 371.179 67.6796 370.959C67.5751 370.739 67.6137 370.48 67.7704 370.293L70.4954 367.073C70.6135 366.935 70.786 366.855 70.97 366.855H87.1041C87.3357 366.855 87.556 366.987 87.6582 367.201C87.7649 367.412 87.7422 367.666 87.6014 367.855L85.1762 371.075C85.0604 371.227 84.8742 371.32 84.6789 371.32ZM69.5893 370.069H84.3655L85.8484 368.1H71.2584L69.5893 370.069Z" fill="#404040"/>
<path d="M133.987 370.7L135.502 367.48H119.37L117.551 370.7H133.987Z" fill="url(#paint76_linear_320_28)"/>
<path d="M133.988 371.322H117.552C117.332 371.322 117.125 371.204 117.014 371.016C116.902 370.818 116.902 370.586 117.009 370.391L118.826 367.171C118.937 366.976 119.146 366.855 119.371 366.855H135.503C135.716 366.855 135.916 366.962 136.03 367.144C136.145 367.326 136.157 367.553 136.068 367.746L134.553 370.966C134.449 371.181 134.233 371.322 133.988 371.322ZM118.621 370.071H133.591L134.522 368.102H119.734L118.621 370.071Z" fill="#404040"/>
<path d="M101.116 370.697L103.237 367.477H87.1049L84.6797 370.697H101.116Z" fill="url(#paint77_linear_320_28)"/>
<path d="M101.119 371.32H84.6829C84.4467 371.32 84.231 371.186 84.1243 370.972C84.0198 370.761 84.0403 370.509 84.1833 370.318L86.6063 367.103C86.7244 366.946 86.9083 366.855 87.1081 366.855H103.24C103.469 366.855 103.681 366.98 103.79 367.18C103.899 367.385 103.887 367.63 103.762 367.821L101.644 371.038C101.523 371.211 101.326 371.32 101.119 371.32ZM85.9341 370.069H100.781L102.08 368.1H87.4147L85.9341 370.069Z" fill="#404040"/>
<path d="M150.421 370.7L151.631 367.48H135.499L133.984 370.7H150.421Z" fill="url(#paint78_linear_320_28)"/>
<path d="M150.422 371.322H133.986C133.773 371.322 133.573 371.211 133.459 371.029C133.346 370.852 133.332 370.625 133.423 370.43L134.938 367.214C135.042 366.994 135.26 366.855 135.503 366.855H151.635C151.841 366.855 152.03 366.955 152.148 367.123C152.266 367.289 152.293 367.505 152.218 367.696L151.008 370.916C150.913 371.161 150.681 371.322 150.422 371.322ZM134.969 370.071H149.988L150.731 368.102H135.896L134.969 370.071Z" fill="#404040"/>
<path d="M42.8849 379.639L38.9609 383.799H57.1456L60.6676 379.639H42.8849Z" fill="url(#paint79_linear_320_28)"/>
<path d="M57.1492 384.422H38.9646C38.7148 384.422 38.49 384.275 38.39 384.043C38.2924 383.816 38.3401 383.55 38.5081 383.371L42.4298 379.208C42.5502 379.086 42.7137 379.018 42.8862 379.018H60.669C60.912 379.018 61.1322 379.156 61.2367 379.374C61.3366 379.594 61.3025 379.858 61.1459 380.042L57.6216 384.202C57.508 384.343 57.3332 384.422 57.1492 384.422ZM40.4133 383.173H56.8608L59.3269 380.262H43.1542L40.4133 383.173Z" fill="#404040"/>
<path d="M117.547 370.697L119.366 367.477H103.234L101.113 370.697H117.547Z" fill="url(#paint80_linear_320_28)"/>
<path d="M117.551 371.32H101.117C100.887 371.32 100.674 371.193 100.57 370.991C100.458 370.791 100.467 370.541 100.595 370.353L102.715 367.135C102.829 366.96 103.027 366.855 103.236 366.855H119.367C119.588 366.855 119.794 366.974 119.906 367.164C120.019 367.355 120.019 367.593 119.91 367.784L118.091 371.004C117.982 371.195 117.776 371.32 117.551 371.32ZM102.275 370.069H117.187L118.3 368.1H103.574L102.275 370.069Z" fill="#404040"/>
<path opacity="0.5" d="M44.8828 381.718L57.1497 369.086H351.013L44.8828 381.718Z" fill="url(#paint81_linear_320_28)"/>
<path d="M60.1758 407.347C60.1758 407.347 79.5958 407.256 108.723 407.122C137.853 407.068 176.691 406.997 215.529 406.932C254.367 407 293.207 407.068 322.334 407.122C351.464 407.256 370.882 407.347 370.882 407.347C370.882 407.347 351.464 407.436 322.334 407.572C293.207 407.624 254.367 407.692 215.529 407.76C176.691 407.692 137.853 407.624 108.723 407.57C79.5958 407.434 60.1758 407.347 60.1758 407.347Z" fill="white"/>
<path d="M163.207 399.355L164.158 403.445C164.399 403.677 164.647 403.97 165.062 403.97H266C266.413 403.97 266.663 403.677 266.901 403.445L267.851 399.355H163.207Z" fill="url(#paint82_linear_320_28)"/>
<path d="M4.85938 399.183C4.85938 399.183 31.194 399.097 70.6948 398.963C110.193 398.908 162.865 398.838 215.534 398.77C268.201 398.838 320.87 398.908 360.373 398.963C399.876 399.097 426.211 399.183 426.211 399.183C426.211 399.183 399.876 399.274 360.373 399.408C320.87 399.462 268.203 399.53 215.534 399.598C162.865 399.533 110.196 399.462 70.6948 399.408C31.1963 399.274 4.85938 399.183 4.85938 399.183Z" fill="white"/>
<path d="M9.06823 401.023H8.37109V405.769H9.06823V401.023Z" fill="#404040"/>
<path d="M11.0621 401.023H10.3672V405.769H11.0621V401.023Z" fill="#404040"/>
<path d="M13.0503 401.023H12.3555V405.769H13.0503V401.023Z" fill="#404040"/>
<path d="M15.0464 401.023H14.3516V405.769H15.0464V401.023Z" fill="#404040"/>
<path d="M17.0363 401.023H16.3438V405.769H17.0363V401.023Z" fill="#404040"/>
<path d="M19.0347 401.023H18.3398V405.769H19.0347V401.023Z" fill="#404040"/>
<path d="M21.0308 401.023H20.3359V405.769H21.0308V401.023Z" fill="#404040"/>
<path d="M23.0191 401.023H22.3242V405.769H23.0191V401.023Z" fill="#404040"/>
<path d="M25.0152 401.023H24.3203V405.769H25.0152V401.023Z" fill="#404040"/>
<path d="M27.0113 401.023H26.3164V405.769H27.0113V401.023Z" fill="#404040"/>
<path d="M28.9973 401.023H28.3047V405.769H28.9973V401.023Z" fill="#404040"/>
<path d="M30.9917 401.023H30.2969V405.769H30.9917V401.023Z" fill="#404040"/>
<path d="M32.9856 401.023H32.293V405.769H32.9856V401.023Z" fill="#404040"/>
<path d="M34.9761 401.023H34.2812V405.769H34.9761V401.023Z" fill="#404040"/>
<path d="M36.9722 401.023H36.2773V405.769H36.9722V401.023Z" fill="#404040"/>
<path d="M38.9683 401.023H38.2734V405.769H38.9683V401.023Z" fill="#404040"/>
</g>
<defs>
<linearGradient id="paint0_linear_320_28" x1="140.319" y1="318.912" x2="140.319" y2="-1.37082" gradientUnits="userSpaceOnUse">
<stop offset="0.00077726" stop-color="#676767"/>
<stop offset="0.169" stop-color="#5D5D5D"/>
<stop offset="0.452" stop-color="#434343"/>
<stop offset="0.813" stop-color="#191919"/>
<stop offset="1"/>
</linearGradient>
<linearGradient id="paint1_linear_320_28" x1="279.686" y1="50.1776" x2="325.439" y2="495.227" gradientUnits="userSpaceOnUse">
<stop offset="0.00077726" stop-color="#676767"/>
<stop offset="0.169" stop-color="#5D5D5D"/>
<stop offset="0.452" stop-color="#434343"/>
<stop offset="0.813" stop-color="#191919"/>
<stop offset="1"/>
</linearGradient>
<linearGradient id="paint2_linear_320_28" x1="215.534" y1="323.907" x2="215.534" y2="441.024" gradientUnits="userSpaceOnUse">
<stop stop-color="#D9D9D9"/>
<stop offset="0.0961" stop-color="#CFCFCF"/>
<stop offset="0.2579" stop-color="#B5B5B5"/>
<stop offset="0.4657" stop-color="#8A8A8A"/>
<stop offset="0.7114" stop-color="#4F4F4F"/>
<stop offset="0.9863" stop-color="#040404"/>
<stop offset="1"/>
</linearGradient>
<linearGradient id="paint3_linear_320_28" x1="215.539" y1="366.602" x2="215.539" y2="429.352" gradientUnits="userSpaceOnUse">
<stop stop-color="#D9D9D9"/>
<stop offset="0.0961" stop-color="#CFCFCF"/>
<stop offset="0.2579" stop-color="#B5B5B5"/>
<stop offset="0.4657" stop-color="#8A8A8A"/>
<stop offset="0.7114" stop-color="#4F4F4F"/>
<stop offset="0.9863" stop-color="#040404"/>
<stop offset="1"/>
</linearGradient>
<linearGradient id="paint4_linear_320_28" x1="215.539" y1="366.602" x2="215.539" y2="429.352" gradientUnits="userSpaceOnUse">
<stop stop-color="#D9D9D9"/>
<stop offset="0.0961" stop-color="#CFCFCF"/>
<stop offset="0.2579" stop-color="#B5B5B5"/>
<stop offset="0.4657" stop-color="#8A8A8A"/>
<stop offset="0.7114" stop-color="#4F4F4F"/>
<stop offset="0.9863" stop-color="#040404"/>
<stop offset="1"/>
</linearGradient>
<linearGradient id="paint5_linear_320_28" x1="215.532" y1="424.14" x2="215.532" y2="324.714" gradientUnits="userSpaceOnUse">
<stop stop-color="#D9D9D9"/>
<stop offset="0.0961" stop-color="#CFCFCF"/>
<stop offset="0.2579" stop-color="#B5B5B5"/>
<stop offset="0.4657" stop-color="#8A8A8A"/>
<stop offset="0.7114" stop-color="#4F4F4F"/>
<stop offset="0.9863" stop-color="#040404"/>
<stop offset="1"/>
</linearGradient>
<linearGradient id="paint6_linear_320_28" x1="215.112" y1="418.183" x2="215.112" y2="368.267" gradientUnits="userSpaceOnUse">
<stop stop-color="#D9D9D9"/>
<stop offset="0.0961" stop-color="#CFCFCF"/>
<stop offset="0.2579" stop-color="#B5B5B5"/>
<stop offset="0.4657" stop-color="#8A8A8A"/>
<stop offset="0.7114" stop-color="#4F4F4F"/>
<stop offset="0.9863" stop-color="#040404"/>
<stop offset="1"/>
</linearGradient>
<linearGradient id="paint7_linear_320_28" x1="215.112" y1="418.183" x2="215.112" y2="368.267" gradientUnits="userSpaceOnUse">
<stop stop-color="#D9D9D9"/>
<stop offset="0.0961" stop-color="#CFCFCF"/>
<stop offset="0.2579" stop-color="#B5B5B5"/>
<stop offset="0.4657" stop-color="#8A8A8A"/>
<stop offset="0.7114" stop-color="#4F4F4F"/>
<stop offset="0.9863" stop-color="#040404"/>
<stop offset="1"/>
</linearGradient>
<linearGradient id="paint8_linear_320_28" x1="224.795" y1="433.698" x2="224.795" y2="352.135" gradientUnits="userSpaceOnUse">
<stop stop-color="#D9D9D9"/>
<stop offset="0.0961" stop-color="#CFCFCF"/>
<stop offset="0.2579" stop-color="#B5B5B5"/>
<stop offset="0.4657" stop-color="#8A8A8A"/>
<stop offset="0.7114" stop-color="#4F4F4F"/>
<stop offset="0.9863" stop-color="#040404"/>
<stop offset="1"/>
</linearGradient>
<linearGradient id="paint9_linear_320_28" x1="139.252" y1="433.698" x2="139.252" y2="352.135" gradientUnits="userSpaceOnUse">
<stop stop-color="#D9D9D9"/>
<stop offset="0.0961" stop-color="#CFCFCF"/>
<stop offset="0.2579" stop-color="#B5B5B5"/>
<stop offset="0.4657" stop-color="#8A8A8A"/>
<stop offset="0.7114" stop-color="#4F4F4F"/>
<stop offset="0.9863" stop-color="#040404"/>
<stop offset="1"/>
</linearGradient>
<linearGradient id="paint10_linear_320_28" x1="207.521" y1="433.7" x2="207.521" y2="352.137" gradientUnits="userSpaceOnUse">
<stop stop-color="#D9D9D9"/>
<stop offset="0.0961" stop-color="#CFCFCF"/>
<stop offset="0.2579" stop-color="#B5B5B5"/>
<stop offset="0.4657" stop-color="#8A8A8A"/>
<stop offset="0.7114" stop-color="#4F4F4F"/>
<stop offset="0.9863" stop-color="#040404"/>
<stop offset="1"/>
</linearGradient>
<linearGradient id="paint11_linear_320_28" x1="258.933" y1="433.698" x2="258.933" y2="352.135" gradientUnits="userSpaceOnUse">
<stop stop-color="#D9D9D9"/>
<stop offset="0.0961" stop-color="#CFCFCF"/>
<stop offset="0.2579" stop-color="#B5B5B5"/>
<stop offset="0.4657" stop-color="#8A8A8A"/>
<stop offset="0.7114" stop-color="#4F4F4F"/>
<stop offset="0.9863" stop-color="#040404"/>
<stop offset="1"/>
</linearGradient>
<linearGradient id="paint12_linear_320_28" x1="338.366" y1="433.728" x2="338.366" y2="352.128" gradientUnits="userSpaceOnUse">
<stop stop-color="#D9D9D9"/>
<stop offset="0.0961" stop-color="#CFCFCF"/>
<stop offset="0.2579" stop-color="#B5B5B5"/>
<stop offset="0.4657" stop-color="#8A8A8A"/>
<stop offset="0.7114" stop-color="#4F4F4F"/>
<stop offset="0.9863" stop-color="#040404"/>
<stop offset="1"/>
</linearGradient>
<linearGradient id="paint13_linear_320_28" x1="156.321" y1="433.7" x2="156.321" y2="352.137" gradientUnits="userSpaceOnUse">
<stop stop-color="#D9D9D9"/>
<stop offset="0.0961" stop-color="#CFCFCF"/>
<stop offset="0.2579" stop-color="#B5B5B5"/>
<stop offset="0.4657" stop-color="#8A8A8A"/>
<stop offset="0.7114" stop-color="#4F4F4F"/>
<stop offset="0.9863" stop-color="#040404"/>
<stop offset="1"/>
</linearGradient>
<linearGradient id="paint14_linear_320_28" x1="276.004" y1="433.698" x2="276.004" y2="352.135" gradientUnits="userSpaceOnUse">
<stop stop-color="#D9D9D9"/>
<stop offset="0.0961" stop-color="#CFCFCF"/>
<stop offset="0.2579" stop-color="#B5B5B5"/>
<stop offset="0.4657" stop-color="#8A8A8A"/>
<stop offset="0.7114" stop-color="#4F4F4F"/>
<stop offset="0.9863" stop-color="#040404"/>
<stop offset="1"/>
</linearGradient>
<linearGradient id="paint15_linear_320_28" x1="173.391" y1="433.7" x2="173.391" y2="352.137" gradientUnits="userSpaceOnUse">
<stop stop-color="#D9D9D9"/>
<stop offset="0.0961" stop-color="#CFCFCF"/>
<stop offset="0.2579" stop-color="#B5B5B5"/>
<stop offset="0.4657" stop-color="#8A8A8A"/>
<stop offset="0.7114" stop-color="#4F4F4F"/>
<stop offset="0.9863" stop-color="#040404"/>
<stop offset="1"/>
</linearGradient>
<linearGradient id="paint16_linear_320_28" x1="190.455" y1="433.698" x2="190.455" y2="352.135" gradientUnits="userSpaceOnUse">
<stop stop-color="#D9D9D9"/>
<stop offset="0.0961" stop-color="#CFCFCF"/>
<stop offset="0.2579" stop-color="#B5B5B5"/>
<stop offset="0.4657" stop-color="#8A8A8A"/>
<stop offset="0.7114" stop-color="#4F4F4F"/>
<stop offset="0.9863" stop-color="#040404"/>
<stop offset="1"/>
</linearGradient>
<linearGradient id="paint17_linear_320_28" x1="361.333" y1="433.698" x2="361.333" y2="352.135" gradientUnits="userSpaceOnUse">
<stop stop-color="#D9D9D9"/>
<stop offset="0.0961" stop-color="#CFCFCF"/>
<stop offset="0.2579" stop-color="#B5B5B5"/>
<stop offset="0.4657" stop-color="#8A8A8A"/>
<stop offset="0.7114" stop-color="#4F4F4F"/>
<stop offset="0.9863" stop-color="#040404"/>
<stop offset="1"/>
</linearGradient>
<linearGradient id="paint18_linear_320_28" x1="293.066" y1="433.7" x2="293.066" y2="352.137" gradientUnits="userSpaceOnUse">
<stop stop-color="#D9D9D9"/>
<stop offset="0.0961" stop-color="#CFCFCF"/>
<stop offset="0.2579" stop-color="#B5B5B5"/>
<stop offset="0.4657" stop-color="#8A8A8A"/>
<stop offset="0.7114" stop-color="#4F4F4F"/>
<stop offset="0.9863" stop-color="#040404"/>
<stop offset="1"/>
</linearGradient>
<linearGradient id="paint19_linear_320_28" x1="374.025" y1="433.679" x2="374.025" y2="352.146" gradientUnits="userSpaceOnUse">
<stop stop-color="#D9D9D9"/>
<stop offset="0.0961" stop-color="#CFCFCF"/>
<stop offset="0.2579" stop-color="#B5B5B5"/>
<stop offset="0.4657" stop-color="#8A8A8A"/>
<stop offset="0.7114" stop-color="#4F4F4F"/>
<stop offset="0.9863" stop-color="#040404"/>
<stop offset="1"/>
</linearGradient>
<linearGradient id="paint20_linear_320_28" x1="357.759" y1="433.675" x2="357.759" y2="352.142" gradientUnits="userSpaceOnUse">
<stop stop-color="#D9D9D9"/>
<stop offset="0.0961" stop-color="#CFCFCF"/>
<stop offset="0.2579" stop-color="#B5B5B5"/>
<stop offset="0.4657" stop-color="#8A8A8A"/>
<stop offset="0.7114" stop-color="#4F4F4F"/>
<stop offset="0.9863" stop-color="#040404"/>
<stop offset="1"/>
</linearGradient>
<linearGradient id="paint21_linear_320_28" x1="354.646" y1="433.732" x2="354.646" y2="352.132" gradientUnits="userSpaceOnUse">
<stop stop-color="#D9D9D9"/>
<stop offset="0.0961" stop-color="#CFCFCF"/>
<stop offset="0.2579" stop-color="#B5B5B5"/>
<stop offset="0.4657" stop-color="#8A8A8A"/>
<stop offset="0.7114" stop-color="#4F4F4F"/>
<stop offset="0.9863" stop-color="#040404"/>
<stop offset="1"/>
</linearGradient>
<linearGradient id="paint22_linear_320_28" x1="370.552" y1="433.732" x2="370.552" y2="352.132" gradientUnits="userSpaceOnUse">
<stop stop-color="#D9D9D9"/>
<stop offset="0.0961" stop-color="#CFCFCF"/>
<stop offset="0.2579" stop-color="#B5B5B5"/>
<stop offset="0.4657" stop-color="#8A8A8A"/>
<stop offset="0.7114" stop-color="#4F4F4F"/>
<stop offset="0.9863" stop-color="#040404"/>
<stop offset="1"/>
</linearGradient>
<linearGradient id="paint23_linear_320_28" x1="122.195" y1="433.7" x2="122.195" y2="352.137" gradientUnits="userSpaceOnUse">
<stop stop-color="#D9D9D9"/>
<stop offset="0.0961" stop-color="#CFCFCF"/>
<stop offset="0.2579" stop-color="#B5B5B5"/>
<stop offset="0.4657" stop-color="#8A8A8A"/>
<stop offset="0.7114" stop-color="#4F4F4F"/>
<stop offset="0.9863" stop-color="#040404"/>
<stop offset="1"/>
</linearGradient>
<linearGradient id="paint24_linear_320_28" x1="327.195" y1="433.7" x2="327.195" y2="352.137" gradientUnits="userSpaceOnUse">
<stop stop-color="#D9D9D9"/>
<stop offset="0.0961" stop-color="#CFCFCF"/>
<stop offset="0.2579" stop-color="#B5B5B5"/>
<stop offset="0.4657" stop-color="#8A8A8A"/>
<stop offset="0.7114" stop-color="#4F4F4F"/>
<stop offset="0.9863" stop-color="#040404"/>
<stop offset="1"/>
</linearGradient>
<linearGradient id="paint25_linear_320_28" x1="310.132" y1="433.7" x2="310.132" y2="352.137" gradientUnits="userSpaceOnUse">
<stop stop-color="#D9D9D9"/>
<stop offset="0.0961" stop-color="#CFCFCF"/>
<stop offset="0.2579" stop-color="#B5B5B5"/>
<stop offset="0.4657" stop-color="#8A8A8A"/>
<stop offset="0.7114" stop-color="#4F4F4F"/>
<stop offset="0.9863" stop-color="#040404"/>
<stop offset="1"/>
</linearGradient>
<linearGradient id="paint26_linear_320_28" x1="344.264" y1="433.698" x2="344.264" y2="352.135" gradientUnits="userSpaceOnUse">
<stop stop-color="#D9D9D9"/>
<stop offset="0.0961" stop-color="#CFCFCF"/>
<stop offset="0.2579" stop-color="#B5B5B5"/>
<stop offset="0.4657" stop-color="#8A8A8A"/>
<stop offset="0.7114" stop-color="#4F4F4F"/>
<stop offset="0.9863" stop-color="#040404"/>
<stop offset="1"/>
</linearGradient>
<linearGradient id="paint27_linear_320_28" x1="241.865" y1="433.698" x2="241.865" y2="352.135" gradientUnits="userSpaceOnUse">
<stop stop-color="#D9D9D9"/>
<stop offset="0.0961" stop-color="#CFCFCF"/>
<stop offset="0.2579" stop-color="#B5B5B5"/>
<stop offset="0.4657" stop-color="#8A8A8A"/>
<stop offset="0.7114" stop-color="#4F4F4F"/>
<stop offset="0.9863" stop-color="#040404"/>
<stop offset="1"/>
</linearGradient>
<linearGradient id="paint28_linear_320_28" x1="224.585" y1="433.675" x2="224.585" y2="352.142" gradientUnits="userSpaceOnUse">
<stop stop-color="#D9D9D9"/>
<stop offset="0.0961" stop-color="#CFCFCF"/>
<stop offset="0.2579" stop-color="#B5B5B5"/>
<stop offset="0.4657" stop-color="#8A8A8A"/>
<stop offset="0.7114" stop-color="#4F4F4F"/>
<stop offset="0.9863" stop-color="#040404"/>
<stop offset="1"/>
</linearGradient>
<linearGradient id="paint29_linear_320_28" x1="241.23" y1="433.675" x2="241.23" y2="352.142" gradientUnits="userSpaceOnUse">
<stop stop-color="#D9D9D9"/>
<stop offset="0.0961" stop-color="#CFCFCF"/>
<stop offset="0.2579" stop-color="#B5B5B5"/>
<stop offset="0.4657" stop-color="#8A8A8A"/>
<stop offset="0.7114" stop-color="#4F4F4F"/>
<stop offset="0.9863" stop-color="#040404"/>
<stop offset="1"/>
</linearGradient>
<linearGradient id="paint30_linear_320_28" x1="207.732" y1="433.675" x2="207.732" y2="352.142" gradientUnits="userSpaceOnUse">
<stop stop-color="#D9D9D9"/>
<stop offset="0.0961" stop-color="#CFCFCF"/>
<stop offset="0.2579" stop-color="#B5B5B5"/>
<stop offset="0.4657" stop-color="#8A8A8A"/>
<stop offset="0.7114" stop-color="#4F4F4F"/>
<stop offset="0.9863" stop-color="#040404"/>
<stop offset="1"/>
</linearGradient>
<linearGradient id="paint31_linear_320_28" x1="191.085" y1="433.675" x2="191.085" y2="352.142" gradientUnits="userSpaceOnUse">
<stop stop-color="#D9D9D9"/>
<stop offset="0.0961" stop-color="#CFCFCF"/>
<stop offset="0.2579" stop-color="#B5B5B5"/>
<stop offset="0.4657" stop-color="#8A8A8A"/>
<stop offset="0.7114" stop-color="#4F4F4F"/>
<stop offset="0.9863" stop-color="#040404"/>
<stop offset="1"/>
</linearGradient>
<linearGradient id="paint32_linear_320_28" x1="257.875" y1="433.675" x2="257.875" y2="352.142" gradientUnits="userSpaceOnUse">
<stop stop-color="#D9D9D9"/>
<stop offset="0.0961" stop-color="#CFCFCF"/>
<stop offset="0.2579" stop-color="#B5B5B5"/>
<stop offset="0.4657" stop-color="#8A8A8A"/>
<stop offset="0.7114" stop-color="#4F4F4F"/>
<stop offset="0.9863" stop-color="#040404"/>
<stop offset="1"/>
</linearGradient>
<linearGradient id="paint33_linear_320_28" x1="341.112" y1="433.679" x2="341.112" y2="352.146" gradientUnits="userSpaceOnUse">
<stop stop-color="#D9D9D9"/>
<stop offset="0.0961" stop-color="#CFCFCF"/>
<stop offset="0.2579" stop-color="#B5B5B5"/>
<stop offset="0.4657" stop-color="#8A8A8A"/>
<stop offset="0.7114" stop-color="#4F4F4F"/>
<stop offset="0.9863" stop-color="#040404"/>
<stop offset="1"/>
</linearGradient>
<linearGradient id="paint34_linear_320_28" x1="324.471" y1="433.675" x2="324.471" y2="352.142" gradientUnits="userSpaceOnUse">
<stop stop-color="#D9D9D9"/>
<stop offset="0.0961" stop-color="#CFCFCF"/>
<stop offset="0.2579" stop-color="#B5B5B5"/>
<stop offset="0.4657" stop-color="#8A8A8A"/>
<stop offset="0.7114" stop-color="#4F4F4F"/>
<stop offset="0.9863" stop-color="#040404"/>
<stop offset="1"/>
</linearGradient>
<linearGradient id="paint35_linear_320_28" x1="307.82" y1="433.675" x2="307.82" y2="352.142" gradientUnits="userSpaceOnUse">
<stop stop-color="#D9D9D9"/>
<stop offset="0.0961" stop-color="#CFCFCF"/>
<stop offset="0.2579" stop-color="#B5B5B5"/>
<stop offset="0.4657" stop-color="#8A8A8A"/>
<stop offset="0.7114" stop-color="#4F4F4F"/>
<stop offset="0.9863" stop-color="#040404"/>
<stop offset="1"/>
</linearGradient>
<linearGradient id="paint36_linear_320_28" x1="291.173" y1="433.679" x2="291.173" y2="352.146" gradientUnits="userSpaceOnUse">
<stop stop-color="#D9D9D9"/>
<stop offset="0.0961" stop-color="#CFCFCF"/>
<stop offset="0.2579" stop-color="#B5B5B5"/>
<stop offset="0.4657" stop-color="#8A8A8A"/>
<stop offset="0.7114" stop-color="#4F4F4F"/>
<stop offset="0.9863" stop-color="#040404"/>
<stop offset="1"/>
</linearGradient>
<linearGradient id="paint37_linear_320_28" x1="107.858" y1="433.675" x2="107.858" y2="352.142" gradientUnits="userSpaceOnUse">
<stop stop-color="#D9D9D9"/>
<stop offset="0.0961" stop-color="#CFCFCF"/>
<stop offset="0.2579" stop-color="#B5B5B5"/>
<stop offset="0.4657" stop-color="#8A8A8A"/>
<stop offset="0.7114" stop-color="#4F4F4F"/>
<stop offset="0.9863" stop-color="#040404"/>
<stop offset="1"/>
</linearGradient>
<linearGradient id="paint38_linear_320_28" x1="91.2137" y1="433.679" x2="91.2137" y2="352.146" gradientUnits="userSpaceOnUse">
<stop stop-color="#D9D9D9"/>
<stop offset="0.0961" stop-color="#CFCFCF"/>
<stop offset="0.2579" stop-color="#B5B5B5"/>
<stop offset="0.4657" stop-color="#8A8A8A"/>
<stop offset="0.7114" stop-color="#4F4F4F"/>
<stop offset="0.9863" stop-color="#040404"/>
<stop offset="1"/>
</linearGradient>
<linearGradient id="paint39_linear_320_28" x1="70.9863" y1="433.7" x2="70.9863" y2="352.137" gradientUnits="userSpaceOnUse">
<stop stop-color="#D9D9D9"/>
<stop offset="0.0961" stop-color="#CFCFCF"/>
<stop offset="0.2579" stop-color="#B5B5B5"/>
<stop offset="0.4657" stop-color="#8A8A8A"/>
<stop offset="0.7114" stop-color="#4F4F4F"/>
<stop offset="0.9863" stop-color="#040404"/>
<stop offset="1"/>
</linearGradient>
<linearGradient id="paint40_linear_320_28" x1="74.5651" y1="433.675" x2="74.5651" y2="352.142" gradientUnits="userSpaceOnUse">
<stop stop-color="#D9D9D9"/>
<stop offset="0.0961" stop-color="#CFCFCF"/>
<stop offset="0.2579" stop-color="#B5B5B5"/>
<stop offset="0.4657" stop-color="#8A8A8A"/>
<stop offset="0.7114" stop-color="#4F4F4F"/>
<stop offset="0.9863" stop-color="#040404"/>
<stop offset="1"/>
</linearGradient>
<linearGradient id="paint41_linear_320_28" x1="88.0515" y1="433.698" x2="88.0515" y2="352.135" gradientUnits="userSpaceOnUse">
<stop stop-color="#D9D9D9"/>
<stop offset="0.0961" stop-color="#CFCFCF"/>
<stop offset="0.2579" stop-color="#B5B5B5"/>
<stop offset="0.4657" stop-color="#8A8A8A"/>
<stop offset="0.7114" stop-color="#4F4F4F"/>
<stop offset="0.9863" stop-color="#040404"/>
<stop offset="1"/>
</linearGradient>
<linearGradient id="paint42_linear_320_28" x1="174.439" y1="433.675" x2="174.439" y2="352.142" gradientUnits="userSpaceOnUse">
<stop stop-color="#D9D9D9"/>
<stop offset="0.0961" stop-color="#CFCFCF"/>
<stop offset="0.2579" stop-color="#B5B5B5"/>
<stop offset="0.4657" stop-color="#8A8A8A"/>
<stop offset="0.7114" stop-color="#4F4F4F"/>
<stop offset="0.9863" stop-color="#040404"/>
<stop offset="1"/>
</linearGradient>
<linearGradient id="paint43_linear_320_28" x1="141.149" y1="433.679" x2="141.149" y2="352.146" gradientUnits="userSpaceOnUse">
<stop stop-color="#D9D9D9"/>
<stop offset="0.0961" stop-color="#CFCFCF"/>
<stop offset="0.2579" stop-color="#B5B5B5"/>
<stop offset="0.4657" stop-color="#8A8A8A"/>
<stop offset="0.7114" stop-color="#4F4F4F"/>
<stop offset="0.9863" stop-color="#040404"/>
<stop offset="1"/>
</linearGradient>
<linearGradient id="paint44_linear_320_28" x1="157.791" y1="433.675" x2="157.791" y2="352.142" gradientUnits="userSpaceOnUse">
<stop stop-color="#D9D9D9"/>
<stop offset="0.0961" stop-color="#CFCFCF"/>
<stop offset="0.2579" stop-color="#B5B5B5"/>
<stop offset="0.4657" stop-color="#8A8A8A"/>
<stop offset="0.7114" stop-color="#4F4F4F"/>
<stop offset="0.9863" stop-color="#040404"/>
<stop offset="1"/>
</linearGradient>
<linearGradient id="paint45_linear_320_28" x1="105.135" y1="433.7" x2="105.135" y2="352.137" gradientUnits="userSpaceOnUse">
<stop stop-color="#D9D9D9"/>
<stop offset="0.0961" stop-color="#CFCFCF"/>
<stop offset="0.2579" stop-color="#B5B5B5"/>
<stop offset="0.4657" stop-color="#8A8A8A"/>
<stop offset="0.7114" stop-color="#4F4F4F"/>
<stop offset="0.9863" stop-color="#040404"/>
<stop offset="1"/>
</linearGradient>
<linearGradient id="paint46_linear_320_28" x1="124.498" y1="433.679" x2="124.498" y2="352.146" gradientUnits="userSpaceOnUse">
<stop stop-color="#D9D9D9"/>
<stop offset="0.0961" stop-color="#CFCFCF"/>
<stop offset="0.2579" stop-color="#B5B5B5"/>
<stop offset="0.4657" stop-color="#8A8A8A"/>
<stop offset="0.7114" stop-color="#4F4F4F"/>
<stop offset="0.9863" stop-color="#040404"/>
<stop offset="1"/>
</linearGradient>
<linearGradient id="paint47_linear_320_28" x1="274.522" y1="433.679" x2="274.522" y2="352.146" gradientUnits="userSpaceOnUse">
<stop stop-color="#D9D9D9"/>
<stop offset="0.0961" stop-color="#CFCFCF"/>
<stop offset="0.2579" stop-color="#B5B5B5"/>
<stop offset="0.4657" stop-color="#8A8A8A"/>
<stop offset="0.7114" stop-color="#4F4F4F"/>
<stop offset="0.9863" stop-color="#040404"/>
<stop offset="1"/>
</linearGradient>
<linearGradient id="paint48_linear_320_28" x1="67.5409" y1="433.724" x2="67.5409" y2="352.128" gradientUnits="userSpaceOnUse">
<stop stop-color="#D9D9D9"/>
<stop offset="0.0961" stop-color="#CFCFCF"/>
<stop offset="0.2579" stop-color="#B5B5B5"/>
<stop offset="0.4657" stop-color="#8A8A8A"/>
<stop offset="0.7114" stop-color="#4F4F4F"/>
<stop offset="0.9863" stop-color="#040404"/>
<stop offset="1"/>
</linearGradient>
<linearGradient id="paint49_linear_320_28" x1="85.0171" y1="433.718" x2="85.0171" y2="352.122" gradientUnits="userSpaceOnUse">
<stop stop-color="#D9D9D9"/>
<stop offset="0.0961" stop-color="#CFCFCF"/>
<stop offset="0.2579" stop-color="#B5B5B5"/>
<stop offset="0.4657" stop-color="#8A8A8A"/>
<stop offset="0.7114" stop-color="#4F4F4F"/>
<stop offset="0.9863" stop-color="#040404"/>
<stop offset="1"/>
</linearGradient>
<linearGradient id="paint50_linear_320_28" x1="137.43" y1="433.724" x2="137.43" y2="352.128" gradientUnits="userSpaceOnUse">
<stop stop-color="#D9D9D9"/>
<stop offset="0.0961" stop-color="#CFCFCF"/>
<stop offset="0.2579" stop-color="#B5B5B5"/>
<stop offset="0.4657" stop-color="#8A8A8A"/>
<stop offset="0.7114" stop-color="#4F4F4F"/>
<stop offset="0.9863" stop-color="#040404"/>
<stop offset="1"/>
</linearGradient>
<linearGradient id="paint51_linear_320_28" x1="102.496" y1="433.72" x2="102.496" y2="352.124" gradientUnits="userSpaceOnUse">
<stop stop-color="#D9D9D9"/>
<stop offset="0.0961" stop-color="#CFCFCF"/>
<stop offset="0.2579" stop-color="#B5B5B5"/>
<stop offset="0.4657" stop-color="#8A8A8A"/>
<stop offset="0.7114" stop-color="#4F4F4F"/>
<stop offset="0.9863" stop-color="#040404"/>
<stop offset="1"/>
</linearGradient>
<linearGradient id="paint52_linear_320_28" x1="119.964" y1="433.724" x2="119.964" y2="352.128" gradientUnits="userSpaceOnUse">
<stop stop-color="#D9D9D9"/>
<stop offset="0.0961" stop-color="#CFCFCF"/>
<stop offset="0.2579" stop-color="#B5B5B5"/>
<stop offset="0.4657" stop-color="#8A8A8A"/>
<stop offset="0.7114" stop-color="#4F4F4F"/>
<stop offset="0.9863" stop-color="#040404"/>
<stop offset="1"/>
</linearGradient>
<linearGradient id="paint53_linear_320_28" x1="347.303" y1="433.724" x2="347.303" y2="352.128" gradientUnits="userSpaceOnUse">
<stop stop-color="#D9D9D9"/>
<stop offset="0.0961" stop-color="#CFCFCF"/>
<stop offset="0.2579" stop-color="#B5B5B5"/>
<stop offset="0.4657" stop-color="#8A8A8A"/>
<stop offset="0.7114" stop-color="#4F4F4F"/>
<stop offset="0.9863" stop-color="#040404"/>
<stop offset="1"/>
</linearGradient>
<linearGradient id="paint54_linear_320_28" x1="364.782" y1="433.724" x2="364.782" y2="352.128" gradientUnits="userSpaceOnUse">
<stop stop-color="#D9D9D9"/>
<stop offset="0.0961" stop-color="#CFCFCF"/>
<stop offset="0.2579" stop-color="#B5B5B5"/>
<stop offset="0.4657" stop-color="#8A8A8A"/>
<stop offset="0.7114" stop-color="#4F4F4F"/>
<stop offset="0.9863" stop-color="#040404"/>
<stop offset="1"/>
</linearGradient>
<linearGradient id="paint55_linear_320_28" x1="381.87" y1="433.718" x2="381.87" y2="352.122" gradientUnits="userSpaceOnUse">
<stop stop-color="#D9D9D9"/>
<stop offset="0.0961" stop-color="#CFCFCF"/>
<stop offset="0.2579" stop-color="#B5B5B5"/>
<stop offset="0.4657" stop-color="#8A8A8A"/>
<stop offset="0.7114" stop-color="#4F4F4F"/>
<stop offset="0.9863" stop-color="#040404"/>
<stop offset="1"/>
</linearGradient>
<linearGradient id="paint56_linear_320_28" x1="378.026" y1="433.7" x2="378.026" y2="352.137" gradientUnits="userSpaceOnUse">
<stop stop-color="#D9D9D9"/>
<stop offset="0.0961" stop-color="#CFCFCF"/>
<stop offset="0.2579" stop-color="#B5B5B5"/>
<stop offset="0.4657" stop-color="#8A8A8A"/>
<stop offset="0.7114" stop-color="#4F4F4F"/>
<stop offset="0.9863" stop-color="#040404"/>
<stop offset="1"/>
</linearGradient>
<linearGradient id="paint57_linear_320_28" x1="329.829" y1="433.724" x2="329.829" y2="352.128" gradientUnits="userSpaceOnUse">
<stop stop-color="#D9D9D9"/>
<stop offset="0.0961" stop-color="#CFCFCF"/>
<stop offset="0.2579" stop-color="#B5B5B5"/>
<stop offset="0.4657" stop-color="#8A8A8A"/>
<stop offset="0.7114" stop-color="#4F4F4F"/>
<stop offset="0.9863" stop-color="#040404"/>
<stop offset="1"/>
</linearGradient>
<linearGradient id="paint58_linear_320_28" x1="294.886" y1="433.724" x2="294.886" y2="352.128" gradientUnits="userSpaceOnUse">
<stop stop-color="#D9D9D9"/>
<stop offset="0.0961" stop-color="#CFCFCF"/>
<stop offset="0.2579" stop-color="#B5B5B5"/>
<stop offset="0.4657" stop-color="#8A8A8A"/>
<stop offset="0.7114" stop-color="#4F4F4F"/>
<stop offset="0.9863" stop-color="#040404"/>
<stop offset="1"/>
</linearGradient>
<linearGradient id="paint59_linear_320_28" x1="216.153" y1="433.718" x2="216.153" y2="352.122" gradientUnits="userSpaceOnUse">
<stop stop-color="#D9D9D9"/>
<stop offset="0.0961" stop-color="#CFCFCF"/>
<stop offset="0.2579" stop-color="#B5B5B5"/>
<stop offset="0.4657" stop-color="#8A8A8A"/>
<stop offset="0.7114" stop-color="#4F4F4F"/>
<stop offset="0.9863" stop-color="#040404"/>
<stop offset="1"/>
</linearGradient>
<linearGradient id="paint60_linear_320_28" x1="312.349" y1="433.72" x2="312.349" y2="352.124" gradientUnits="userSpaceOnUse">
<stop stop-color="#D9D9D9"/>
<stop offset="0.0961" stop-color="#CFCFCF"/>
<stop offset="0.2579" stop-color="#B5B5B5"/>
<stop offset="0.4657" stop-color="#8A8A8A"/>
<stop offset="0.7114" stop-color="#4F4F4F"/>
<stop offset="0.9863" stop-color="#040404"/>
<stop offset="1"/>
</linearGradient>
<linearGradient id="paint61_linear_320_28" x1="305.804" y1="433.728" x2="305.804" y2="352.128" gradientUnits="userSpaceOnUse">
<stop stop-color="#D9D9D9"/>
<stop offset="0.0961" stop-color="#CFCFCF"/>
<stop offset="0.2579" stop-color="#B5B5B5"/>
<stop offset="0.4657" stop-color="#8A8A8A"/>
<stop offset="0.7114" stop-color="#4F4F4F"/>
<stop offset="0.9863" stop-color="#040404"/>
<stop offset="1"/>
</linearGradient>
<linearGradient id="paint62_linear_320_28" x1="240.666" y1="433.732" x2="240.666" y2="352.132" gradientUnits="userSpaceOnUse">
<stop stop-color="#D9D9D9"/>
<stop offset="0.0961" stop-color="#CFCFCF"/>
<stop offset="0.2579" stop-color="#B5B5B5"/>
<stop offset="0.4657" stop-color="#8A8A8A"/>
<stop offset="0.7114" stop-color="#4F4F4F"/>
<stop offset="0.9863" stop-color="#040404"/>
<stop offset="1"/>
</linearGradient>
<linearGradient id="paint63_linear_320_28" x1="224.374" y1="433.732" x2="224.374" y2="352.132" gradientUnits="userSpaceOnUse">
<stop stop-color="#D9D9D9"/>
<stop offset="0.0961" stop-color="#CFCFCF"/>
<stop offset="0.2579" stop-color="#B5B5B5"/>
<stop offset="0.4657" stop-color="#8A8A8A"/>
<stop offset="0.7114" stop-color="#4F4F4F"/>
<stop offset="0.9863" stop-color="#040404"/>
<stop offset="1"/>
</linearGradient>
<linearGradient id="paint64_linear_320_28" x1="207.947" y1="433.732" x2="207.947" y2="352.132" gradientUnits="userSpaceOnUse">
<stop stop-color="#D9D9D9"/>
<stop offset="0.0961" stop-color="#CFCFCF"/>
<stop offset="0.2579" stop-color="#B5B5B5"/>
<stop offset="0.4657" stop-color="#8A8A8A"/>
<stop offset="0.7114" stop-color="#4F4F4F"/>
<stop offset="0.9863" stop-color="#040404"/>
<stop offset="1"/>
</linearGradient>
<linearGradient id="paint65_linear_320_28" x1="191.658" y1="433.728" x2="191.658" y2="352.128" gradientUnits="userSpaceOnUse">
<stop stop-color="#D9D9D9"/>
<stop offset="0.0961" stop-color="#CFCFCF"/>
<stop offset="0.2579" stop-color="#B5B5B5"/>
<stop offset="0.4657" stop-color="#8A8A8A"/>
<stop offset="0.7114" stop-color="#4F4F4F"/>
<stop offset="0.9863" stop-color="#040404"/>
<stop offset="1"/>
</linearGradient>
<linearGradient id="paint66_linear_320_28" x1="289.511" y1="433.732" x2="289.511" y2="352.132" gradientUnits="userSpaceOnUse">
<stop stop-color="#D9D9D9"/>
<stop offset="0.0961" stop-color="#CFCFCF"/>
<stop offset="0.2579" stop-color="#B5B5B5"/>
<stop offset="0.4657" stop-color="#8A8A8A"/>
<stop offset="0.7114" stop-color="#4F4F4F"/>
<stop offset="0.9863" stop-color="#040404"/>
<stop offset="1"/>
</linearGradient>
<linearGradient id="paint67_linear_320_28" x1="256.953" y1="433.728" x2="256.953" y2="352.128" gradientUnits="userSpaceOnUse">
<stop stop-color="#D9D9D9"/>
<stop offset="0.0961" stop-color="#CFCFCF"/>
<stop offset="0.2579" stop-color="#B5B5B5"/>
<stop offset="0.4657" stop-color="#8A8A8A"/>
<stop offset="0.7114" stop-color="#4F4F4F"/>
<stop offset="0.9863" stop-color="#040404"/>
<stop offset="1"/>
</linearGradient>
<linearGradient id="paint68_linear_320_28" x1="175.379" y1="433.732" x2="175.379" y2="352.132" gradientUnits="userSpaceOnUse">
<stop stop-color="#D9D9D9"/>
<stop offset="0.0961" stop-color="#CFCFCF"/>
<stop offset="0.2579" stop-color="#B5B5B5"/>
<stop offset="0.4657" stop-color="#8A8A8A"/>
<stop offset="0.7114" stop-color="#4F4F4F"/>
<stop offset="0.9863" stop-color="#040404"/>
<stop offset="1"/>
</linearGradient>
<linearGradient id="paint69_linear_320_28" x1="322.079" y1="433.732" x2="322.079" y2="352.132" gradientUnits="userSpaceOnUse">
<stop stop-color="#D9D9D9"/>
<stop offset="0.0961" stop-color="#CFCFCF"/>
<stop offset="0.2579" stop-color="#B5B5B5"/>
<stop offset="0.4657" stop-color="#8A8A8A"/>
<stop offset="0.7114" stop-color="#4F4F4F"/>
<stop offset="0.9863" stop-color="#040404"/>
<stop offset="1"/>
</linearGradient>
<linearGradient id="paint70_linear_320_28" x1="273.23" y1="433.732" x2="273.23" y2="352.132" gradientUnits="userSpaceOnUse">
<stop stop-color="#D9D9D9"/>
<stop offset="0.0961" stop-color="#CFCFCF"/>
<stop offset="0.2579" stop-color="#B5B5B5"/>
<stop offset="0.4657" stop-color="#8A8A8A"/>
<stop offset="0.7114" stop-color="#4F4F4F"/>
<stop offset="0.9863" stop-color="#040404"/>
<stop offset="1"/>
</linearGradient>
<linearGradient id="paint71_linear_320_28" x1="159.098" y1="433.732" x2="159.098" y2="352.132" gradientUnits="userSpaceOnUse">
<stop stop-color="#D9D9D9"/>
<stop offset="0.0961" stop-color="#CFCFCF"/>
<stop offset="0.2579" stop-color="#B5B5B5"/>
<stop offset="0.4657" stop-color="#8A8A8A"/>
<stop offset="0.7114" stop-color="#4F4F4F"/>
<stop offset="0.9863" stop-color="#040404"/>
<stop offset="1"/>
</linearGradient>
<linearGradient id="paint72_linear_320_28" x1="57.6648" y1="433.675" x2="57.6648" y2="352.142" gradientUnits="userSpaceOnUse">
<stop stop-color="#D9D9D9"/>
<stop offset="0.0961" stop-color="#CFCFCF"/>
<stop offset="0.2579" stop-color="#B5B5B5"/>
<stop offset="0.4657" stop-color="#8A8A8A"/>
<stop offset="0.7114" stop-color="#4F4F4F"/>
<stop offset="0.9863" stop-color="#040404"/>
<stop offset="1"/>
</linearGradient>
<linearGradient id="paint73_linear_320_28" x1="61.1374" y1="433.732" x2="61.1374" y2="352.132" gradientUnits="userSpaceOnUse">
<stop stop-color="#D9D9D9"/>
<stop offset="0.0961" stop-color="#CFCFCF"/>
<stop offset="0.2579" stop-color="#B5B5B5"/>
<stop offset="0.4657" stop-color="#8A8A8A"/>
<stop offset="0.7114" stop-color="#4F4F4F"/>
<stop offset="0.9863" stop-color="#040404"/>
<stop offset="1"/>
</linearGradient>
<linearGradient id="paint74_linear_320_28" x1="53.6628" y1="433.7" x2="53.6628" y2="352.137" gradientUnits="userSpaceOnUse">
<stop stop-color="#D9D9D9"/>
<stop offset="0.0961" stop-color="#CFCFCF"/>
<stop offset="0.2579" stop-color="#B5B5B5"/>
<stop offset="0.4657" stop-color="#8A8A8A"/>
<stop offset="0.7114" stop-color="#4F4F4F"/>
<stop offset="0.9863" stop-color="#040404"/>
<stop offset="1"/>
</linearGradient>
<linearGradient id="paint75_linear_320_28" x1="77.6715" y1="433.728" x2="77.6715" y2="352.128" gradientUnits="userSpaceOnUse">
<stop stop-color="#D9D9D9"/>
<stop offset="0.0961" stop-color="#CFCFCF"/>
<stop offset="0.2579" stop-color="#B5B5B5"/>
<stop offset="0.4657" stop-color="#8A8A8A"/>
<stop offset="0.7114" stop-color="#4F4F4F"/>
<stop offset="0.9863" stop-color="#040404"/>
<stop offset="1"/>
</linearGradient>
<linearGradient id="paint76_linear_320_28" x1="126.526" y1="433.732" x2="126.526" y2="352.132" gradientUnits="userSpaceOnUse">
<stop stop-color="#D9D9D9"/>
<stop offset="0.0961" stop-color="#CFCFCF"/>
<stop offset="0.2579" stop-color="#B5B5B5"/>
<stop offset="0.4657" stop-color="#8A8A8A"/>
<stop offset="0.7114" stop-color="#4F4F4F"/>
<stop offset="0.9863" stop-color="#040404"/>
<stop offset="1"/>
</linearGradient>
<linearGradient id="paint77_linear_320_28" x1="93.9576" y1="433.728" x2="93.9576" y2="352.128" gradientUnits="userSpaceOnUse">
<stop stop-color="#D9D9D9"/>
<stop offset="0.0961" stop-color="#CFCFCF"/>
<stop offset="0.2579" stop-color="#B5B5B5"/>
<stop offset="0.4657" stop-color="#8A8A8A"/>
<stop offset="0.7114" stop-color="#4F4F4F"/>
<stop offset="0.9863" stop-color="#040404"/>
<stop offset="1"/>
</linearGradient>
<linearGradient id="paint78_linear_320_28" x1="142.807" y1="433.732" x2="142.807" y2="352.132" gradientUnits="userSpaceOnUse">
<stop stop-color="#D9D9D9"/>
<stop offset="0.0961" stop-color="#CFCFCF"/>
<stop offset="0.2579" stop-color="#B5B5B5"/>
<stop offset="0.4657" stop-color="#8A8A8A"/>
<stop offset="0.7114" stop-color="#4F4F4F"/>
<stop offset="0.9863" stop-color="#040404"/>
<stop offset="1"/>
</linearGradient>
<linearGradient id="paint79_linear_320_28" x1="49.8143" y1="433.724" x2="49.8143" y2="352.128" gradientUnits="userSpaceOnUse">
<stop stop-color="#D9D9D9"/>
<stop offset="0.0961" stop-color="#CFCFCF"/>
<stop offset="0.2579" stop-color="#B5B5B5"/>
<stop offset="0.4657" stop-color="#8A8A8A"/>
<stop offset="0.7114" stop-color="#4F4F4F"/>
<stop offset="0.9863" stop-color="#040404"/>
<stop offset="1"/>
</linearGradient>
<linearGradient id="paint80_linear_320_28" x1="110.239" y1="433.728" x2="110.239" y2="352.128" gradientUnits="userSpaceOnUse">
<stop stop-color="#D9D9D9"/>
<stop offset="0.0961" stop-color="#CFCFCF"/>
<stop offset="0.2579" stop-color="#B5B5B5"/>
<stop offset="0.4657" stop-color="#8A8A8A"/>
<stop offset="0.7114" stop-color="#4F4F4F"/>
<stop offset="0.9863" stop-color="#040404"/>
<stop offset="1"/>
</linearGradient>
<linearGradient id="paint81_linear_320_28" x1="197.947" y1="376.033" x2="197.947" y2="402.664" gradientUnits="userSpaceOnUse">
<stop offset="0.0017" stop-color="#BDBDBD"/>
<stop offset="0.1082" stop-color="#B3B3B3"/>
<stop offset="0.2875" stop-color="#999999"/>
<stop offset="0.5177" stop-color="#6E6E6E"/>
<stop offset="0.7868" stop-color="#333333"/>
<stop offset="1"/>
</linearGradient>
<linearGradient id="paint82_linear_320_28" x1="215.528" y1="394.06" x2="215.528" y2="410.145" gradientUnits="userSpaceOnUse">
<stop stop-color="#D9D9D9"/>
<stop offset="0.0235" stop-color="#D2D2D2"/>
<stop offset="0.2947" stop-color="#888888"/>
<stop offset="0.5376" stop-color="#4E4E4E"/>
<stop offset="0.7433" stop-color="#232323"/>
<stop offset="0.904" stop-color="#0A0A0A"/>
<stop offset="1"/>
</linearGradient>
</defs>
</svg>
