<svg width="40" height="67" viewBox="0 0 40 67" fill="none" xmlns="http://www.w3.org/2000/svg">
<path d="M38.9251 39.2551C38.9251 39.2491 38.9262 39.2441 38.9262 39.2381C38.9202 39.0431 38.8712 38.8521 38.8272 38.6631C38.7912 38.5111 38.7502 38.3551 38.7402 38.1981C38.7412 38.1911 38.7412 38.1831 38.7432 38.1761C38.7582 38.1371 38.7652 38.0951 38.7672 38.0541C38.8642 37.9901 38.9142 37.8841 38.9212 37.7731C39.0122 37.6941 39.0692 37.5781 39.0432 37.4531C39.0322 37.4001 39.0272 37.3471 39.0252 37.2931C39.0252 37.2901 39.0252 37.2841 39.0252 37.2781C39.0252 37.2751 39.0252 37.2701 39.0252 37.2701C39.0262 37.2361 39.0292 37.2021 39.0312 37.1691C39.0432 37.0131 39.0662 36.8581 39.0872 36.7031C39.1352 36.3611 39.1832 36.0151 39.1592 35.6691C39.1522 35.5641 39.0882 35.4701 39.0012 35.4091C38.9312 35.3411 38.8332 35.3011 38.7062 35.3161L34.8012 35.7991L38.7981 4.60406C38.8371 4.59306 38.8782 4.58507 38.9162 4.57207C39.2622 4.45707 39.5692 4.23007 39.7392 3.90307C39.9302 3.53607 39.8212 3.08507 39.5882 2.76507C39.3712 2.46607 38.9811 2.35106 38.6361 2.28306C38.2951 2.21606 37.9482 2.21007 37.6052 2.16507C37.6052 2.16507 28.3212 0.867066 28.2172 0.850066C27.6152 0.746066 26.9921 0.960067 26.5871 1.41707C26.2241 1.82607 26.1331 2.46807 26.5071 2.90307C26.7141 3.14407 26.9912 3.28506 27.2882 3.37306L26.0611 12.9521C24.4341 12.8811 22.8031 12.9331 21.1901 13.1541C18.7091 13.4941 16.3322 14.2571 14.1052 15.4001C10.2572 17.3751 7.14415 20.3791 4.96415 24.1091C3.00015 27.4681 1.77415 31.2381 1.25515 35.0901C0.733149 38.9681 0.918149 43.0551 2.33715 46.7351C3.01815 48.5021 4.00316 50.1661 5.29116 51.5601C6.73616 53.1241 8.50316 54.4821 10.4742 55.3311C10.0562 56.4731 9.65515 57.6211 9.27415 58.7761L8.90415 58.7291L8.40015 62.6601L34.8541 66.0501L35.3541 62.1471L33.9902 61.9721C33.9782 61.9701 33.9692 61.9641 33.9582 61.9611L32.3561 61.7561C32.4371 60.9951 32.6561 58.6811 32.6561 58.6811L20.9862 57.1861C20.9682 57.2281 20.9562 57.2731 20.9522 57.3201C20.9402 57.3491 20.9302 57.3801 20.9262 57.4121L20.5902 60.0331C20.5802 60.1111 20.6002 60.1871 20.6352 60.2541L17.6621 59.8731L19.0402 49.1191L22.1442 49.5171L21.8332 51.9471C21.6952 52.1551 21.7582 52.5041 22.0812 52.5451L33.2532 53.9761C33.4722 54.0041 33.6102 53.8651 33.6522 53.6991C33.7052 53.6431 33.7422 53.5721 33.7522 53.4921L34.0651 51.0451L36.2822 51.3291C36.3792 51.3411 36.4592 51.3161 36.5212 51.2701C36.6742 51.2411 36.8022 51.1211 36.8242 50.9471L36.9562 49.9171C37.1142 49.7321 37.0902 49.3811 36.8272 49.2951C36.7842 49.2651 36.7352 49.2451 36.6822 49.2411C36.6392 49.2381 36.5972 49.2431 36.5572 49.2531L36.3572 49.2271C36.3552 49.2031 36.3522 49.1791 36.3502 49.1541C36.3482 49.1301 36.3472 49.1061 36.3472 49.0831C36.3472 49.0781 36.3472 49.0731 36.3472 49.0671C36.3612 49.0301 36.3482 48.9521 36.3492 48.9131C36.3512 48.8611 36.3532 48.8091 36.3552 48.7561C36.3642 48.5231 36.3711 48.2881 36.3451 48.0561C36.3311 47.9381 36.2362 47.7941 36.1162 47.7601C35.8712 47.6911 35.6322 47.6581 35.3772 47.6551C35.3242 47.6541 35.2711 47.6551 35.2181 47.6551C35.1411 47.6551 35.0502 47.6471 34.9732 47.6571C34.9862 47.6551 34.9952 47.6541 35.0022 47.6531C34.9882 47.6541 34.9692 47.6561 34.9602 47.6561C34.9312 47.6561 34.9032 47.6561 34.8742 47.6551C34.8172 47.6541 34.7601 47.6521 34.7031 47.6481C34.4921 47.6361 34.3172 47.7621 34.2802 47.9751C34.2712 48.0301 34.2591 48.0831 34.2461 48.1371C34.2391 48.1651 34.2011 48.2661 34.2421 48.1551C34.2341 48.1771 34.2292 48.2011 34.2232 48.2241C34.1872 48.3541 34.1492 48.4841 34.1262 48.6171C34.1072 48.7261 34.1071 48.8321 34.1171 48.9371L21.5132 47.3221C21.5112 47.2981 21.5072 47.2731 21.5062 47.2491C21.5052 47.2251 21.5031 47.2011 21.5031 47.1781C21.5031 47.1731 21.5031 47.1681 21.5031 47.1621C21.5171 47.1251 21.5041 47.0471 21.5051 47.0081C21.5071 46.9561 21.5091 46.9031 21.5111 46.8511C21.5201 46.6181 21.5272 46.3831 21.5012 46.1511C21.4882 46.0331 21.3922 45.8891 21.2732 45.8551C21.0282 45.7861 20.7892 45.7531 20.5342 45.7511C20.4812 45.7501 20.4282 45.7511 20.3762 45.7511C20.2992 45.7511 20.2082 45.7431 20.1312 45.7531C20.1442 45.7511 20.1531 45.7501 20.1601 45.7491C20.1461 45.7511 20.1272 45.7521 20.1182 45.7521C20.0892 45.7521 20.0612 45.7521 20.0322 45.7511C19.9752 45.7501 19.9182 45.7481 19.8622 45.7441C19.6512 45.7321 19.4762 45.8581 19.4392 46.0711C19.4292 46.1261 19.4182 46.1801 19.4052 46.2331C19.3982 46.2601 19.3601 46.3621 19.4011 46.2511C19.3931 46.2731 19.3881 46.2981 19.3821 46.3201C19.3461 46.4501 19.3081 46.5801 19.2851 46.7131C19.2661 46.8221 19.2661 46.9281 19.2761 47.0331L18.8752 46.9821C18.8732 46.9821 18.8711 46.9831 18.8691 46.9821C18.4871 46.5201 17.7832 46.3511 17.1802 46.3181C16.2402 46.2671 15.2551 46.4051 14.4571 46.9341C13.5361 47.5451 13.0622 48.5981 12.6692 49.5901C12.5782 49.8201 12.4892 50.0511 12.3982 50.2821C11.3192 48.7691 10.6632 46.9831 10.3682 45.1211C9.97116 42.6161 10.0162 40.0401 10.5062 37.5511C10.9912 35.0901 11.9471 32.6831 13.4921 30.6921C15.0131 28.7331 17.0992 27.3141 19.5302 26.7661C21.1042 26.4111 22.7222 26.3981 24.3082 26.6351L23.2802 34.6611C23.2662 34.7711 23.2952 34.8601 23.3482 34.9271C23.3512 34.9321 23.3551 34.9371 23.3581 34.9411C23.3601 34.9441 23.3622 34.9461 23.3642 34.9491C23.3922 34.9861 23.4292 35.0181 23.4742 35.0421C23.6082 35.3331 23.7812 35.6121 23.9542 35.8791C24.1842 36.2331 24.4462 36.6011 24.7842 36.8601C24.8602 36.9181 24.9442 36.9671 25.0322 37.0061L20.3351 37.5871C20.2311 37.6001 20.1551 37.6461 20.1021 37.7081C19.9741 37.7851 19.8742 37.9301 19.9162 38.0831C20.0202 38.4581 20.1161 38.8341 20.2251 39.2081C20.2781 39.3891 20.3352 39.5671 20.3962 39.7451C20.4362 39.8611 20.4702 39.9781 20.5412 40.0791C20.5952 40.1561 20.6672 40.2071 20.7452 40.2461C20.7652 40.2971 20.7821 40.3481 20.7981 40.4001C20.8011 40.4131 20.8052 40.4261 20.8082 40.4381C20.8172 40.4731 20.8252 40.5091 20.8332 40.5441C20.8702 40.7041 20.9021 40.8651 20.9381 41.0251C20.9891 41.2521 21.0431 41.5241 21.1621 41.7431C21.1891 41.8461 21.2532 41.9341 21.3512 41.9821C21.4052 42.0271 21.4652 42.0591 21.5422 42.0691C21.6342 42.0811 21.7492 42.0541 21.8212 41.9931C21.8252 41.9901 21.8281 41.9861 21.8321 41.9821L22.0241 41.9581C22.1001 41.9781 22.1821 41.9751 22.2571 41.9391C22.2651 41.9351 22.2712 41.9301 22.2792 41.9261L22.3151 41.9211L22.7412 45.3641C22.7792 45.6741 23.1021 45.7461 23.3131 45.6301C23.3661 45.6501 23.4262 45.6601 23.4952 45.6511L27.3962 45.1681C27.6452 45.1371 27.7402 44.9231 27.7082 44.7301C27.8052 44.6611 27.8682 44.5471 27.8492 44.3931L27.4641 41.2821L27.8332 41.2361L28.1621 43.8961C28.1911 44.1311 28.4362 44.1861 28.5962 44.0981C28.6362 44.1141 28.6822 44.1211 28.7342 44.1141L31.6942 43.7471C31.8832 43.7241 31.9552 43.5611 31.9312 43.4151C32.0052 43.3631 32.0532 43.2761 32.0382 43.1601L31.7401 40.7521L32.2452 40.6891L32.6711 44.1321C32.7091 44.4421 33.0322 44.5141 33.2432 44.3981C33.2962 44.4181 33.3561 44.4281 33.4251 44.4191L37.3261 43.9361C37.5751 43.9051 37.6702 43.6911 37.6382 43.4981C37.7352 43.4291 37.7982 43.3151 37.7792 43.1611L37.3942 40.0501L38.7082 39.8871C39.0592 39.8561 39.1071 39.4541 38.9251 39.2551ZM27.3472 2.58607C27.3252 2.57807 27.3042 2.57006 27.2842 2.56106C26.9542 2.41706 26.9742 2.08206 27.2082 1.85806C27.7152 1.37206 28.8142 1.74807 29.4352 1.83407C30.5452 1.98707 31.6552 2.13607 32.7652 2.28407C33.8892 2.43407 35.0121 2.58307 36.1361 2.73207C36.6861 2.80507 37.2371 2.87706 37.7871 2.94906C38.0931 2.98906 39.6202 3.09407 38.9042 3.74307C38.5892 4.02907 38.1002 3.91607 37.7242 3.86807C37.1502 3.79407 36.5772 3.72307 36.0032 3.65207C34.8792 3.51107 33.7542 3.37007 32.6292 3.23007C31.6472 3.10807 30.6652 2.98607 29.6832 2.86607C29.2912 2.81807 28.9002 2.77007 28.5082 2.72307C28.1632 2.68207 27.6762 2.70207 27.3472 2.58607ZM21.6422 57.7721L31.8431 59.0791L31.5712 61.2051L21.3711 59.8981L21.6422 57.7721ZM34.5142 62.7941L34.1852 65.3621L9.16215 62.1561L9.49116 59.5881L34.5142 62.7941ZM33.0292 53.1841L22.6072 51.8491L22.8942 49.6131L33.3162 50.9481L33.0292 53.1841ZM36.1552 50.5491L19.1762 48.3731L19.2502 47.7961L36.2291 49.9721L36.1552 50.5491ZM34.8872 48.9641C34.8862 48.9621 34.8861 48.9621 34.8861 48.9601C34.8831 48.9511 34.8722 48.9181 34.8682 48.9081L34.8671 48.9041C34.8641 48.8861 34.8632 48.8681 34.8612 48.8491V48.8471C34.8622 48.8251 34.8641 48.8031 34.8671 48.7821C34.8731 48.7371 34.8812 48.6931 34.8902 48.6491C34.9002 48.6031 34.9121 48.5581 34.9231 48.5131C34.8941 48.6341 34.9322 48.4821 34.9412 48.4501C34.9452 48.4361 34.9482 48.4221 34.9522 48.4081C35.0242 48.4081 35.0962 48.4071 35.1672 48.4061C35.1702 48.4061 35.1711 48.4061 35.1731 48.4061C35.2001 48.4061 35.2262 48.4061 35.2532 48.4061C35.3582 48.4071 35.4642 48.4101 35.5692 48.4201C35.5832 48.4211 35.5972 48.4241 35.6122 48.4251C35.6102 48.5221 35.6072 48.6201 35.6032 48.7171C35.5982 48.8541 35.5962 48.9921 35.5992 49.1291L34.9192 49.0421C34.9102 49.0161 34.9032 48.9891 34.8872 48.9641ZM20.0432 47.0621C20.0422 47.0601 20.0422 47.0601 20.0422 47.0581C20.0392 47.0491 20.0281 47.0161 20.0241 47.0061L20.0232 47.0021C20.0202 46.9841 20.0192 46.9661 20.0172 46.9471V46.9451C20.0182 46.9231 20.0202 46.9011 20.0232 46.8801C20.0282 46.8351 20.0371 46.7911 20.0461 46.7471C20.0561 46.7011 20.0682 46.6561 20.0792 46.6111C20.0502 46.7321 20.0882 46.5801 20.0972 46.5481C20.1012 46.5341 20.1041 46.5201 20.1081 46.5061C20.1801 46.5061 20.2521 46.5051 20.3241 46.5041C20.3271 46.5041 20.3281 46.5041 20.3301 46.5041C20.3571 46.5041 20.3831 46.5041 20.4101 46.5041C20.5151 46.5051 20.6212 46.5081 20.7262 46.5181C20.7402 46.5191 20.7552 46.5221 20.7692 46.5231C20.7672 46.6201 20.7642 46.7181 20.7602 46.8151C20.7552 46.9521 20.7532 47.0901 20.7562 47.2271L20.0761 47.1401C20.0661 47.1141 20.0592 47.0871 20.0432 47.0621ZM12.6312 51.7701C12.6452 51.7861 12.6611 51.8001 12.6751 51.8151C12.7641 51.5461 12.8612 51.2801 12.9712 51.0191C12.9592 51.0051 12.9461 50.9921 12.9341 50.9791C13.2811 50.0531 13.5992 49.0511 14.1812 48.2531C14.7162 47.5191 15.4792 47.1751 16.3662 47.0911C16.9042 47.0401 18.2841 46.9521 18.3861 47.7151C18.3941 47.7741 18.4122 47.8231 18.4372 47.8651L18.3541 48.5141C18.3141 48.5991 18.3012 48.6971 18.3192 48.7891L16.9112 59.7761L10.0282 58.8941C10.3942 57.7931 10.7781 56.6971 11.1771 55.6081C11.1871 55.6121 11.1971 55.6151 11.2071 55.6191C11.2981 55.3841 11.3922 55.1511 11.4892 54.9181C11.4722 54.9121 11.4551 54.9071 11.4381 54.9011C11.8281 53.8541 12.2282 52.8111 12.6312 51.7701ZM20.2582 25.8641C17.6602 26.2561 15.3152 27.5131 13.5472 29.4551C9.96016 33.3961 8.89115 39.2471 9.50315 44.4051C9.68215 45.9141 10.0051 47.4071 10.6491 48.7901C11.0331 49.6161 11.5121 50.3951 12.0741 51.1091C11.7091 52.0471 11.3472 52.9871 10.9932 53.9291C10.9062 54.1591 10.8222 54.3891 10.7362 54.6191C9.29515 53.9891 7.97415 53.0671 6.81815 52.0151C5.41315 50.7371 4.28316 49.2051 3.47816 47.4851C1.88316 44.0721 1.52214 40.1791 1.86014 36.4621C2.19414 32.7911 3.18716 29.1371 4.86616 25.8491C6.75716 22.1441 9.50716 18.9821 13.0842 16.8251C15.0842 15.6191 17.2751 14.7031 19.5591 14.2071C21.6601 13.7501 23.8181 13.6141 25.9641 13.7031L24.4032 25.8861C23.0302 25.6831 21.6352 25.6561 20.2582 25.8641ZM24.0761 34.3861L28.0481 3.39007L37.8492 4.64607C37.9072 4.66007 37.9672 4.66606 38.0272 4.67306L34.0261 35.8961L33.4162 35.9721C33.4442 35.7821 33.3492 35.5741 33.1032 35.5421L24.0761 34.3861ZM25.0391 36.0371C25.0181 36.0181 24.9951 36.0041 24.9701 35.9921C24.9581 35.9781 24.9461 35.9651 24.9341 35.9511C24.8041 35.7931 24.6852 35.6261 24.5732 35.4561C24.5202 35.3761 24.4691 35.2951 24.4191 35.2121C24.4151 35.2051 24.4101 35.1981 24.4061 35.1911L31.9352 36.1561L26.9061 36.7781C26.8671 36.7751 26.8282 36.7721 26.7902 36.7681C26.6772 36.7551 26.5652 36.7361 26.4542 36.7121C26.4022 36.7011 26.3502 36.6891 26.2992 36.6751C26.2882 36.6721 26.2572 36.6631 26.2512 36.6611C26.2192 36.6521 26.1882 36.6421 26.1572 36.6321C25.9782 36.5751 25.8032 36.5031 25.6332 36.4221C25.5852 36.3801 25.5261 36.3511 25.4621 36.3391C25.4531 36.3341 25.4441 36.3301 25.4361 36.3251C25.4301 36.3221 25.4102 36.3101 25.3982 36.3031C25.3582 36.2781 25.3182 36.2541 25.2792 36.2271C25.1952 36.1681 25.1151 36.1061 25.0391 36.0371ZM27.0951 44.4521L23.6702 44.8761C23.5662 44.6991 23.4892 44.4561 23.4482 44.2381C23.3932 43.9481 23.3712 43.6521 23.3572 43.3571C23.3332 42.8431 23.3412 42.3211 23.2582 41.8111L26.7152 41.3831L27.0951 44.4521ZM31.4661 43.2081L28.6982 43.5511L28.4042 41.1761L31.1731 40.8331L31.4661 43.2081ZM37.0261 43.2221L33.3772 43.6741L32.9972 40.6061L36.6462 40.1541L37.0261 43.2221ZM22.3501 41.1631C22.3471 41.1551 22.3452 41.1461 22.3422 41.1381C22.3412 41.1351 22.3391 41.1281 22.3371 41.1201C22.3371 41.1181 22.3351 41.1141 22.3351 41.1141C22.3311 41.0981 22.3272 41.0821 22.3232 41.0661C22.3152 41.0331 22.3071 41.0011 22.3001 40.9681C22.2851 40.8981 22.2711 40.8271 22.2591 40.7561C22.2261 40.5601 22.2072 40.3611 22.1952 40.1621C22.2232 40.1531 22.2512 40.1451 22.2792 40.1371L22.2802 40.1361L37.6451 38.2341C37.6941 38.5731 37.7122 38.9171 37.7382 39.2591L22.3501 41.1631ZM21.2782 39.4971C21.1362 39.0981 21.0442 38.6831 20.9092 38.2821L26.9282 37.5371C27.1052 37.5451 27.2821 37.5381 27.4571 37.5071C27.5071 37.4981 27.5542 37.4801 27.5962 37.4541L38.3951 36.1171C38.3941 36.1281 38.3942 36.1401 38.3932 36.1511C38.3762 36.3171 38.3521 36.4821 38.3301 36.6461C38.2971 36.8851 38.2542 37.1451 38.2732 37.3921L21.2782 39.4971Z" fill="#CBE3FF"/>
<path d="M19.8718 15.9703C19.8308 15.9663 19.7938 15.9693 19.7588 15.9753C17.2638 15.5943 14.6598 18.3203 15.4598 20.8303C15.9508 22.3713 17.7198 23.0593 19.2158 22.9733C20.7688 22.8843 22.3928 21.9413 22.9048 20.4113C23.2198 19.4683 23.1158 18.3803 22.5828 17.5363C21.9998 16.6143 20.9308 16.0863 19.8718 15.9703ZM22.2688 19.8823C22.0058 21.1593 20.7548 21.9843 19.5338 22.1783C18.3698 22.3633 16.8318 22.0013 16.2768 20.8433C15.8118 19.8723 16.2078 18.7393 16.8438 17.9463C17.6098 16.9913 18.8738 16.3783 20.0808 16.8303C20.1798 16.8673 20.2698 16.8623 20.3478 16.8313C20.9288 16.9933 21.4648 17.3073 21.8378 17.7923C22.2868 18.3733 22.4158 19.1713 22.2688 19.8823Z" fill="#CBE3FF"/>
<path d="M19.4107 17.589C19.4077 17.589 19.4047 17.59 19.4017 17.59C19.2977 17.562 19.1877 17.549 19.0707 17.557C18.7917 17.576 18.5177 17.727 18.3157 17.914C17.8707 18.326 17.5537 18.955 17.6227 19.573C17.6937 20.218 18.2787 20.769 18.9277 20.787C19.5577 20.804 20.1837 20.483 20.5477 19.968C20.8927 19.48 20.9927 18.781 20.6917 18.245C20.4287 17.778 19.9397 17.548 19.4107 17.589Z" fill="#CBE3FF"/>
<path d="M11.8592 24.5769C11.6202 24.4609 11.3491 24.4499 11.0951 24.5119C10.8771 24.4689 10.6441 24.491 10.4211 24.6C9.94815 24.83 9.59315 25.283 9.40015 25.764C9.30015 26.014 9.24415 26.2769 9.24615 26.5469C9.24815 26.8469 9.34016 27.1109 9.50416 27.3609C9.81416 27.8349 10.3451 28.1069 10.9121 28.0379C11.9371 27.9139 12.8212 26.82 12.7022 25.792C12.6422 25.292 12.3152 24.7969 11.8592 24.5769Z" fill="#CBE3FF"/>
<path d="M13.7039 52.4973C14.4419 53.2143 15.6369 53.3963 16.4369 52.6883C17.0679 52.1293 17.4359 51.2023 17.2969 50.3603C17.2289 49.9523 17.0269 49.5513 16.6799 49.3123C16.5679 49.2353 16.4479 49.1763 16.3239 49.1323C15.9489 48.9253 15.5169 48.8343 15.0869 48.9083C14.5619 48.9993 14.1029 49.2923 13.7499 49.6833C13.4239 50.0443 13.1899 50.5273 13.1479 51.0163C13.0989 51.5793 13.2999 52.1033 13.7039 52.4973ZM13.9259 50.9113C13.9289 50.8973 13.9409 50.8553 13.9449 50.8423C13.9699 50.7663 13.9949 50.6923 14.0279 50.6193C14.0499 50.5713 14.0749 50.5263 14.0979 50.4793C14.1129 50.4553 14.1279 50.4303 14.1439 50.4063C14.2079 50.3103 14.2779 50.2203 14.3559 50.1353C14.3659 50.1243 14.3759 50.1143 14.3859 50.1043C14.3949 50.0953 14.4109 50.0793 14.4189 50.0723C14.4649 50.0313 14.5109 49.9903 14.5599 49.9523C14.6019 49.9193 14.6439 49.8893 14.6879 49.8603C14.6929 49.8573 14.6979 49.8543 14.7029 49.8513C14.8019 49.9053 14.9249 49.9103 15.0429 49.8763C14.9709 49.8973 15.0829 49.8653 15.0879 49.8643C15.1219 49.8563 15.1549 49.8473 15.1889 49.8403C15.2479 49.8273 15.3069 49.8163 15.3659 49.8063C15.4209 49.7973 15.4769 49.7903 15.5329 49.7853C15.5619 49.7823 15.5909 49.7803 15.6199 49.7783C15.6259 49.7783 15.6609 49.7773 15.6819 49.7773C15.7099 49.7783 15.7709 49.7813 15.7869 49.7823C15.8359 49.7863 15.8849 49.7933 15.9329 49.8013C15.9519 49.8043 15.9949 49.8173 16.0119 49.8223C16.0639 49.8593 16.1179 49.8943 16.1679 49.9353C16.2229 49.9793 16.2809 50.0033 16.3369 50.0123C16.3329 50.0083 16.3259 49.9993 16.3189 49.9923C16.3199 49.9933 16.3219 49.9943 16.3229 49.9963C16.3279 50.0013 16.3329 50.0073 16.3379 50.0133C16.3419 50.0183 16.3449 50.0203 16.3449 50.0213C16.3489 50.0253 16.3519 50.0293 16.3559 50.0333C16.3769 50.0583 16.3949 50.0843 16.4139 50.1093C16.4149 50.1103 16.4149 50.1113 16.4159 50.1113C16.4219 50.1183 16.4299 50.1293 16.4349 50.1403C16.4349 50.1413 16.4349 50.1413 16.4359 50.1413C16.4389 50.1463 16.4429 50.1523 16.4459 50.1573C16.4419 50.1513 16.4409 50.1503 16.4369 50.1453C16.4699 50.2143 16.4939 50.2853 16.5239 50.3543C16.5259 50.3623 16.5279 50.3703 16.5299 50.3773C16.5379 50.4173 16.5459 50.4573 16.5519 50.4973C16.5569 50.5313 16.5609 50.5653 16.5639 50.6003C16.5659 50.6233 16.5649 50.6973 16.5659 50.7153C16.5569 50.8673 16.5409 51.0153 16.5079 51.1663C16.5079 51.1683 16.5069 51.1713 16.5059 51.1743C16.5079 51.1683 16.5089 51.1633 16.5119 51.1553C16.5089 51.1643 16.5069 51.1733 16.5039 51.1813C16.5049 51.1783 16.5049 51.1763 16.5059 51.1743C16.4919 51.2193 16.4919 51.2203 16.4969 51.2073C16.4959 51.2113 16.4939 51.2163 16.4929 51.2203C16.4819 51.2563 16.4699 51.2923 16.4569 51.3273C16.4259 51.4123 16.3909 51.4963 16.3519 51.5773C16.3329 51.6153 16.3129 51.6513 16.2939 51.6883C16.2859 51.7013 16.2779 51.7153 16.2689 51.7283C16.2209 51.8043 16.1679 51.8763 16.1109 51.9453C16.0829 51.9793 16.0519 52.0113 16.0229 52.0443C16.0149 52.0523 16.0059 52.0603 15.9979 52.0683C15.9339 52.1273 15.8649 52.1793 15.7939 52.2293C15.7889 52.2333 15.7839 52.2363 15.7789 52.2393C15.7919 52.2303 15.7909 52.2293 15.7489 52.2583C15.7509 52.2573 15.7539 52.2553 15.7559 52.2543C15.7509 52.2583 15.7449 52.2613 15.7389 52.2643C15.7439 52.2613 15.7439 52.2613 15.7479 52.2583C15.7159 52.2733 15.6849 52.2903 15.6519 52.3053C15.6129 52.3233 15.5729 52.3373 15.5319 52.3523C15.5279 52.3543 15.5229 52.3553 15.5189 52.3563C15.5319 52.3523 15.5329 52.3513 15.4969 52.3623C15.5029 52.3613 15.5089 52.3593 15.5139 52.3573C15.4999 52.3623 15.4849 52.3663 15.4699 52.3713C15.4809 52.3673 15.4889 52.3653 15.4969 52.3623C15.4909 52.3643 15.4859 52.3653 15.4809 52.3663C15.4019 52.3803 15.3169 52.3803 15.2389 52.3963C15.2199 52.3953 15.2009 52.3943 15.1819 52.3933C15.1309 52.3893 15.0799 52.3823 15.0289 52.3733C15.0089 52.3693 14.9889 52.3643 14.9689 52.3613C14.9679 52.3613 14.9669 52.3613 14.9659 52.3613C14.9139 52.3433 14.8609 52.3273 14.8089 52.3073C14.7509 52.2843 14.6929 52.2593 14.6359 52.2333C14.6039 52.2183 14.5719 52.2023 14.5399 52.1853C14.5259 52.1783 14.5129 52.1703 14.4999 52.1633C14.4949 52.1603 14.4889 52.1563 14.4769 52.1493C14.3789 52.0863 14.2929 52.0143 14.2039 51.9403C14.2019 51.9383 14.2009 51.9383 14.1999 51.9373C14.1839 51.9203 14.1679 51.9023 14.1519 51.8843C14.1099 51.8363 14.0719 51.7843 14.0359 51.7313C14.0279 51.7193 14.0219 51.7113 14.0179 51.7063C14.0159 51.7013 14.0129 51.6923 14.0049 51.6773C13.9829 51.6303 13.9609 51.5843 13.9439 51.5353C13.9369 51.5163 13.9309 51.4983 13.9249 51.4793C13.9149 51.4233 13.9019 51.3683 13.8949 51.3123C13.8899 51.2703 13.8889 51.2293 13.8859 51.1873C13.8949 51.3063 13.8889 51.1463 13.8919 51.1133C13.8949 51.0713 13.9009 51.0293 13.9079 50.9883C13.9169 50.9613 13.9209 50.9363 13.9259 50.9113Z" fill="#CBE3FF"/>
<path d="M16.3408 50.0137C16.3468 50.0207 16.3478 50.0227 16.3478 50.0217C16.3458 50.0197 16.3438 50.0167 16.3408 50.0137Z" fill="#CBE3FF"/>
<path d="M16.4394 50.1447L16.4384 50.1417C16.4324 50.1317 16.4254 50.1217 16.4184 50.1117C16.4104 50.1017 16.4114 50.1077 16.4394 50.1447Z" fill="#CBE3FF"/>
</svg>
