<svg width="20" height="17" viewBox="0 0 20 17" fill="none" xmlns="http://www.w3.org/2000/svg">
<path d="M19.1205 0.0917969H12.2995H8.03549H1.2135C0.683502 0.0917969 0.687501 0.611797 0.687501 0.611797V2.6258V10.9208V12.9358C0.687501 12.9358 0.683502 13.4538 1.2135 13.4538H8.03549H8.1415V13.8818V14.4318C8.1415 14.4318 8.1175 15.2278 7.4525 15.5038C6.7875 15.7808 4.38651 16.2988 4.38651 16.2988C4.38651 16.2988 4.12451 16.4038 4.13651 16.5408C4.13651 16.5408 4.13551 16.5438 4.13651 16.5508V16.7688C4.13651 16.7688 4.1515 16.8568 4.2805 16.8648H8.1725H12.1635H16.0565C16.1845 16.8578 16.1995 16.7688 16.1995 16.7688V16.5398C16.2095 16.4018 15.9485 16.2978 15.9485 16.2978C15.9485 16.2978 13.5485 15.7798 12.8835 15.5028C12.2175 15.2278 12.1915 14.4308 12.1915 14.4308V13.8808V13.4528H12.3005H19.1215C19.6505 13.4528 19.6445 12.9348 19.6445 12.9348V10.9198V2.6248V0.610798C19.6445 0.610798 19.6485 0.0917969 19.1205 0.0917969ZM19.0635 10.5858H1.2675V1.4888H19.0635V10.5858Z" fill="white"/>
</svg>
