<svg width="13" height="12" viewBox="0 0 13 12" fill="none" xmlns="http://www.w3.org/2000/svg">
<path d="M12.6623 2.2158C12.6123 1.9998 12.3903 1.6328 12.0833 1.2568C11.7843 0.891798 11.3533 0.466797 11.1183 0.466797C11.0833 0.466797 11.0523 0.476796 11.0243 0.495796C11.0233 0.496796 11.0213 0.494797 11.0193 0.494797C10.9333 0.522797 10.8493 0.575799 10.7693 0.657799L10.0313 1.2608C9.92027 1.2418 9.82527 1.2598 9.75727 1.3158C9.70227 1.3618 9.64626 1.4458 9.65026 1.5998L9.52926 1.7098C9.40226 1.6798 9.29426 1.6958 9.22026 1.7568C9.16726 1.7998 9.11726 1.8798 9.11226 2.0178L1.26126 8.4478C1.23226 8.4708 1.22027 8.5078 1.22827 8.5438C1.04527 8.8428 0.703263 9.4198 0.445263 9.9408C0.422263 9.9488 0.402269 9.9628 0.391269 9.9848C0.0812693 10.6128 0.0662674 10.8038 0.0892674 10.9028C0.0962674 10.9318 0.108263 10.9578 0.124263 10.9788C0.153263 11.0138 0.191269 11.0338 0.294269 11.0338C0.445269 11.0338 0.734265 10.9878 1.17726 10.8898C1.20126 10.8848 1.22027 10.8688 1.23227 10.8488C1.86427 10.7078 2.58027 10.5178 2.79527 10.4598C2.80927 10.4678 2.82427 10.4738 2.84127 10.4738C2.86327 10.4738 2.88626 10.4658 2.90226 10.4518L10.7493 4.0248C10.7813 4.0308 10.8123 4.0348 10.8403 4.0348C10.9163 4.0348 10.9823 4.0128 11.0313 3.9718C11.1123 3.9058 11.1483 3.8008 11.1423 3.6598C11.1423 3.6588 11.1383 3.6558 11.1383 3.6528C11.1703 3.6158 11.1963 3.5838 11.2153 3.5608C11.2743 3.5778 11.3293 3.5908 11.3803 3.5908C11.4563 3.5908 11.5203 3.5708 11.5723 3.5278C11.6223 3.4868 11.6753 3.4048 11.6773 3.2618L12.5253 2.5668C12.5373 2.5588 12.5933 2.5078 12.6313 2.4368C12.6313 2.4358 12.6313 2.4348 12.6313 2.4348C12.6733 2.3858 12.6853 2.3138 12.6623 2.2158ZM11.9363 1.3778C12.2173 1.7208 12.4353 2.0758 12.4773 2.2588C12.4793 2.2758 12.4823 2.2868 12.4823 2.2958C12.3853 2.2698 12.0973 2.0758 11.6893 1.5788C11.4093 1.2358 11.1903 0.880796 11.1473 0.696796C11.1453 0.680796 11.1433 0.667798 11.1423 0.658798C11.2393 0.687798 11.5293 0.880796 11.9363 1.3778ZM10.8963 0.797798C10.9203 0.774798 10.9403 0.758798 10.9633 0.741798C11.0133 0.957798 11.2353 1.3248 11.5413 1.7008C11.6343 1.8138 12.0563 2.3128 12.3633 2.4528L11.5093 3.1518C11.3653 3.2258 10.9423 3.0128 10.5403 2.5228C10.3133 2.2468 10.1523 1.9528 10.0983 1.7158C10.0673 1.5808 10.0753 1.4758 10.1203 1.4338C10.1213 1.4338 10.1223 1.4318 10.1223 1.4298L10.8963 0.797798ZM9.14026 2.2368C9.18326 2.4068 9.27726 2.6058 9.40226 2.8108L1.89427 8.9598C1.91527 8.8688 1.91627 8.7808 1.89627 8.6988C1.88127 8.6258 1.84826 8.5568 1.80226 8.4968C1.76026 8.4408 1.70426 8.4018 1.64026 8.3808L9.14026 2.2368ZM0.295269 10.8718C0.271269 10.8718 0.258263 10.8708 0.249263 10.8708C0.247263 10.8708 0.245266 10.8708 0.245266 10.8708C0.205266 10.7998 0.309262 10.5208 0.488262 10.1468C0.522262 10.2138 0.558269 10.2788 0.600269 10.3388C0.716269 10.5058 0.862267 10.6508 1.02027 10.7558C0.705267 10.8248 0.434269 10.8718 0.295269 10.8718ZM1.19927 10.7118C1.01527 10.6128 0.842262 10.4528 0.710262 10.2628C0.652262 10.1818 0.605266 10.0908 0.563266 9.9948C0.771266 9.5828 1.05327 9.0828 1.34027 8.6128C1.35027 8.6098 1.35927 8.6058 1.36627 8.6038C1.36627 8.6028 1.44827 8.5568 1.53027 8.5568C1.58027 8.5568 1.61827 8.5748 1.64627 8.6128C1.67727 8.6528 1.69826 8.6958 1.70726 8.7428C1.76626 8.9928 1.52227 9.2628 1.52127 9.2658C1.49927 9.2888 1.49026 9.3218 1.49726 9.3368C1.49726 9.3418 1.49726 9.3448 1.49726 9.3508C1.50426 9.3958 1.54427 9.4268 1.59127 9.4268C1.59627 9.4268 1.60826 9.4258 1.61326 9.4258C1.63526 9.4208 1.65326 9.4078 1.66826 9.3918C1.67826 9.3818 1.70127 9.3648 1.73027 9.3408L1.87426 9.2238C1.93026 9.1998 1.99027 9.1788 2.04827 9.1788C2.12927 9.1788 2.19427 9.2138 2.24627 9.2868C2.37127 9.4518 2.29127 9.6298 2.20027 9.7498L2.04026 9.8818C2.01626 9.9028 2.00426 9.9308 2.01026 9.9718H2.00727C2.01527 10.0178 2.05527 10.0508 2.10127 10.0508C2.10827 10.0508 2.11527 10.0508 2.12027 10.0488C2.12827 10.0468 2.13926 10.0418 2.15026 10.0358C2.27826 9.9758 2.49026 9.9058 2.66726 9.9058C2.73826 9.9058 2.83527 9.9168 2.88527 9.9758C2.90027 9.9908 2.90726 10.0068 2.91326 10.0248C2.93626 10.1238 2.81727 10.2678 2.77427 10.3078C2.76727 10.3148 2.76826 10.3228 2.76426 10.3288C2.56326 10.3838 1.83726 10.5768 1.20526 10.7178C1.20426 10.7158 1.20227 10.7128 1.19927 10.7118ZM2.35527 9.2038C2.28527 9.1098 2.19327 9.0578 2.08727 9.0488L9.50627 2.9728C9.56327 3.0558 9.62327 3.1388 9.68927 3.2188C9.75627 3.2998 9.82527 3.3748 9.89527 3.4478L2.43527 9.5578C2.45727 9.4428 2.44327 9.3208 2.35527 9.2038ZM3.10527 10.0358C3.10527 10.0168 3.10226 9.9988 3.09826 9.9828C3.08626 9.9318 3.06226 9.8878 3.02926 9.8478C2.95026 9.7598 2.82626 9.7148 2.66426 9.7148C2.62026 9.7148 2.57627 9.7178 2.53327 9.7238L10.0303 3.5828C10.1593 3.7028 10.2913 3.8068 10.4173 3.8838C10.4573 3.9088 10.4963 3.9308 10.5353 3.9498L3.10527 10.0358ZM10.5163 3.7228C10.2983 3.5878 10.0563 3.3658 9.83627 3.0968C9.56927 2.7738 9.37627 2.4258 9.31627 2.1678C9.28727 2.0368 9.29427 1.9388 9.33827 1.9038C9.35427 1.8908 9.37627 1.8858 9.40527 1.8848C9.38827 1.9738 9.39827 2.1218 9.49627 2.3688C9.66727 2.8118 10.3633 3.6498 10.7073 3.7588C10.7213 3.7638 10.8033 3.7978 10.8923 3.7978C10.9023 3.7978 10.9133 3.7928 10.9243 3.7908C10.9193 3.8008 10.9163 3.8158 10.9103 3.8218C10.8523 3.8688 10.6963 3.8298 10.5163 3.7228ZM11.0273 3.5758C11.0073 3.5808 10.9893 3.5948 10.9813 3.6128L10.9683 3.6388C10.9233 3.6818 10.8063 3.6558 10.7513 3.6328C10.4453 3.5368 9.77727 2.7248 9.61827 2.3218C9.50627 2.0328 9.52926 1.9168 9.54326 1.8828C9.54426 1.8828 9.54627 1.8818 9.54727 1.8818C9.56927 1.8808 9.58927 1.8668 9.60027 1.8488C9.60227 1.8428 9.60826 1.8268 9.61226 1.8118L9.66826 1.7618C9.66826 1.7638 9.66827 1.7668 9.67027 1.7718C9.73427 2.0558 9.94326 2.4338 10.2243 2.7788C10.5123 3.1278 10.8213 3.3878 11.0823 3.5098C11.0673 3.5298 11.0473 3.5518 11.0273 3.5758ZM11.4483 3.3818C11.3303 3.4798 10.8373 3.2208 10.3753 2.6568C10.1103 2.3338 9.91627 1.9848 9.85527 1.7268C9.82427 1.5948 9.83226 1.4978 9.87626 1.4618C9.88326 1.4558 9.89226 1.4518 9.90326 1.4478C9.88026 1.5328 9.88427 1.6368 9.91127 1.7598C9.97227 2.0228 10.1473 2.3458 10.3923 2.6438C10.7573 3.0898 11.1823 3.3658 11.4673 3.3578C11.4633 3.3668 11.4563 3.3738 11.4483 3.3818Z" fill="white"/>
</svg>
