<svg width="19" height="36" viewBox="0 0 19 36" fill="none" xmlns="http://www.w3.org/2000/svg">
<path d="M7.46279 0.874534C6.64679 1.31753 6.61779 2.43153 6.81379 3.22453C7.01579 4.04153 7.51679 4.75654 7.52979 5.62254C7.55079 7.00054 6.2768 7.95054 5.7868 9.14954C5.6738 9.42554 5.61279 9.70754 5.60479 9.98454C5.46979 9.75354 5.2758 9.55754 5.0608 9.39954C4.7208 9.15154 4.3228 8.98853 4.0068 8.70853C3.7928 8.51853 3.63179 8.27454 3.52279 8.01154C3.04479 6.85054 3.31979 5.47153 3.52779 4.27953C3.59879 3.87553 2.97079 3.76754 2.89979 4.17254C2.67879 5.43954 2.42879 6.85353 2.87479 8.10053C3.12479 8.79953 3.59779 9.25353 4.22779 9.62453C4.57079 9.82653 4.9578 10.0375 5.1148 10.4265C5.1938 10.6245 5.21679 10.8345 5.26479 11.0385C5.06579 11.0795 4.87779 11.1455 4.69779 11.2305C4.65879 11.1545 4.62079 11.0765 4.58779 11.0245C4.46179 10.8235 4.2948 10.6765 4.0908 10.5565C3.6578 10.3015 3.15779 10.1965 2.73379 9.92254C1.89179 9.37854 1.4268 8.53454 1.3738 7.53854C1.3518 7.12854 0.717792 7.18454 0.738792 7.59454C0.796792 8.68654 1.2978 9.67753 2.1928 10.3205C2.6488 10.6485 3.15179 10.8035 3.65079 11.0435C3.89879 11.1635 4.0268 11.3135 4.1578 11.5515C4.1588 11.5535 4.1608 11.5565 4.1618 11.5585C3.3438 12.1785 2.76379 13.2075 2.39779 14.1435C1.69879 15.9285 1.40079 18.0075 1.83079 19.8915C2.10379 21.0875 2.79179 22.1105 3.88779 22.6935C5.00979 23.2895 6.3398 23.3765 7.4118 24.0815C8.3798 24.7175 8.97079 25.7105 9.30279 26.8015C9.63279 27.8855 9.6708 29.0015 9.8388 30.1135C10.1278 32.0265 10.9168 34.4375 12.8748 35.2365C13.8898 35.6505 15.0858 35.5395 16.0368 35.0095C16.9848 34.4815 17.6258 33.5175 17.9908 32.5175C18.7478 30.4465 18.6498 27.9395 17.4108 26.0735C16.7988 25.1525 15.9468 24.4155 15.0478 23.7835C14.1698 23.1675 13.2268 22.6375 12.4288 21.9125C12.0568 21.5755 11.7118 21.1905 11.4808 20.7405C11.2298 20.2515 11.1848 19.7465 11.1918 19.2045C11.2088 17.9945 11.4058 16.8035 11.1198 15.6065C10.8288 14.3915 10.1258 13.2835 9.25779 12.3975C8.52779 11.6525 7.6238 11.0175 6.5698 10.9185C6.5588 10.8885 6.54379 10.8575 6.52079 10.8275C5.73379 9.81554 6.78179 8.64454 7.35079 7.80254C7.69679 7.29154 8.02379 6.76754 8.12279 6.14754C8.25279 5.33354 8.01479 4.58854 7.71479 3.84254C7.44079 3.16054 6.95679 1.86754 7.82279 1.39654C8.18479 1.20254 7.81879 0.680534 7.46279 0.874534ZM10.1118 14.6795C10.6258 15.7525 10.6918 16.8545 10.6188 18.0235C10.5518 19.0915 10.4408 20.1535 10.9708 21.1275C11.9518 22.9295 14.0978 23.7235 15.5928 25.0055C16.3628 25.6665 17.0218 26.4585 17.3998 27.4095C17.7908 28.3945 17.8978 29.4845 17.7908 30.5355C17.5888 32.5245 16.5488 34.7645 14.2788 34.8485C12.1528 34.9275 11.0968 32.7575 10.6588 30.9925C10.4138 30.0065 10.3878 28.9935 10.2228 27.9945C10.0488 26.9395 9.75879 25.8825 9.17379 24.9755C8.56079 24.0255 7.6408 23.3535 6.5828 22.9755C5.4568 22.5725 4.16379 22.3905 3.30979 21.4725C2.56579 20.6735 2.3318 19.5455 2.2898 18.4875C2.2548 17.6095 2.33379 16.7215 2.52979 15.8645C2.71979 15.0345 3.0048 14.2185 3.4078 13.4665C3.6918 12.9385 4.06979 12.3875 4.57079 12.0245C4.57779 12.0275 4.58379 12.0315 4.59179 12.0335C4.80979 12.1035 4.9918 11.9475 5.0368 11.7775C5.0448 11.7755 5.0508 11.7765 5.0588 11.7735C5.2568 11.7095 5.45279 11.6615 5.64779 11.6255C5.77579 11.6185 5.90379 11.6195 6.03379 11.6385C6.13879 11.6535 6.2228 11.6215 6.2848 11.5665C6.8038 11.5675 7.3098 11.6965 7.7978 12.0115C8.7858 12.6485 9.60579 13.6225 10.1118 14.6795Z" fill="#CBE3FF"/>
<path d="M5.6712 13.9927C4.9012 14.2107 4.09719 14.9527 4.07619 15.7897C4.06519 16.2277 4.25119 16.7117 3.99419 17.1057C3.84919 17.3277 3.66019 17.5077 3.50819 17.7067C3.41419 17.7397 3.3342 17.8147 3.3072 17.9397C3.2832 18.0497 3.26519 18.1607 3.25519 18.2717C3.25119 18.2967 3.24519 18.3187 3.24319 18.3447C3.24119 18.3707 3.24219 18.3957 3.24619 18.4197C3.23919 18.6877 3.2842 18.9527 3.4152 19.1977C3.5822 19.5107 3.8652 19.7247 4.1672 19.8977C4.4822 20.0787 4.82419 20.2087 5.14219 20.3837C5.50919 20.5857 5.74618 20.8447 5.92618 21.2227C6.12518 21.6397 6.33018 22.0697 6.80118 22.2277C7.20718 22.3637 7.65719 22.2817 8.00719 22.0427C8.65619 21.6007 9.0172 20.6887 8.9002 19.9207C8.8352 19.4937 8.61819 19.1457 8.30619 18.8537C8.01019 18.5777 7.64619 18.3677 7.38119 18.0577C7.15519 17.7927 7.19119 17.5657 7.33619 17.2707C7.51019 16.9157 7.71419 16.5847 7.81719 16.1987C7.98619 15.5647 7.85719 14.8697 7.38619 14.3967C6.93919 13.9477 6.2712 13.8227 5.6712 13.9927ZM7.23519 15.8837C7.13619 16.4947 6.62519 16.9677 6.57619 17.5857C6.51519 18.3427 7.2412 18.7887 7.7492 19.2117C7.9962 19.4177 8.2082 19.6477 8.2662 19.9757C8.3262 20.3147 8.2452 20.6637 8.0962 20.9687C7.9642 21.2377 7.75619 21.5037 7.46719 21.6117C7.04119 21.7697 6.7742 21.5157 6.5962 21.1547C6.4062 20.7697 6.23519 20.4047 5.89719 20.1257C5.61619 19.8937 5.28219 19.7337 4.95519 19.5797C4.66219 19.4417 4.33219 19.3107 4.10419 19.0727C3.90919 18.8687 3.86919 18.6147 3.89019 18.3547C3.96219 18.0237 4.2662 17.8137 4.4622 17.5447C4.7272 17.1827 4.79219 16.8077 4.75619 16.3677C4.73619 16.1197 4.6682 15.8387 4.7402 15.5927C4.8322 15.2797 5.13219 15.0087 5.39019 14.8287C5.78919 14.5507 6.32519 14.4387 6.76119 14.7047C7.16319 14.9527 7.30719 15.4347 7.23519 15.8837Z" fill="#CBE3FF"/>
<path d="M11.0129 23.6463C10.8549 23.6063 10.6649 23.6312 10.5159 23.6952C10.3889 23.7502 10.2819 23.8273 10.1939 23.9263C10.1759 23.9253 10.1589 23.9232 10.1409 23.9222C10.0389 23.9212 9.91088 24.0103 9.87888 24.1073C9.83688 24.2343 9.80888 24.3593 9.82488 24.4943C9.83988 24.6173 9.88088 24.7312 9.94788 24.8362C10.0529 25.0002 10.2309 25.1303 10.4149 25.1923C10.6289 25.2643 10.8489 25.2812 11.0669 25.2142C11.2719 25.1512 11.4589 24.9883 11.5319 24.7843C11.5799 24.6523 11.5979 24.5223 11.5879 24.3813C11.5809 24.2753 11.5599 24.1643 11.5149 24.0673C11.4649 23.9603 11.4029 23.8633 11.3099 23.7873C11.2199 23.7153 11.1239 23.6743 11.0129 23.6463Z" fill="#CBE3FF"/>
<path d="M12.9945 31.2868C12.6355 31.3898 12.3186 31.7028 12.2386 32.0728C12.1126 32.2638 12.0426 32.4948 12.0516 32.7398C12.0726 33.2608 12.5096 33.7268 13.0416 33.7098C13.4886 33.6948 13.8486 33.3338 14.0606 32.9718C14.2826 32.5908 14.3406 32.1218 14.1256 31.7278C13.9026 31.3158 13.4315 31.1608 12.9945 31.2868Z" fill="#CBE3FF"/>
<path d="M14.158 28.0608C14.124 28.0348 14.086 28.0198 14.043 28.0138C13.992 28.0058 13.942 28.0098 13.892 28.0258C13.879 28.0258 13.867 28.0238 13.854 28.0258C13.812 28.0278 13.773 28.0398 13.738 28.0618C13.715 28.0708 13.695 28.0838 13.677 28.0998C13.666 28.1038 13.655 28.1068 13.645 28.1108C13.62 28.1228 13.596 28.1358 13.571 28.1488C13.55 28.1678 13.529 28.1878 13.508 28.2068C13.493 28.2308 13.477 28.2548 13.462 28.2788C13.443 28.3168 13.434 28.3568 13.436 28.3988C13.431 28.4258 13.434 28.4528 13.443 28.4788C13.445 28.5018 13.454 28.5218 13.465 28.5418C13.457 28.5808 13.457 28.6228 13.456 28.6608C13.456 28.6778 13.457 28.6948 13.46 28.7108C13.47 28.7658 13.48 28.8178 13.515 28.8638C13.531 28.8858 13.557 28.9128 13.578 28.9308C13.605 28.9538 13.638 28.9708 13.67 28.9888C13.708 29.0088 13.752 29.0198 13.793 29.0308C13.823 29.0388 13.853 29.0388 13.884 29.0398C13.929 29.0418 13.94 29.0418 13.984 29.0328C13.997 29.0298 14.011 29.0268 14.024 29.0238C14.065 29.0108 14.1 28.9888 14.129 28.9578C14.169 28.9218 14.177 28.9098 14.208 28.8538C14.216 28.8388 14.224 28.8238 14.232 28.8088C14.244 28.7868 14.256 28.7638 14.266 28.7408C14.284 28.6998 14.297 28.6558 14.308 28.6118C14.318 28.5708 14.317 28.5228 14.318 28.4818C14.32 28.4208 14.312 28.3598 14.307 28.2998C14.302 28.2438 14.284 28.1928 14.252 28.1468C14.228 28.1098 14.196 28.0808 14.158 28.0608Z" fill="#CBE3FF"/>
</svg>
